<svg id="图层_1" data-name="图层 1" xmlns="http://www.w3.org/2000/svg" xmlns:xlink="http://www.w3.org/1999/xlink" viewBox="0 0 1024 1024"><defs><style>.cls-1{fill:url(#未命名的渐变_69);}.cls-2{opacity:0.23;}.cls-3,.cls-4{font-size:201.08px;font-family:MicrosoftYaHei-Bold, Microsoft YaHei;font-weight:700;}.cls-3,.cls-5{fill:#243994;}.cls-4,.cls-6{fill:#fff;}</style><linearGradient id="未命名的渐变_69" x1="512" y1="1024" x2="512" gradientUnits="userSpaceOnUse"><stop offset="0.18" stop-color="#2c69b3"/><stop offset="0.24" stop-color="#2b72b9"/><stop offset="0.67" stop-color="#24b4ea"/><stop offset="0.89" stop-color="#24baee"/></linearGradient></defs><title>上海快三</title><rect class="cls-1" width="1024" height="1024" rx="350" ry="350"/><g class="cls-2"><text class="cls-3" transform="matrix(0.98, 0, -0.19, 0.98, 312.3, 320.31)">上海</text></g><text class="cls-4" transform="matrix(0.98, 0, -0.19, 0.98, 311.3, 288.31)">上海</text><g class="cls-2"><path class="cls-5" d="M141.21,602.33s1.33-182.67,4.33-182.67,51.67,23,52.33,39.67S176.54,541,176.54,541l-19,68.67S143.21,611.33,141.21,602.33Z" transform="translate(-1.09 -1)"/><path class="cls-5" d="M126.88,574s146.67,37,167.67,41.33c0,0,15.67-11,4.67-20.67s-166.67-71-171-71S123.54,570.67,126.88,574Z" transform="translate(-1.09 -1)"/><path class="cls-5" d="M271.21,410.33s-89.33,133-90,323l65.33,29s-20-181,44.33-339.33C290.88,423,279.21,412.33,271.21,410.33Z" transform="translate(-1.09 -1)"/><path class="cls-5" d="M308,486l2.69,1.54,24.31,14L281.54,836s4,36.5,15.5,42.5c0,0,49-83.5,84.5-380.5l-70-23S306.54,480.5,308,486Z" transform="translate(-1.09 -1)"/><path class="cls-5" d="M283.54,523.67s-2,36.83-2,41.83S389,615.33,389,615.33L381.54,669,262,621v63.5s180.5,70,204,71c0,0,8.5-27,0-56.5l-50-17s24.5-75.5,17.5-85.5S283.54,523.67,283.54,523.67Z" transform="translate(-1.09 -1)"/><ellipse class="cls-5" cx="405.86" cy="848.46" rx="31.25" ry="82.86" transform="translate(-202.93 129.62) rotate(-14.69)"/></g><path class="cls-6" d="M140.21,570.33s1.33-182.67,4.33-182.67,51.67,23,52.33,39.67S175.54,509,175.54,509l-19,68.67S142.21,579.33,140.21,570.33Z" transform="translate(-1.09 -1)"/><path class="cls-6" d="M125.88,542s146.67,37,167.67,41.33c0,0,15.67-11,4.67-20.67s-166.67-71-171-71S122.54,538.67,125.88,542Z" transform="translate(-1.09 -1)"/><path class="cls-6" d="M270.21,378.33s-89.33,133-90,323l65.33,29s-20-181,44.33-339.33C289.88,391,278.21,380.33,270.21,378.33Z" transform="translate(-1.09 -1)"/><path class="cls-6" d="M307,454l2.69,1.54,24.31,14L280.54,804s4,36.5,15.5,42.5c0,0,49-83.5,84.5-380.5l-70-23S305.54,448.5,307,454Z" transform="translate(-1.09 -1)"/><path class="cls-6" d="M282.54,491.67s-2,36.83-2,41.83S388,583.33,388,583.33L380.54,637,261,589v63.5s180.5,70,204,71c0,0,8.5-27,0-56.5l-50-17s24.5-75.5,17.5-85.5S282.54,491.67,282.54,491.67Z" transform="translate(-1.09 -1)"/><ellipse class="cls-6" cx="404.86" cy="816.46" rx="31.25" ry="82.86" transform="translate(-194.85 128.32) rotate(-14.69)"/><g class="cls-2"><path class="cls-5" d="M608.28,544.26s4.26-52.89,9.93-71.6c0,0,250.74-106.74,254.74-104.74s-120,210-120,210,190-52,107.33,125.33-252.4,218-252.4,218S860.21,729.33,744.5,643c0,0-17.62-17.63-54.22-8-17.54,4.6,76.67-151.67,76.67-157S613.61,533.93,608.28,544.26Z" transform="translate(-1.09 -1)"/></g><path class="cls-6" d="M607.28,512.26s4.26-52.89,9.93-71.6c0,0,250.74-106.74,254.74-104.74s-120,210-120,210,190-52,107.33,125.33-252.4,218-252.4,218S859.21,697.33,743.5,611c0,0-17.62-17.63-54.22-8-17.54,4.6,76.67-151.67,76.67-157S612.61,501.93,607.28,512.26Z" transform="translate(-1.09 -1)"/><g class="cls-2"><polyline class="cls-5" points="128.79 280 485.79 443 485.79 413"/><polyline class="cls-5" points="883.88 286.01 521.64 436.99 522.64 407.01"/><polyline class="cls-5" points="512.79 872 512.79 434 490.79 434"/><path class="cls-5" d="M420.19,396.33s59.51,10,204.09-.67c0,0-110.4,25.33-110.4,102H495.52s-24-60-75.33-90S420.19,396.33,420.19,396.33Z" transform="translate(-1.09 -1)"/></g><polyline class="cls-6" points="127.79 248 484.79 411 484.79 381"/><polyline class="cls-6" points="882.88 254.01 520.64 404.99 521.64 375.01"/><polyline class="cls-6" points="511.79 840 511.79 402 489.79 402"/><path class="cls-6" d="M419.19,364.33s59.51,10,204.09-.67c0,0-110.4,25.33-110.4,102H494.52s-24-60-75.33-90S419.19,364.33,419.19,364.33Z" transform="translate(-1.09 -1)"/></svg>