<svg id="图层_1" data-name="图层 1" xmlns="http://www.w3.org/2000/svg" xmlns:xlink="http://www.w3.org/1999/xlink" viewBox="0 0 1024 1024"><defs><style>.cls-1{fill:url(#未命名的渐变_10);}.cls-2{opacity:0.2;}.cls-3{fill:#dd6e00;}.cls-4{fill:#fff;}</style><linearGradient id="未命名的渐变_10" x1="512" x2="512" y2="1024" gradientUnits="userSpaceOnUse"><stop offset="0" stop-color="#ffd200"/><stop offset="1" stop-color="#f7971e"/></linearGradient></defs><title>排列三</title><rect class="cls-1" width="1024" height="1024" rx="350" ry="350"/><g class="cls-2"><circle class="cls-3" cx="366.5" cy="361.5" r="56.5"/><circle class="cls-3" cx="549" cy="305" r="78"/><circle class="cls-3" cx="614" cy="789" r="58"/><path class="cls-3" d="M156,462l-6,47H126v12h22l-7,63H107v14h32s-7,62-15,65c-9,1-25,0-25,0s8,24,23,25c5.92.39,10.9.48,14.76.43a23.45,23.45,0,0,0,21-13.42A61,61,0,0,0,162,662c5-23,12-76,12-76l21.5-15.5-6-6-13,11,7-59h22v-7l-19,1,4-49Z" transform="translate(-1)"/><polygon class="cls-3" points="197 498 227 498 231 461 268 461 232 680 197 683 204.5 630.5 170.5 630.5 173.5 621.5 206.5 621.5 214.5 566.5 191.5 567.5 193.5 558.5 216.5 558.5 223.5 510.5 197.41 509.87 197 498"/><polygon class="cls-3" points="293 461 256 683 293 683 300 627 331 626 330.5 618.5 301.5 618.5 309.5 565.5 339.5 566.5 339.5 559.5 310.5 558.5 318.5 504.5 351.5 504.5 351.5 497.5 320.5 498.5 326.5 461.5 293 461"/><path class="cls-3" d="M514.5,473.5v-13l-147,1L368,474h43s-32,66-55,91h24l7.35,14.44A22.09,22.09,0,0,0,407,591.5h7.46s-37,58-73,93L377.36,683a25.29,25.29,0,0,0,18.45-9.19c18.95-23,69.55-87.34,89.69-141.29,0,0,8-29-7-29h-48l15-30Zm-81.27,40h7.93a9.33,9.33,0,0,1,9.33,9.33v3.67s-16,47-30,50c-9.17,2.12-12.86-15.65-14.25-26.32a18.29,18.29,0,0,1,3.59-13.4L424,518.07A11.55,11.55,0,0,1,433.23,513.5Z" transform="translate(-1)"/><polygon class="cls-3" points="501 482 533 482 509 624 478 624 501 482"/><path class="cls-3" d="M554,460l37,1L559.88,653.55a21.39,21.39,0,0,1-5.9,11.66A38.91,38.91,0,0,1,528,677c-13,.62-25.62.47-33.35.27a22.47,22.47,0,0,1-13.77-5.17c-6.28-5.21-15.24-16.23-15.88-20.1,0,0,50.5,9.5,57.5-.5S554,460,554,460Z" transform="translate(-1)"/><path class="cls-3" d="M722,319l146.44-1a13.14,13.14,0,0,1,5.33,1.05c4.81,2,14.87,6.09,22.23,14.92a64.66,64.66,0,0,1,5.54,7.73,43.43,43.43,0,0,1,6.26,23.68L906.22,430a67.77,67.77,0,0,1-3.83,21c-4.08,11.51-11.85,28.59-24.45,38.6a7.61,7.61,0,0,0-2.12,9.25l6.23,13a29.26,29.26,0,0,1,2.88,13l-.84,71a70.75,70.75,0,0,1-2.24,17C878.39,626.11,870.19,650.13,853,668c-14.74,15.33-33,24.06-45.43,28.63a71.64,71.64,0,0,1-24.7,4.37H667.7a20.64,20.64,0,0,1-3.76-.34C658.26,699.61,642.32,696,635,687a131.89,131.89,0,0,1-10.36-15.06,43.66,43.66,0,0,1-6.18-24.17L621,581l78.5-3.5s-4,33,6,38c8.33,4.17,53.45,2.78,68.28,2.2a18,18,0,0,0,10.28-3.7,47.66,47.66,0,0,0,8.44-8.5c5.49-7.06,4.21-41.82,3.41-56.47a7.16,7.16,0,0,0-6.89-6.76L684.5,538.5l11-71h106a10.47,10.47,0,0,0,7.72-3.37,67.11,67.11,0,0,0,8.28-11.63c4.15-7.11,4.08-23,3.34-34.76a18.41,18.41,0,0,0-15.25-17,237.45,237.45,0,0,0-28.09-3.24c-21-1-43,1-49,17a237.38,237.38,0,0,0-9,30h-74s6.95-43.54,8.27-47.63c4.34-13.4,14.91-41.42,32.73-58.37C707,319,722,319,722,319Z" transform="translate(-1)"/></g><circle class="cls-4" cx="366.5" cy="335.5" r="56.5"/><circle class="cls-4" cx="549" cy="279" r="78"/><circle class="cls-4" cx="614" cy="763" r="58"/><path class="cls-4" d="M156,436l-6,47H126v12h22l-7,63H107v14h32s-7,62-15,65c-9,1-25,0-25,0s8,24,23,25c5.92.39,10.9.48,14.76.43a23.45,23.45,0,0,0,21-13.42A61,61,0,0,0,162,636c5-23,12-76,12-76l21.5-15.5-6-6-13,11,7-59h22v-7l-19,1,4-49Z" transform="translate(-1)"/><polygon class="cls-4" points="197 472 227 472 231 435 268 435 232 654 197 657 204.5 604.5 170.5 604.5 173.5 595.5 206.5 595.5 214.5 540.5 191.5 541.5 193.5 532.5 216.5 532.5 223.5 484.5 197.41 483.87 197 472"/><polygon class="cls-4" points="293 435 256 657 293 657 300 601 331 600 330.5 592.5 301.5 592.5 309.5 539.5 339.5 540.5 339.5 533.5 310.5 532.5 318.5 478.5 351.5 478.5 351.5 471.5 320.5 472.5 326.5 435.5 293 435"/><path class="cls-4" d="M514.5,447.5v-13l-147,1L368,448h43s-32,66-55,91h24l7.35,14.44A22.09,22.09,0,0,0,407,565.5h7.46s-37,58-73,93L377.36,657a25.29,25.29,0,0,0,18.45-9.19c18.95-23,69.55-87.34,89.69-141.29,0,0,8-29-7-29h-48l15-30Zm-81.27,40h7.93a9.33,9.33,0,0,1,9.33,9.33v3.67s-16,47-30,50c-9.17,2.12-12.86-15.65-14.25-26.32a18.29,18.29,0,0,1,3.59-13.4L424,492.07A11.55,11.55,0,0,1,433.23,487.5Z" transform="translate(-1)"/><polygon class="cls-4" points="501 456 533 456 509 598 478 598 501 456"/><path class="cls-4" d="M554,434l37,1L559.88,627.55a21.39,21.39,0,0,1-5.9,11.66A38.91,38.91,0,0,1,528,651c-13,.62-25.62.47-33.35.27a22.47,22.47,0,0,1-13.77-5.17c-6.28-5.21-15.24-16.23-15.88-20.1,0,0,50.5,9.5,57.5-.5S554,434,554,434Z" transform="translate(-1)"/><path class="cls-4" d="M722,293l146.44-1a13.14,13.14,0,0,1,5.33,1.05c4.81,2,14.87,6.09,22.23,14.92a64.66,64.66,0,0,1,5.54,7.73,43.43,43.43,0,0,1,6.26,23.68L906.22,404a67.77,67.77,0,0,1-3.83,21c-4.08,11.51-11.85,28.59-24.45,38.6a7.61,7.61,0,0,0-2.12,9.25l6.23,13a29.26,29.26,0,0,1,2.88,13l-.84,71a70.75,70.75,0,0,1-2.24,17C878.39,600.11,870.19,624.13,853,642c-14.74,15.33-33,24.06-45.43,28.63a71.64,71.64,0,0,1-24.7,4.37H667.7a20.64,20.64,0,0,1-3.76-.34C658.26,673.61,642.32,670,635,661a131.89,131.89,0,0,1-10.36-15.06,43.66,43.66,0,0,1-6.18-24.17L621,555l78.5-3.5s-4,33,6,38c8.33,4.17,53.45,2.78,68.28,2.2a18,18,0,0,0,10.28-3.7,47.66,47.66,0,0,0,8.44-8.5c5.49-7.06,4.21-41.82,3.41-56.47a7.16,7.16,0,0,0-6.89-6.76L684.5,512.5l11-71h106a10.47,10.47,0,0,0,7.72-3.37,67.11,67.11,0,0,0,8.28-11.63c4.15-7.11,4.08-23,3.34-34.76a18.41,18.41,0,0,0-15.25-17,237.45,237.45,0,0,0-28.09-3.24c-21-1-43,1-49,17a237.38,237.38,0,0,0-9,30h-74s6.95-43.54,8.27-47.63c4.34-13.4,14.91-41.42,32.73-58.37C707,293,722,293,722,293Z" transform="translate(-1)"/></svg>