<?xml version="1.0" standalone="no"?>
<!DOCTYPE svg PUBLIC "-//W3C//DTD SVG 1.1//EN" "http://www.w3.org/Graphics/SVG/1.1/DTD/svg11.dtd" >
<!--
2013-9-30: Created.
-->
<svg>
<metadata>
Created by iconfont
</metadata>
<defs>

<font id="iconfont" horiz-adv-x="1024" >
  <font-face
    font-family="iconfont"
    font-weight="500"
    font-stretch="normal"
    units-per-em="1024"
    ascent="896"
    descent="-128"
  />
    <missing-glyph />
    
    <glyph glyph-name="icon-pc-del" unicode="&#57711;" d="M384 42.66666699999996c12.8 0 21.333333 10.666667 21.333333 21.333333l-32 512c0 12.8-10.666667 21.333333-21.333333 21.333333-12.8 0-21.333333-10.666667-21.333333-21.333333L362.666667 64C362.666667 51.200000000000045 373.333333 42.66666699999996 384 42.66666699999996zM874.666667 725.333333L661.333333 725.333333 661.333333 810.666667c0 23.466667-19.2 42.666667-42.666667 42.666667L405.333333 853.333333c-23.466667 0-42.666667-19.2-42.666667-42.666667l0-85.333333L149.333333 725.333333C136.533333 725.333333 128 716.8 128 704c0-12.8 8.533333-21.333333 21.333333-21.333333l42.666667 0 42.666667-682.666667c6.4-46.933333 38.4-85.333333 85.333333-85.333333l384 0c46.933333 0 76.8 38.4 85.333333 85.333333l42.666667 682.666667 42.666667 0c12.8 0 21.333333 8.533333 21.333333 21.333333C896 716.8 887.466667 725.333333 874.666667 725.333333zM405.333333 810.666667l213.333333 0 0-85.333333L405.333333 725.333333 405.333333 810.666667zM746.666667 0c-2.133333-23.466667-19.2-42.666667-42.666667-42.666667L320-42.66666699999996c-23.466667 0-38.4 19.2-42.666667 42.666667l-42.666667 682.666667 554.666667 0L746.666667 0zM640 42.66666699999996c12.8 0 21.333333 8.533333 21.333333 21.333333l32 512c0 12.8-8.533333 21.333333-21.333333 21.333333-12.8 0-21.333333-8.533333-21.333333-21.333333L618.666667 64C618.666667 53.33333300000004 627.2 42.66666699999996 640 42.66666699999996zM512 42.66666699999996c12.8 0 21.333333 8.533333 21.333333 21.333333L533.333333 576c0 12.8-8.533333 21.333333-21.333333 21.333333s-21.333333-8.533333-21.333333-21.333333l0-512C490.666667 51.200000000000045 499.2 42.66666699999996 512 42.66666699999996z"  horiz-adv-x="1024" />

    
    <glyph glyph-name="youxiang" unicode="&#58929;" d="M873.8 670.8 150.1 670.8c-28.8 0-52.2-23.4-52.2-52.2l0-469.1c0-28.8 23.4-52.2 52.2-52.2l723.7 0c28.8 0 52.3 23.4 52.3 52.2L926.1 618.5C926.1 647.3 902.6 670.8 873.8 670.8zM885.2 629.9l0-491.8L138.8 138.1 138.8 629.9 885.2 629.9zM168.9 568.7 168.9 568.7l314.4-278.2c7.9-6.8 18-10.6 28.7-10.6 10.6 0 20.8 3.8 28.7 10.6L855 568.8c8.9 7.8 9.8 21.4 2 30.2-7.8 8.9-21.4 9.8-30.3 2L512.6 322.8c-0.2-0.1-0.8-0.1-1 0L197.2 600.9c-8.9 7.8-22.4 6.9-30.2-2-3.8-4.3-5.7-9.8-5.3-15.5C162 577.7 164.6 572.4 168.9 568.7z"  horiz-adv-x="1024" />

    
    <glyph glyph-name="shuoming" unicode="&#58995;" d="M512-128a512 512 0 1 0 512 512 512.653418 512.653418 0 0 0-512-512z m0 963.325433a451.138742 451.138742 0 1 1 451.325433-451.325433A451.698815 451.698815 0 0 1 512 835.325433zM519.280948 155.07019100000002a27.583592 27.583592 0 1 0 27.583592 27.583592 27.770283 27.770283 0 0 0-27.583592-27.583592z m-7.280948 113.928168a19.22917 19.22917 0 0 0-19.22917 19.229171v72.342753a19.22917 19.22917 0 0 0 19.22917 19.22917 97.312671 97.312671 0 1 1-97.312671 97.359344 19.22917 19.22917 0 0 0-19.22917-19.229171 19.55588 19.55588 0 0 0-19.229171 19.229171 135.817685 135.817685 0 1 0 155.046855-134.230812v-54.653783a18.669098 18.669098 0 0 0-19.275843-19.275843z"  horiz-adv-x="1024" />

    
    <glyph glyph-name="shouji" unicode="&#58975;" d="M747.294464-62.409274 288.099005-62.409274c-34.171196 0-61.928321 27.873782-61.928321 62.107399L226.170684 768.664124c0 34.298085 27.757125 62.171867 61.928321 62.171867l459.195459 0c34.117984 0 61.871016-27.873782 61.871016-62.171867L809.165479-0.301875C809.165479-34.535492 781.412448-62.409274 747.294464-62.409274L747.294464-62.409274zM288.099005 800.405996c-17.351145 0-31.498325-14.234161-31.498325-31.741872L256.60068-0.301875c0-17.472918 14.14718-31.678427 31.498325-31.678427l459.195459 0c17.356262 0 31.44102 14.205508 31.44102 31.678427L778.735484 768.664124c0 17.506687-14.084758 31.741872-31.44102 31.741872L288.099005 800.405996 288.099005 800.405996zM517.698781 4.155638c-22.345893 0-40.477819 18.217884-40.477819 40.593452s18.131926 40.594476 40.477819 40.594476c22.347939 0 40.473726-18.218907 40.473726-40.594476S540.04672 4.155638 517.698781 4.155638L517.698781 4.155638zM517.698781 54.913571c-5.526866 0-10.041684-4.548587-10.041684-10.16448 0-11.233833 20.086437-11.233833 20.086437 0C527.742511 50.364984 523.22667 54.913571 517.698781 54.913571L517.698781 54.913571zM735.644146 114.704209l-438.629092 0c-8.377791 0-15.21244 6.804973-15.21244 15.216533L281.802614 745.548707c0 8.407467 6.834648 15.21244 15.21244 15.21244l438.629092 0c8.382908 0 15.216533-6.804973 15.216533-15.21244l0-615.627965C750.860679 121.509182 744.027054 114.704209 735.644146 114.704209L735.644146 114.704209zM312.23261 145.133181l408.199097 0L720.431706 730.331151 312.23261 730.331151 312.23261 145.133181 312.23261 145.133181zM312.23261 145.133181"  horiz-adv-x="1024" />

    
    <glyph glyph-name="xiala" unicode="&#58951;" d="M508.893248 133.068341a65.039498 65.039498 0 0 0-46.420659 19.485839L97.125746 524.995978c-25.143018 25.634319-24.752868 66.816849 0.881451 91.959868 25.648769 25.164693 66.809624 24.745643 91.959867-0.881451l318.933409-325.125238 318.933408 325.125238a65.025048 65.025048 0 0 0 92.841318-91.078417L555.313907 152.55418a65.025048 65.025048 0 0 0-46.420659-19.485839z"  horiz-adv-x="1024" />

    
    <glyph glyph-name="liebiao" unicode="&#58895;" d="M916.696 688.008H336.416a30.104 30.104 0 0 0 0 60.208h580.28a30.096 30.096 0 0 0 30.104-30.104 30.096 30.096 0 0 0-30.104-30.104zM916.696 352.784H336.416c-16.624 0-30.104 13.464-30.104 30.104s13.48 30.104 30.104 30.104h580.28c16.64 0 30.104-13.464 30.104-30.104s-13.464-30.104-30.104-30.104zM916.696 17.544H336.416a30.104 30.104 0 1 0 0 60.216h580.28c16.64 0 30.104-13.464 30.104-30.104s-13.464-30.112-30.104-30.112zM215.768 688.008H113.344a30.104 30.104 0 0 0 0 60.208h102.424a30.104 30.104 0 0 0 0-60.208zM215.768 352.784H113.344c-16.624 0-30.104 13.464-30.104 30.104s13.48 30.104 30.104 30.104h102.424c16.624 0 30.104-13.464 30.104-30.104s-13.48-30.104-30.104-30.104zM215.768 17.544H113.344a30.104 30.104 0 1 0 0 60.216h102.424a30.104 30.104 0 1 0 0-60.216z"  horiz-adv-x="1024" />

    
    <glyph glyph-name="laba" unicode="&#59585;" d="M597.333333 131.41333299999997V218.65813300000002a170.666667 170.666667 0 0 1 0 330.683734V636.586667a256.477867 256.477867 0 0 0 0-505.582934z m0 757.3504v-86.6304a426.8032 426.8032 0 0 0 0-836.266666v-86.4256a511.658667 511.658667 0 0 1 0 1009.0496zM170.666667 554.666667H0v-341.333334h170.666667l341.333333-341.333333V896z"  horiz-adv-x="1024" />

    
    <glyph glyph-name="add" unicode="&#58881;" d="M990.028436 471.452512v-174.710901a23.877156 23.877156 0 0 0-23.877156-23.877156H643.130237v-323.312228A23.877156 23.877156 0 0 0 619.253081-74.616114h-174.710901a23.877156 23.877156 0 0 0-23.877156 23.877157V272.767393H97.061611a23.877156 23.877156 0 0 0-23.877156 23.877157v174.7109A23.877156 23.877156 0 0 0 97.061611 495.232607h323.506351V818.350711a23.877156 23.877156 0 0 0 23.877156 23.877156h174.710901A23.877156 23.877156 0 0 0 643.130237 818.350711v-323.118104h323.118104a23.877156 23.877156 0 0 0 23.780095-23.780095z m0 0"  horiz-adv-x="1063" />

    
    <glyph glyph-name="apple" unicode="&#58882;" d="M639.767358 681.2477v43.887096H597.839506v-43.887096z m-213.753673 0v43.887096h-41.927852v-43.887096zM661.710906 803.112763a240.105524 240.105524 0 0 0 105.897214-205.720767h-511.363049q0 131.857215 103.840006 205.720767l-55.936456 55.936457q-15.96785 15.96785 0 29.976454a19.592454 19.592454 0 0 0 29.976455 0l63.8714-63.8714a236.382957 236.382957 0 0 0 113.93012 27.919247 232.366504 232.366504 0 0 0 111.872912-28.017209L687.670908 889.025674a19.592454 19.592454 0 0 0 29.976455 0 19.592454 19.592454 0 0 0 0-29.976454zM873.407372 553.11305a64.75306 64.75306 0 0 0 63.8714-63.969362v-297.315489a60.540683 60.540683 0 0 0-19.004681-45.944305 65.14491 65.14491 0 0 0-89.929363 0 60.540683 60.540683 0 0 0-19.004681 45.944305V489.437575a64.75306 64.75306 0 0 0 64.067325 63.675475zM150.347857 553.11305a61.520306 61.520306 0 0 0 44.964682-19.00468A61.226419 61.226419 0 0 0 213.827408 489.437575v-297.609376a60.540683 60.540683 0 0 0-19.00468-45.944305 63.087702 63.087702 0 0 0-44.474871-17.927095 63.087702 63.087702 0 0 0-44.964682 18.025057A60.540683 60.540683 0 0 0 86.476457 191.828199V489.437575a61.520306 61.520306 0 0 0 19.00468 44.964682A61.226419 61.226419 0 0 0 150.347857 553.11305z m105.897214-425.156251V553.11305h511.363049v-425.156251a40.948229 40.948229 0 0 0-41.927851-41.927852h-43.98506V-64.049251a60.540683 60.540683 0 0 0-19.00468-45.944304 65.14491 65.14491 0 0 0-89.929364 0A60.540683 60.540683 0 0 0 553.854447-64.049251V86.028947h-83.855703V-64.049251a60.540683 60.540683 0 0 0-19.00468-45.944304 65.14491 65.14491 0 0 0-89.929364 0A60.540683 60.540683 0 0 0 342.157982-64.049251V86.028947h-43.98506a40.948229 40.948229 0 0 0-41.927851 41.927852z m0 0"  horiz-adv-x="1024" />

    
    <glyph glyph-name="explain" unicode="&#58883;" d="M717.050151 302.480241V565.359391a19.276333 19.276333 0 0 1-19.055612 19.42348H598.00776v25.750826h115.290128a29.429516 29.429516 0 0 0 29.429515-29.429515v-278.623941h-25.677252zM597.860612 564.917948a33.108205 33.108205 0 0 0-32.81391-33.4025H455.274608A33.108205 33.108205 0 0 0 422.460698 564.917948v19.864923H326.005461a19.276333 19.276333 0 0 1-19.055612-19.42348v-392.074724a19.276333 19.276333 0 0 1 19.055612-19.42348h264.497772v-25.8244h-279.580399a29.429516 29.429516 0 0 0-29.429516 29.429516V580.957034a29.429516 29.429516 0 0 0 29.429516 29.429516h111.537864v21.777841a33.108205 33.108205 0 0 0 32.81391 33.402501H565.046702a33.108205 33.108205 0 0 0 32.81391-33.402501V564.917948z m-35.021124 15.229774v40.171289c0 7.357379-2.060066 9.564593-9.270297 9.564593h-83.138382c-7.357379 0-12.875413-2.207214-12.875413-9.564593v-40.097715a12.654692 12.654692 0 0 1 12.875413-12.875413h83.138382c7.357379 0 11.183216 5.738756 11.183216 13.096135z m22.072137-210.421037a14.714758 14.714758 0 0 0 0-29.944532h-56.946113v-67.76146a14.714758 14.714758 0 1 0-29.429515 0V339.782153H441.442736a14.714758 14.714758 0 0 0 0 29.944532h56.798965v25.162236H441.442736A14.714758 14.714758 0 0 0 441.442736 425.127748h29.429516l-31.63673 32.078172a15.229774 15.229774 0 0 0 0 21.189252 14.714758 14.714758 0 0 0 20.600661 0L512.58859 425.127748h1.324329L566.518178 478.395172a14.714758 14.714758 0 0 0 20.600661 0 15.229774 15.229774 0 0 0 0-21.189252L555.555683 425.127748h29.429516a14.714758 14.714758 0 0 0 0-29.944532h-57.019687v-25.088662h56.798966z m30.827418-212.039661a21.262825 21.262825 0 0 0 5.665182 3.163673 17.878431 17.878431 0 0 0 6.400919 1.177181h30.312402a49.662308 49.662308 0 0 1 19.570628 3.89941 52.310964 52.310964 0 0 1 16.039086 10.447478 47.970111 47.970111 0 0 1 10.741773 15.376922 46.498635 46.498635 0 0 1 3.899411 19.055612 46.057192 46.057192 0 0 1-3.531542 17.952004 50.250898 50.250898 0 0 1-41.863486 30.680271h-32.151746l14.714758-33.328927-72.764478 48.852996 72.764478 48.92657-14.714758-34.579681h33.4025l2.060066-0.441443a83.211956 83.211956 0 0 0 28.546631-8.16669 81.372611 81.372611 0 0 0 22.807874-17.436988 77.546774 77.546774 0 0 0 15.450496-23.985056 76.29602 76.29602 0 0 0 0-57.534703 79.386119 79.386119 0 0 0-15.597643-23.985055 82.32907 82.32907 0 0 0-23.249318-17.142693 80.931168 80.931168 0 0 0-28.840925-8.093117 17.952005 17.952005 0 0 0-3.531542-0.367869h-33.843943a19.497054 19.497054 0 0 0-16.480529 9.343871 11.183216 11.183216 0 0 0 0 11.551085 16.333381 16.333381 0 0 0 4.120132 4.782297zM512-128a512 512 0 1 0 512 512 512 512 0 0 0-512-512z m0 998.396321a486.396321 486.396321 0 1 1 486.396321-486.396321A486.396321 486.396321 0 0 1 512 870.396321z"  horiz-adv-x="1024" />

    
    <glyph glyph-name="curve" unicode="&#58884;" d="M1012.449668-32.879621H92.596777V846.789763v2.135355a33.098009 33.098009 0 0 1-66.196019 0v-948.000758h986.04891a33.098009 33.098009 0 0 1 0 66.196019zM195.1909 96.115261a33.098009 33.098009 0 0 1 45.327773 11.647393L440.659716 446.992986 646.721517 243.745972a33.098009 33.098009 0 0 1 52.122085 7.085497l220.523981 384.558104a33.098009 33.098009 0 0 1-57.363412 32.903887L662.639621 321.007014l-205.770616 202.858768a33.098009 33.098009 0 0 1-51.733839-6.794313l-221.591659-375.628436a33.098009 33.098009 0 0 1 11.647393-45.327772z m0 0"  horiz-adv-x="1063" />

    
    <glyph glyph-name="enter" unicode="&#58885;" d="M343.403981 507.753555a34.553934 34.553934 0 0 1-48.530806-48.530806l153.260285-154.230901c6.988436-6.988436 13.976872-6.988436 27.953744-6.988436s27.953744 13.976872 34.94218 27.953744l6.988436 6.988436 383.781611 383.781612a34.553934 34.553934 0 0 1-48.530805 48.530805L462.01327 388.756019z m0 0M915.679242 409.624265a33.000948 33.000948 0 0 1-34.94218-34.845118v-383.878673a33.000948 33.000948 0 0 0-34.845119-34.94218H217.806256a33.000948 33.000948 0 0 0-34.94218 34.94218v767.757346a33.000948 33.000948 0 0 0 34.94218 34.94218h313.994313A33.000948 33.000948 0 0 1 566.742749 828.056872a33.000948 33.000948 0 0 1-34.94218 34.94218h-349.421801a65.904834 65.904834 0 0 1-69.787299-69.787298v-837.25346a65.904834 65.904834 0 0 1 70.272607-69.399052h697.970047a65.904834 65.904834 0 0 1 69.787299 69.787298V374.779147a37.36872 37.36872 0 0 1-34.845119 34.845118z m0 0"  horiz-adv-x="1063" />

    
    <glyph glyph-name="caizhong" unicode="&#58886;" d="M705.298192 386.119498a62.030633 62.030633 0 1 1 62.030634 62.030633 62.030633 62.030633 0 0 1-62.030634-62.030633z m0 0M767.328826 248.281496A137.838002 137.838002 0 1 1 629.490824 386.119498a138.049952 138.049952 0 0 1 137.838002-137.838002z m0 255.258176A117.420174 117.420174 0 1 0 649.979302 386.119498a117.561474 117.561474 0 0 0 117.420174 117.420174z m0 0M192.944943 492.235684a105.974886 105.974886 0 1 1 65.916379-189.129847l171.114116-171.114116a105.974886 105.974886 0 1 1 162.494826 1.836898L671.174279 212.815234a197.819787 197.819787 0 1 1 0.918449 347.173727L596.285359 636.078929a105.974886 105.974886 0 1 1-167.36967-1.483648L261.404719 467.013661a105.974886 105.974886 0 0 1-68.530426 25.222023z m-85.627708-105.974886a85.627708 85.627708 0 1 0 85.627708-85.769008 85.769008 85.769008 0 0 0-85.698358 85.627708z m404.753415-407.084863a85.627708 85.627708 0 1 0 85.627708 85.627708 85.769008 85.769008 0 0 0-85.627708-85.627708z m433.013385 407.084863A177.684559 177.684559 0 1 0 767.328826 563.945357a177.825859 177.825859 0 0 0 177.684559-177.684559z m-375.786947 0a197.819787 197.819787 0 0 1 84.779909-162.494826l-76.372568-75.807368a105.974886 105.974886 0 0 1-133.245756-1.483649L273.556506 317.306472A105.974886 105.974886 0 0 1 275.534704 452.389127L443.116324 619.758797a105.974886 105.974886 0 0 1 139.251 1.342348l72.204223-72.204222a197.819787 197.819787 0 0 1-85.345108-162.494826z m-57.226438 399.87857a85.627708 85.627708 0 1 0-85.698358-85.769008 85.769008 85.769008 0 0 0 85.627708 85.627708z m0 0M686.222713 865.337933a511.8587 511.8587 0 0 1-628.784325-715.966331 29.037119 29.037119 0 1 1 17.521181 10.668139 489.603974 489.603974 0 1 0 108.800884-141.299849l-4.592245 4.238996a10.244239 10.244239 0 1 1-14.129985-15.119084l4.733545-4.309645a511.92935 511.92935 0 1 1 516.450945 861.929074z m0 0"  horiz-adv-x="1024" />

    
    <glyph glyph-name="leftico" unicode="&#58887;" d="M300.793045 884.712312a36.406769 36.406769 0 0 1-52.304922 0A36.406769 36.406769 0 0 1 248.488123 832.40739l448.009936-448.327899L248.488123-63.930446a36.406769 36.406769 0 0 1 0-52.622884 40.69927 40.69927 0 0 1 26.390933-11.287688A40.69927 40.69927 0 0 1 300.793045-116.55333l474.718832 474.241888a36.406769 36.406769 0 0 1 0 52.622884z m0 0"  horiz-adv-x="1024" />

    
    <glyph glyph-name="more" unicode="&#58888;" d="M365.692261 822.820436v-292.512697H73.179564V822.820436h292.512697m0 73.179564H73.179564A73.179564 73.179564 0 0 1 0 822.820436v-292.512697a73.179564 73.179564 0 0 1 73.179564-73.179565h292.512697a73.179564 73.179564 0 0 1 73.179565 73.179565V822.820436A73.179564 73.179564 0 0 1 365.692261 896z m0-657.793837v-293.026599H73.179564V238.206163h292.512697m0 73.179564H73.179564A73.179564 73.179564 0 0 1 0 238.206163v-293.026599a73.179564 73.179564 0 0 1 73.179564-73.179564h292.512697a73.179564 73.179564 0 0 1 73.179565 73.179564V238.206163a73.179564 73.179564 0 0 1-73.179565 73.179564z m0 0M585.128174 91.435913a219.435913 219.435913 0 1 1 219.435913 219.435913 219.435913 219.435913 0 0 1-219.435913-219.435913z m0 0M804.564087 238.206163A146.256348 146.256348 0 1 0 657.793837 91.435913 146.256348 146.256348 0 0 0 804.564087 238.206163m0 73.179564a219.435913 219.435913 0 1 1 219.435913-219.949814 219.435913 219.435913 0 0 1-219.435913 219.435913zM950.820436 822.820436v-292.512697H657.793837V822.820436h293.026599m0 73.179564H657.793837a73.179564 73.179564 0 0 1-73.179564-73.179564v-292.512697A73.179564 73.179564 0 0 1 657.793837 457.128174h293.026599a73.179564 73.179564 0 0 1 73.179564 73.179565V822.820436A73.179564 73.179564 0 0 1 950.820436 896z m0 0"  horiz-adv-x="1024" />

    
    <glyph glyph-name="kuaijie" unicode="&#58889;" d="M686.160907 865.32573A511.824115 511.824115 0 0 1 57.12731 149.334799a29.056132 29.056132 0 1 1 17.518104 10.623428 489.592305 489.592305 0 1 0 108.837375-141.62226l-4.643352 4.22123a10.271659 10.271659 0 1 1-14.070766-15.126074l4.713706-4.291583A511.894469 511.894469 0 1 1 686.160907 865.32573z m0 0M594.208451 686.627001A31.096393 31.096393 0 0 1 562.830642 717.793748H273.6764a31.096393 31.096393 0 0 1-31.096393-31.096393V86.930952a31.096393 31.096393 0 0 1 31.096393-31.096393H562.830642a31.096393 31.096393 0 0 1 31.377809 31.096393z m-20.684026-486.00426h-310.260392V614.584679h310.260392zM562.830642 76.518585H273.6764a9.357059 9.357059 0 0 0-10.412367 9.00529v94.41484h310.260392v-94.41484a9.357059 9.357059 0 0 0-10.693783-9.00529zM273.6764 697.109722H562.830642A11.74909 11.74909 0 0 0 573.524425 684.938509v-49.951219h-310.260392V684.938509a11.74909 11.74909 0 0 0 10.412367 11.889797z m93.007764-31.026039a10.342013 10.342013 0 0 0 10.342013 10.342013h82.736104a10.342013 10.342013 0 1 0 0-20.684026H377.026177a10.342013 10.342013 0 0 0-10.342013 10.342013z m51.710065-508.165717a31.026039 31.026039 0 1 1 31.026039-31.026039 31.096393 31.096393 0 0 1-31.026039 31.026039z m0-41.368052a10.342013 10.342013 0 1 0 10.342013 10.342013 10.342013 10.342013 0 0 0-10.342013-10.342013z m427.821642 404.745586H614.892477v-20.684026h231.323394c3.799107 0 6.542906-0.633184 6.542906-4.361938v-5.980075H614.892477v-20.684026h157.522226l-35.176915-62.052079H614.892477v-20.684026h237.8663v-119.601511c0-3.799107-2.743799-4.572999-6.542906-4.572999H614.892477V241.709378h231.323394a25.397733 25.397733 0 0 1 27.226932 25.257025V496.179182a25.327379 25.327379 0 0 1-27.226932 25.045964z m-50.021574-51.710065h7.035384l-33.558778-62.052079h-9.145997z m-2.743799-62.052079l33.558777 62.052079h25.679148v-62.052079z m-168.216008-72.464445a10.342013 10.342013 0 0 0 0 20.684026h20.684026a10.342013 10.342013 0 0 0 0-20.684026z m0 0"  horiz-adv-x="1024" />

    
    <glyph glyph-name="hot" unicode="&#58890;" d="M727.45298 760.374592c43.238601-26.199244 78.203757-198.956663-29.548019-205.55572h-13.789076C464.180129 554.424898 555.582002 896 555.582002 896c-312.224069-93.07626-228.898655-405.694303-228.898656-405.694303s-90.909406 94.159688-68.15743 226.534813c-132.375126-84.802815-101.054226-305.329532-101.054226-305.329531s-81.651026 35.851597-62.838788 147.346122A428.052305 428.052305 0 0 1 41.643455 342.467107a470.305972 470.305972 0 1 1 685.809525 417.907485z m-355.955138-667.785234h-51.512047V195.514958h-77.218823v-102.9256h-51.512047V322.669934h53.087941v-77.218823h75.642929V324.738296h51.512047z m234.906753 26.002257A102.433133 102.433133 0 0 0 529.087278 88.354142a103.418067 103.418067 0 0 0-78.006771 29.548019q-28.957059 29.548019-28.957059 82.438974a139.860624 139.860624 0 0 0 9.84934 56.436717 103.418067 103.418067 0 0 0 20.486627 30.138979 85.590762 85.590762 0 0 0 28.464592 19.69868 120.851398 120.851398 0 0 0 47.375324 8.667419A103.22108 103.22108 0 0 0 606.207608 285.340937q29.548019-30.13898 29.548019-83.817881t-28.957059-83.325414zM829.590633 271.157888h-65.498109v-178.56853h-43.435588V271.157888h-65.990577v51.512046h175.416741z m-300.010888 6.796044a56.436717 56.436717 0 0 1-44.223535-18.812239q-16.842371-18.812239-16.743878-56.732197a82.537467 82.537467 0 0 1 17.236345-56.633703 59.096038 59.096038 0 0 1 87.363643 0q17.039358 19.107719 17.039358 57.323157t-16.743878 56.141237a56.141236 56.141236 0 0 1-44.026548 18.615252z m0 0"  horiz-adv-x="1024" />

    
    <glyph glyph-name="rule" unicode="&#58891;" d="M731.26218 633.933649H414.550142a25.041896 25.041896 0 0 1 0-49.889668h316.712038a25.041896 25.041896 0 0 1 0 49.889668z m0 0M324.185782 633.933649a25.041896 25.041896 0 1 1 22.615355-24.944834A23.877156 23.877156 0 0 1 324.185782 633.933649z m0 0M731.26218 483.876398H414.550142a25.041896 25.041896 0 0 1 0-49.889668h316.712038a25.041896 25.041896 0 0 1 0 49.889668z m0 0M324.185782 483.876398A25.041896 25.041896 0 1 1 346.801137 459.222749a23.877156 23.877156 0 0 1-22.615355 24.944834z m0 0M731.26218 334.01327H414.550142a25.041896 25.041896 0 0 1 0-49.889668h316.712038a25.041896 25.041896 0 0 1 0 49.889668z m0 0M324.185782 334.01327a25.041896 25.041896 0 1 1 22.615355-24.944834 23.877156 23.877156 0 0 1-22.615355 24.944834z m0 0M731.26218 184.053081H414.550142a25.041896 25.041896 0 0 1 0-49.889669h316.712038a25.041896 25.041896 0 0 1 0 49.889669z m0 0M324.185782 184.053081a25.041896 25.041896 0 1 1 22.615355-24.944835 23.877156 23.877156 0 0 1-22.615355 24.944835z m0 0M821.62654 883.770237H233.72436c-62.410616 0-113.076777-55.713365-113.076777-125.015355v-749.509764c0-69.010806 50.666161-125.015355 113.076777-125.015355h587.999242c62.313555 0 113.076777 56.00455 113.076777 125.015355V758.754882C934.703318 828.056872 884.037156 883.770237 821.62654 883.770237z m67.943128-874.525119c0-41.348246-30.380284-74.931564-67.943128-74.931563H233.72436c-37.465782 0-67.943128 33.583318-67.943128 74.931563V758.754882c0 41.348246 30.380284 74.931564 67.943128 74.931563h587.999242c37.465782 0 67.943128-33.583318 67.943128-74.931563v-749.509764z m0 0"  horiz-adv-x="1063" />

    
    <glyph glyph-name="sound" unicode="&#58892;" d="M974.789763 84.467867z m0 0M816.77346 775.837725a36.203981 36.203981 0 0 1-19.412323 6.406066A31.642085 31.642085 0 0 1 766.20436 750.407583a32.418578 32.418578 0 0 1 18.05346-28.439052 390.964171 390.964171 0 0 0 0-675.84 34.165687 34.165687 0 0 1-19.412322-29.118484 31.642085 31.642085 0 0 1 31.642085-31.739147 36.398104 36.398104 0 0 1 18.732891 6.211944 453.763033 453.763033 0 0 1 0.873554 783.966635z m0 0M853.462749 384.194123A265.754692 265.754692 0 0 1 721.070711 614.521327a47.754313 47.754313 0 0 1-17.956398 5.532512 32.030332 32.030332 0 0 1-16.015166-59.59583A202.179336 202.179336 0 0 0 683.896114 206.862559a31.93327 31.93327 0 0 1 16.597535-59.110521 44.357156 44.357156 0 0 1 16.403413 4.367772 265.851754 265.851754 0 0 1 136.565687 232.074313z m0 0M567.907488 859.504834a38.824645 38.824645 0 0 1-40.765877-4.561896c-0.485308 0-56.975166-45.327773-119.28872-91.237914-108.41782-79.881706-139.962844-93.179147-146.36891-95.314503H53.966256a31.642085 31.642085 0 0 1-31.642085-31.642085v-505.496872a31.545024 31.545024 0 0 1 31.642085-31.642085h232.947867c6.211943-2.329479 36.106919-16.015166 132.294977-94.53801 56.00455-45.618957 106.185403-90.170237 106.767772-90.655545a38.824645 38.824645 0 0 1 25.527204-9.706161 38.824645 38.824645 0 0 1 15.821042 3.397156 38.824645 38.824645 0 0 1 22.712418 35.136304V105.530237a31.156777 31.156777 0 0 1 1.455924 9.706161l-1.552986 709.617441a38.824645 38.824645 0 0 1-21.741801 34.748057z m-40.571753-738.832986l-0.58237-116.473933c-17.082844 14.46218-36.009858 30.283223-55.519242 46.007203C342.821611 154.546351 310.597156 163.281896 289.437725 163.281896H112.494408c-22.130047 0-27.274313 6.309005-27.274313 28.536113v388.246446C85.123033 595.109005 87.35545 604.815166 105.214787 604.815166H262.066351c20.965308 0 53.189763 8.541422 194.123222 111.523791 25.041896 18.344645 49.501422 36.786351 70.660854 52.898579 0 0 0-546.553934 0.582369-640.024266a33.486256 33.486256 0 0 1 0-8.056114z m0 0"  horiz-adv-x="1063" />

    
    <glyph glyph-name="touzhu" unicode="&#58893;" d="M431.824176 364.307692l31.648351 46.417583h53.45055zM692.747253 405.098901H399.472527c-4.21978 0-7.032967 2.813187-7.032967 7.032967V533.098901c0 3.516484 2.813187 7.032967 7.032967 7.032967h293.274726c3.516484 0 7.032967-3.516484 7.032967-7.032967v-120.967033c0-3.516484-3.516484-7.032967-7.032967-7.032967z"  horiz-adv-x="1024" />

    
    <glyph glyph-name="zengzhang" unicode="&#58894;" d="M686.160907 865.32573A511.824115 511.824115 0 0 1 57.12731 149.334799a29.056132 29.056132 0 1 1 17.518104 10.623428 489.592305 489.592305 0 1 0 108.837375-141.62226l-4.643352 4.22123a10.271659 10.271659 0 1 1-14.070766-15.126074l4.713706-4.291583A511.894469 511.894469 0 1 1 686.160907 865.32573z m0 0M238.710546 111.273377v606.450017h-30.392854v-636.772518h636.772518v30.392855z m0 0M305.8281 141.595878h47.55919a21.739334 21.739334 0 0 1 21.739333 21.739333V286.665476a21.739334 21.739334 0 0 1-21.739333 21.739333h-47.55919a21.739334 21.739334 0 0 1-21.739333-21.739333v-123.330265a21.739334 21.739334 0 0 1 21.739333-21.739333z m8.653521 136.416077H344.733768v-106.16393h-30.252147z m132.828032 106.16393a21.739334 21.739334 0 0 1-21.739334-21.739334v-199.171694a21.739334 21.739334 0 0 1 21.739334-21.739333h47.559189a21.739334 21.739334 0 0 1 21.739334 21.739333V362.436551a21.739334 21.739334 0 0 1-21.739334 21.739334z m39.046376-212.187153h-30.322501V353.853384h30.322501zM588.86156 459.806252a21.739334 21.739334 0 0 1-21.739334-21.739333v-274.942769a21.739334 21.739334 0 0 1 21.739334-21.739334h47.559189a21.739334 21.739334 0 0 1 21.739333 21.739334V438.27798A21.739334 21.739334 0 0 1 636.420749 459.806252z m39.046375-288.450704h-30.3225V429.624459h30.3225z m80.836551 342.20103v-350.854551a21.739334 21.739334 0 0 1 21.739334-21.739334h47.559189a21.739334 21.739334 0 0 1 21.739334 21.739334V514.049055a21.809687 21.809687 0 0 1-21.739334 21.739334h-47.559189a21.739334 21.739334 0 0 1-21.739334-21.739334zM738.715218 505.536242h30.322501v-333.54751H738.715218zM299.285194 368.979457a14.985366 14.985366 0 0 1 8.583167 2.673446l194.176572 133.672277H598.007558a25.468087 25.468087 0 0 1 18.432703 8.090691l122.345311 133.672277v-50.51405a15.196427 15.196427 0 1 1 30.392855 0V702.597321H663.225558a15.196427 15.196427 0 1 1 0-30.392855h57.760495L595.896943 535.788389H500.215733a25.116317 25.116317 0 0 1-15.829611-5.628307L290.702027 396.487805a15.126074 15.126074 0 0 1 8.583167-27.649055z m0 0"  horiz-adv-x="1024" />

    
    <glyph glyph-name="yonghu" unicode="&#58921;" d="M512 293.649394c-168.657111 0-301.168685 132.498339-301.168685 301.168686S343.342889 896 512 896s301.18192-132.52481 301.18192-301.18192-132.52481-301.168685-301.18192-301.168686z m0 60.233737c132.52481 0 240.882007 108.423374 240.882007 240.882007s-108.423374 240.882007-240.882007 240.882007S270.998876 727.342889 270.998876 594.81808s108.423374-240.882007 240.882007-240.882007z m0 0M30.116869-128C30.116869 137.036384 246.963616 353.883131 512 353.883131s481.883131-216.846747 481.883131-481.883131h-60.233737c0 234.912898-186.736497 421.649394-421.649394 421.649394S90.350606 106.912898 90.350606-128z m0 0"  horiz-adv-x="1024" />

    
    <glyph glyph-name="chenggong" unicode="&#58922;" d="M510.646-63.35c-247.257 0-447.692 200.447-447.692 447.701 0 247.247 200.436 447.692 447.692 447.692s447.693-200.445 447.693-447.692c0-247.254-200.437-447.7-447.693-447.7z m273.546 605.113l-14.388 14.388c-7.949 7.949-20.826 7.949-28.775 0L442.6 263.914 333.045 378.569c-3.598 3.597-12.958 0.06-20.908-7.888l-14.388-14.39c-7.95-7.95-11.465-17.31-7.87-20.896l146.185-152.97c3.576-3.598 12.937-0.05 20.887 7.889l14.368 14.388c2.543 2.524 4.411 5.137 5.96 7.711l306.914 300.563c7.95 7.94 7.95 20.838-0.001 28.787z"  horiz-adv-x="1024" />

    
    <glyph glyph-name="mima" unicode="&#58923;" d="M916.21-128H107.79c-29.777 0-53.895 24.145-53.895 53.895V410.947c0 29.777 24.118 53.895 53.894 53.895h80.843v107.79C188.632 751.239 333.42 896 512 896c178.58 0 323.368-144.761 323.368-323.368v-107.79h80.843c29.776 0 53.894-24.118 53.894-53.895v-485.052c0-29.75-24.118-53.895-53.894-53.895zM781.475 572.632c0 148.83-120.644 269.473-269.474 269.473-148.83 0-269.474-120.643-269.474-269.473v-107.79h538.948v107.79zM916.21 410.947H107.789v-485.052h808.422V410.947zM512 303.157c14.875 0 26.947-12.072 26.947-26.946v-215.58c0-14.874-12.072-26.947-26.947-26.947s-26.947 12.073-26.947 26.948V276.21c0 14.874 12.072 26.947 26.947 26.947z"  horiz-adv-x="1024" />

    
    <glyph glyph-name="baojing" unicode="&#58924;" d="M64.383 384C64.383 631.212 264.788 831.617 512 831.617c247.212 0 447.617-200.405 447.617-447.617 0-247.212-200.405-447.617-447.617-447.617-247.212 0-447.617 200.405-447.617 447.617z m409.85-259.245c2.176-26.11 16.318-39.167 42.43-39.167 26.11 0 40.255 13.056 42.43 39.167-2.175 26.112-16.32 40.254-42.43 42.43-26.112-2.176-40.254-16.318-42.43-42.43z m6.527 159.93c0-26.112 11.968-39.167 35.903-39.167 23.934 0 35.902 13.055 35.902 39.167v362.29c0 26.11-11.968 39.167-35.902 39.167-23.935 0-35.903-13.056-35.903-39.167v-362.29z"  horiz-adv-x="1024" />

    
    <glyph glyph-name="cuowu" unicode="&#58926;" d="M887.982 542.379c-20.511 48.423-49.759 91.872-87.139 129.251s-80.828 66.628-129.251 87.139c-50.123 21.238-103.402 31.918-158.257 31.918s-108.134-10.801-158.257-31.918c-48.423-20.511-91.872-49.759-129.251-87.139-37.379-37.379-66.628-80.828-87.139-129.251-21.238-50.123-31.918-103.402-31.918-158.257s10.801-108.134 31.918-158.257c20.511-48.423 49.759-91.872 87.139-129.251 37.379-37.379 80.828-66.628 129.251-87.139 50.123-21.238 103.402-31.918 158.257-31.918s108.134 10.801 158.257 31.918c48.423 20.511 91.872 49.759 129.251 87.139 37.379 37.379 66.628 80.828 87.139 129.251C909.22 275.988 919.9 329.267 919.9 384.122s-10.681 108.134-31.918 158.257zM683.364 250.501c11.286-11.286 11.286-29.855 0-41.142s-29.855-11.286-41.142 0L509.694 341.765 377.288 209.237c-11.286-11.286-29.855-11.286-41.142 0s-11.286 29.855 0 41.142l132.406 132.406-132.528 132.528c-11.286 11.286-11.286 29.855 0 41.142 11.286 11.286 29.855 11.286 41.142 0l132.406-132.406 132.406 132.406c11.286 11.286 29.855 11.286 41.142 0s11.286-29.855 0-41.142L550.956 382.907l132.406-132.406z"  horiz-adv-x="1024" />

    
    <glyph glyph-name="fenqijinggao" unicode="&#58925;" d="M512 896C230.4 896 0 665.6 0 384s230.4-512 512-512 512 230.4 512 512S793.6 896 512 896z m0-819.2c-25.6 0-51.25 19.2-51.25 51.25 0 25.6 19.2 51.25 51.25 51.25s51.25-19.2 51.25-51.25c0-25.6-25.6-51.25-51.25-51.25z m32 211.25c0-19.2-12.8-32-32-32S480 268.8 480 288V640c0 19.2 12.8 32 32 32s32-12.8 32-32z m0 0"  horiz-adv-x="1024" />

    
    <glyph glyph-name="CombinedShapex" unicode="&#58896;" d="M939.401846 145.211077c-24.024615-53.208615-35.524923-76.996923-66.481231-124.061539-43.165538-65.772308-104.014769-147.534769-179.436307-148.283076-67.032615-0.590769-84.243692 43.638154-175.18277 43.126153-90.939077-0.472615-109.883077-43.874462-176.955076-43.244307-75.382154 0.669538-133.12 74.594462-176.285539 140.288C44.307692 196.804923 31.704615 412.475077 106.180923 527.123692c52.932923 81.486769 136.388923 129.181538 214.921846 129.181539 79.950769 0 130.166154-43.835077 196.253539-43.835077 64.118154 0 103.187692 43.874462 195.584 43.874461 69.868308 0 143.832615-38.045538 196.608-103.739077-172.819692-94.680615-144.738462-341.385846 29.853538-407.394461zM642.835692 729.796923c-35.958154-46.119385-97.910154-81.92-157.774769-80.029538-10.909538 59.510154 17.132308 120.713846 51.121231 162.028307C573.676308 857.206154 637.794462 892.061538 692.657231 895.921231c9.255385-62.227692-16.226462-123.037538-49.821539-166.203077z"  horiz-adv-x="1024" />

    
    <glyph glyph-name="handle" unicode="&#58928;" d="M812.787483 865.563368a511.994792 511.994792 0 0 1-628.927861-716.165032 29.045714 29.045714 0 0 1 1.250354-37.185516 29.033211 29.033211 0 0 1 36.797907-5.501556 29.045714 29.045714 0 0 1 12.015898 35.209957 29.058218 29.058218 0 0 1-32.509194 18.130128C86.031957 385.402578 161.428279 661.480653 375.263752 796.931458S870.878912 882.530666 1025.360099 681.973948s130.574426-485.74987-55.015558-657.873546-471.78342-174.449334-660.186701-5.376521l-4.601302 4.238699a10.340424 10.340424 0 0 1-10.07785 2.338161 10.340424 10.340424 0 0 1-7.064497-7.502122 10.340424 10.340424 0 0 1 3.013352-9.9028l4.726336-4.31372a512.069813 512.069813 0 1 1 516.633604 862.118807z m0 0M544.411587 39.579779l-183.80198 213.885487s-9.290127 79.797567 73.533296 46.188062c47.788515-20.005658 64.843338-61.905007 64.843337-61.905007l1.712985 325.804638s49.401471 68.606902 92.388627 0l0.787723-206.308344s53.427609 67.706647 116.282885-4.73884c0 0 47.138331 73.770862 113.369561-3.576012 0 0 46.963281 85.32413 94.101612-7.402093v-258.91072s-2.725771-20.193211-40.949081-43.049674z m0 0M546.024543 728.93723c-102.528995 0-185.740027-77.521923-185.740028-172.998925 0-64.093126 37.848203-119.408769 93.451429-149.279716V460.111206c-28.758133 23.756718-47.238359 57.941386-47.238359 96.50229 0 71.370184 62.155077 129.274059 138.789249 129.274059s138.78925-57.903875 138.78925-129.274059c0-37.785686-17.742518-71.495219-45.475361-95.126902v-54.70297c55.415672 30.008486 93.17635 85.186591 93.176351 149.154681C731.76457 651.502831 648.578545 728.93723 546.024543 728.93723z m0 0"  horiz-adv-x="1673" />

    
    <glyph glyph-name="nosound" unicode="&#58930;" d="M725.073377 384a171.028344 171.028344 0 0 0-4.068874-35.873907l65.508874-72.222517a256.678146 256.678146 0 0 1-124.914437 340.496954 241.555497 241.555497 0 0 1-64.491655 19.937483v-86.938278a170.350199 170.350199 0 0 0 127.966092-165.399735z m-127.966092-418.280265v-86.531391a517.560795 517.560795 0 0 1 176.317881 65.034173l-57.981457 64.966357a421.128477 421.128477 0 0 0-118.26861-43.536953z m-426.553643 588.766093H0.067815v-340.971656h170.485827L512-128V233.99417200000005L197.204768 581.1369540000001zM512 896L361.51947 745.451656l150.48053-166.349139zM597.03947 888.336954v-86.531391a426.07894 426.07894 0 0 0 332.766093-502.777219 439.709669 439.709669 0 0 0-48.148344-128.033907l59.880264-66.051391a511.932185 511.932185 0 0 1-151.497748 708.119735 495.656689 495.656689 0 0 1-193.000265 75.274173z m-488.2649-107.486093l67.814569 62.457218 808.078411-899.085562-67.81457-61.982517z"  horiz-adv-x="1255" />

    
    <glyph glyph-name="pc-live" unicode="&#59017;" d="M970.9568 164.81280000000004v-222.3104A70.7584 70.7584 0 0 0 900.4544-128H123.5456A70.7584 70.7584 0 0 0 53.0432-57.497600000000034V648.1408a70.7584 70.7584 0 0 0 70.5024 70.5024h184.832L234.7008 841.8816a35.84 35.84 0 0 0 12.6976 48.2816 35.072 35.072 0 0 0 47.7184-12.0832L390.9632 718.6432h242.0736L728.2176 878.08a35.328 35.328 0 0 0 48.1792 13.312 35.328 35.328 0 0 0 13.4144-48.1792c-0.6144-0.6144-0.6144-1.28-1.28-1.8944l-73.5744-123.2896h184.832a70.7584 70.7584 0 0 0 70.5024-70.5024v-186.112m-316.7744 186.7264H123.5456v-705.6384h776.1408V648.1408z m317.44-265.728v-139.7248M349.0304 125.44000000000005V474.112a45.5168 45.5168 0 0 0 45.7216 45.7216 46.336 46.336 0 0 0 22.2208-5.7344l316.3136-174.08a45.7728 45.7728 0 0 0 17.7664-62.2592 43.6224 43.6224 0 0 0-17.7664-17.7664l-316.3136-174.08a46.08 46.08 0 0 0-62.2592 17.7664 42.24 42.24 0 0 0-5.7344 21.6064z m58.4192 315.0336l1.28-288.4608 279.4496 149.9136c0.6656 1.3312-280.7296 138.5472-280.7296 138.5472z"  horiz-adv-x="1024" />

    
    <glyph glyph-name="shuaxin" unicode="&#58947;" d="M992 832H759.68C917.248 744.704 1024 576.896 1024 384c0-282.784-229.216-512-512-512S0 101.216 0 384C0 645.056 195.52 860.032 448 891.584v-64.672C230.976 795.776 64 609.632 64 384c0-247.424 200.576-448 448-448s448 200.576 448 448c0 178.656-104.704 332.608-256 404.512V544c0-17.664-14.336-32-32-32s-32 14.336-32 32V879.008c1.216-0.32 2.528-0.416 3.744-0.768 2.112 4.16 5.088 7.584 8.704 10.432 1.6 1.312 3.264 2.464 5.088 3.424 1.216 0.64 2.336 1.216 3.648 1.696C664.544 895.104 668.128 896 672 896h320c17.664 0 32-14.336 32-32s-14.336-32-32-32z"  horiz-adv-x="1024" />

    
    <glyph glyph-name="yanzhengma" unicode="&#58949;" d="M512-77.475l-7.96 2.897c-152.172 55.388-275.543 165.76-347.387 310.784-71.536 144.4-85.033 308.713-38.007 462.67l5.021 16.44 17.19 0.033c130.215 0.254 253.543 43.01 356.649 123.646l14.357 11.228 14.341-11.25c102.786-80.62 226.213-123.369 356.94-123.624l17.19-0.033 5.02-16.44c47.027-153.957 33.529-318.27-38.006-462.67C795.503 91.181 672.132-19.19 519.96-74.578l-7.96-2.897zM158.461 669.082C79.306 380.75 231.91 78.639 512-27.88 792.092 78.64 944.694 380.75 865.539 669.08c-65.103 1.912-128.932 13.78-189.994 35.348-58.607 20.701-113.6 49.931-163.722 86.997-50.193-37.029-105.14-66.235-163.58-86.923C287.2 682.893 223.439 671 158.46 669.082zM469.433 215.28a23.2 23.2 0 0 0-16.456 6.816l-131.63 131.63c-9.088 9.088-9.088 23.824 0 32.912 9.088 9.087 23.823 9.087 32.911 0l115.176-115.176 246.852 246.829c9.088 9.089 23.823 9.088 32.912-0.001 9.087-9.089 9.087-23.823-0.001-32.911L485.888 222.096a23.203 23.203 0 0 0-16.455-6.815z"  horiz-adv-x="1024" />

    
    <glyph glyph-name="pc-proxy-_" unicode="&#59214;" d="M512 896a512 512 0 1 1 512-512A512 512 0 0 1 512 896z m318.344-714.692a115.802 115.802 0 0 0-115.652-115.652H309.308a115.802 115.802 0 0 0-115.652 115.652V586.692a115.802 115.802 0 0 0 115.652 115.652h405.384a115.802 115.802 0 0 0 115.652-115.652z m-115.652 463.21H309.308a57.976 57.976 0 0 1-57.826-57.826v-405.384a57.976 57.976 0 0 1 57.826-57.826h405.384a57.976 57.976 0 0 1 57.826 57.826V586.692a57.976 57.976 0 0 1-57.826 57.826zM666.352 358.4a28.913 28.913 0 1 0 0-57.826h-125.44v-103.303a28.913 28.913 0 1 0-57.825 0V300.273h-125.29a28.913 28.913 0 1 0 0 57.826h125.29v56.019h-125.29a28.913 28.913 0 1 0 0 57.826H460.8l-93.816 75.294a28.913 28.913 0 1 0 36.442 45.176L512 504.471l108.574 88.094a28.913 28.913 0 1 0 36.442-45.177L563.2 472.094h103.002a28.913 28.913 0 1 0 0-57.826h-125.29v-56.17z"  horiz-adv-x="1024" />

    
    <glyph glyph-name="pc-proxy-_1" unicode="&#59215;" d="M776.429 834H62v-714.429A185.571 185.571 0 0 1 247.571-66H962V648.429A185.571 185.571 0 0 1 776.429 834zM254.858 607.714h403.286a55.714 55.714 0 1 0 0-111.428H254.858a55.714 55.714 0 1 0 0 111.428z m514.284-416.572H254.858a55.714 55.714 0 0 0 0 111.43h514.284a55.714 55.714 0 0 0 0-111.429z"  horiz-adv-x="1024" />

    
    <glyph glyph-name="pc-proxy-_2" unicode="&#59216;" d="M989.43 652.752H147.228a88.007 88.007 0 0 0-85.187 90.624A88.007 88.007 0 0 0 147.228 834H989.43a88.007 88.007 0 0 0 85.187-90.624 88.007 88.007 0 0 0-85.187-90.624z m0-718.752H147.228a90.826 90.826 0 0 0 0 181.248H989.43a90.826 90.826 0 0 0 0-181.248z"  horiz-adv-x="1152" />

    
    <glyph glyph-name="pc-proxy-_3" unicode="&#59217;" d="M87.598-40.402a87.266 87.266 0 0 0 0 123.335L813.067 808.402a87.266 87.266 0 0 0 123.335-123.335L210.933-40.402a87.266 87.266 0 0 0-123.335 0z m725.469 0L87.598 685.067A87.266 87.266 0 0 0 210.933 808.402l725.469-725.469a87.266 87.266 0 0 0-123.335-123.335z"  horiz-adv-x="1024" />

    
    <glyph glyph-name="pc-proxy-_4" unicode="&#59218;" d="M265.788 341.534A440.922 440.922 0 0 1 411.256 319.7a503.416 503.416 0 0 1 111.436 11.896v89.3A539.859 539.859 0 0 0 412.009 409.9c-75.294 0-150.588 13.854-195.764 40.81v-73.487c0.3-8.283 15.811-23.342 49.543-35.69z m-48.49 168.659c0-8.584 15.06-23.341 49.243-35.69a440.922 440.922 0 0 1 145.468-21.835 485.798 485.798 0 0 1 110.984 12.047 33.13 33.13 0 0 0 24.094 27.709l58.88 17.167V589.1c-45.176-26.654-120.47-40.357-194.71-40.357S261.872 562.447 216.545 589.1v-73.487a21.384 21.384 0 0 0 0.753-5.421z m0-269.101c0-8.584 15.06-23.341 49.243-35.69a440.922 440.922 0 0 1 145.468-21.835 421.647 421.647 0 0 1 146.372 22.89 75.294 75.294 0 0 0-35.69 64.602v16.715a550.25 550.25 0 0 0-111.435-10.842c-74.39 0-149.383 13.703-194.71 40.357v-70.927a21.384 21.384 0 0 0 0.753-5.42z m48.49 372.254a440.922 440.922 0 0 1 145.468-21.835 440.922 440.922 0 0 1 145.92 21.835c33.883 12.348 49.243 27.106 49.243 35.69s-15.812 23.19-49.243 36.14a440.922 440.922 0 0 1-145.468 21.836 440.922 440.922 0 0 1-145.92-21.836c-33.882-12.348-49.242-27.105-49.242-35.689s15.51-24.546 49.242-36.141zM512 896a512 512 0 1 1 512-512A512 512 0 0 1 512 896z m338.07-624.941a75.294 75.294 0 0 0-41.26-67.765l-87.342-51.35a76.95 76.95 0 0 0-69.12 0h-1.204l-1.958 1.204v-34.334c0-65.807-119.417-100.141-237.478-100.141S173.93 52.706 173.93 119.115v529.77c0 65.807 119.417 100.14 237.478 100.14s237.327-33.73 237.327-100.14v-126.796l31.624 9.186a24.094 24.094 0 0 0 12.348 0l132.668-38.851a33.13 33.13 0 0 0 24.395-31.925zM807.305 453.27l-120.471 35.388-52.706-15.059-68.668-20.33V271.06a33.43 33.43 0 0 1 18.522-30.118h1.205l86.588-50.899a34.033 34.033 0 0 1 30.118 0l87.19 51.2a33.43 33.43 0 0 1 18.523 30.118z m-25.149-85.685l-105.411-90.353a22.588 22.588 0 0 0-30.118 0.903l-57.073 55.266a22.588 22.588 0 1 0 31.473 32.527l41.562-42.164 90.353 78.004a22.588 22.588 0 1 0 30.118-34.183zM605.967 178.598l-3.614 1.807c-42.918-24.998-112.64-39.605-190.645-39.605-75.294 0-150.588 13.854-195.764 40.81v-62.495c0-8.583 15.058-23.34 49.242-35.69a440.922 440.922 0 0 1 145.468-21.834 440.922 440.922 0 0 1 146.522 21.233c33.883 12.348 49.243 27.105 49.243 35.689z"  horiz-adv-x="1024" />

    
    <glyph glyph-name="pc-proxy-_5" unicode="&#59219;" d="M1431.524 211.584a1278.594 1278.594 0 0 1-37.57 248.205 949.375 949.375 0 0 1-76.74 207.253C1197.74 876.965 1067.941 845.094 912.857 803.607a1111.225 1111.225 0 0 0-157.042-30.625h-16.737a1111.225 1111.225 0 0 0-157.042 30.625C426.774 842.78 297.152 876.965 177.679 665.44a869.786 869.786 0 0 1-76.92-208.143 1278.594 1278.594 0 0 1-38.28-246.78c-2.67-87.78 5.876-150.811 24.572-195.858a129.266 129.266 0 0 1 82.26-76.029 166.835 166.835 0 0 1 109.145 11.93C345.048-22.2 420.9 35.846 496.748 105.82c53.417 51.1 151.88 76.74 250.876 76.74s197.639-25.462 250.52-76.74c75.138-69.975 151.879-128.02 218.292-155.262a178.052 178.052 0 0 1 109.146-11.93 127.485 127.485 0 0 1 81.905 78.522c18.874 42.554 27.42 105.584 24.037 194.433zM1349.62 41.01a67.66 67.66 0 0 0-40.952-42.732 117.87 117.87 0 0 0-69.975 8.547c-59.647 23.858-129.622 76.74-197.816 142.441-64.99 63.921-179.3 96.861-293.61 96.861s-228.619-32.94-295.033-94.368c-69.262-64.81-140.482-119.295-197.993-141.552a105.763 105.763 0 0 0-69.975-8.546 67.66 67.66 0 0 0-40.952 42.732c-13.708 32.406-20.475 85.288-17.804 163.81a1176.748 1176.748 0 0 0 35.61 235.385 814.055 814.055 0 0 0 71.22 192.83c93.835 168.971 202.98 142.441 332.603 106.83a1000.833 1000.833 0 0 1 168.794-31.87h25.64a988.369 988.369 0 0 1 168.793 33.295c129.621 31.516 238.234 60.539 332.78-108.255a786.635 786.635 0 0 0 71.22-192.832 1291.236 1291.236 0 0 0 35.611-235.385c3.917-78.521-2.849-131.402-18.161-167.19zM590.405 544.186a103.627 103.627 0 0 1-61.429 29.021 97.038 97.038 0 0 1-27.242 59.648l-1.78 1.78a96.682 96.682 0 0 1-69.975 29.023 100.778 100.778 0 0 1-69.974-29.021 99.176 99.176 0 0 1-29.023-61.429 101.667 101.667 0 0 1-61.428-27.242l-1.78-1.78a96.682 96.682 0 0 1-29.022-69.975 100.778 100.778 0 0 1 29.021-69.975 95.08 95.08 0 0 1 63.21-29.022 90.984 90.984 0 0 1 29.02-61.428 96.682 96.682 0 0 1 69.976-29.022 100.778 100.778 0 0 1 69.975 29.021 103.627 103.627 0 0 1 29.022 61.429 90.984 90.984 0 0 1 61.429 29.022 96.682 96.682 0 0 1 29.021 69.975 100.778 100.778 0 0 1-29.021 69.975z m-42.733-95.615a35.61 35.61 0 0 0-25.64-10.148h-23.859a32.405 32.405 0 0 1-32.405-32.05v-22.257a35.61 35.61 0 1 0-71.221 0v23.681a32.405 32.405 0 0 1-32.406 32.406h-24.215a35.61 35.61 0 0 0-26.174 59.647l1.78 1.781a40.774 40.774 0 0 0 23.86 8.547h23.859a32.405 32.405 0 0 1 32.405 32.405V566.62a35.61 35.61 0 0 0 61.429 25.638l1.78-1.78a40.774 40.774 0 0 0 8.903-23.859v-23.859a32.405 32.405 0 0 1 32.405-32.405h23.859a35.61 35.61 0 0 0 25.64-61.429z m436.94 146.894a59.648 59.648 0 1 1 119.294 0 59.648 59.648 0 1 1-119.294 0z m0-242.33a59.648 59.648 0 1 1 119.294 0 59.648 59.648 0 1 1-119.294 0zM863.359 474.211a59.648 59.648 0 1 1 119.294 0 59.648 59.648 0 1 1-119.294 0z m242.329 0a59.648 59.648 0 1 1 119.295 0 59.648 59.648 0 1 1-119.295 0z"  horiz-adv-x="1559" />

    
    <glyph glyph-name="pc-proxy-_6" unicode="&#59220;" d="M1302.657786 284.370239v78.254867a46.005922 46.005922 0 0 1-48.962916 44.378925H769.231693v76.920869a207.099648 207.099648 0 1 1-59.1719 0v-76.920869H226.484615a46.005922 46.005922 0 0 1-48.963917-44.379925v-78.549866a207.099648 207.099648 0 1 1 59.1699 0v63.758891h473.369195v-63.017892a207.099648 207.099648 0 1 1 59.1719 0v63.017892h473.369196v-63.017892a207.099648 207.099648 0 1 1 59.169899 0zM591.718995 688.066553a147.927749 147.927749 0 1 0 147.926748-147.927748A147.927749 147.927749 0 0 0 591.718995 688.065553zM355.033397 79.640587a147.927749 147.927749 0 1 0-171.596709 145.856752h47.33692a147.927749 147.927749 0 0 0 124.259789-145.856752z m532.539095 0a147.927749 147.927749 0 1 0-171.595709 145.856752h47.33692a147.927749 147.927749 0 0 0 124.259789-145.856752z m384.612346-147.927748a147.927749 147.927749 0 0 0-23.66696 293.7845h47.33592a147.927749 147.927749 0 0 0-23.66896-293.7845z"  horiz-adv-x="1479" />

    
    <glyph glyph-name="pc-proxy-_7" unicode="&#59221;" d="M351.464 206.735A199.312 199.312 0 1 0 550.64 406.047a199.585 199.585 0 0 0-199.176-199.312z m0 344.018a144.706 144.706 0 1 1 144.57-144.706 144.843 144.843 0 0 1-144.57 144.706z m401.082-53.377a199.312 199.312 0 1 0 199.312 199.312 199.585 199.585 0 0 0-199.312-199.312z m0 344.018a144.706 144.706 0 1 1 144.706-144.706A144.843 144.843 0 0 1 752.546 841.394zM529.07 387.48a27.303 27.303 0 0 0-21.16 44.368 328.865 328.865 0 0 0 475.073 34.538 27.303 27.303 0 1 0-36.722-40.955 274.395 274.395 0 0 1-395.894-28.804 27.303 27.303 0 0 0-21.297-9.147z m264.703-515.344a27.303 27.303 0 0 0-27.303 27.303V227.076a27.303 27.303 0 0 0 54.606 0V-100.56a27.303 27.303 0 0 0-27.303-27.303z m163.818 163.818H629.955a27.303 27.303 0 0 0 0 54.606h327.636a27.303 27.303 0 1 0 0-54.606z m-538.415-132.42l-359.99 1.502a28.532 28.532 0 0 0-27.304 27.985A325.862 325.862 0 0 0 273.241 250.01a331.868 331.868 0 0 0 288.73-57.336A327.636 327.636 0 0 0 689.748-67.66v-1.502a27.303 27.303 0 0 0-54.606 0v1.502a273.03 273.03 0 0 1-106.619 217.059 277.535 277.535 0 0 1-241.495 47.644 270.3 270.3 0 0 1-199.312-237.4l331.595-1.365a27.303 27.303 0 0 0 0-54.606z"  horiz-adv-x="1024" />

    
    <glyph glyph-name="pc-proxy-_8" unicode="&#59222;" d="M581.697 216.463a48.733 48.733 0 0 1-13.59 9.902 164.836 164.836 0 0 1-34.171 11.65v-91.641a65.041 65.041 0 0 1 51.256 26.987 41.937 41.937 0 0 1 3.883 28.54 28.735 28.735 0 0 1-7.378 14.562z m2.913-43.102zM443.46 362.272a34.365 34.365 0 0 1-6.019-16.114 38.83 38.83 0 0 1 1.942-17.863 28.54 28.54 0 0 1 11.067-12.231 86.592 86.592 0 0 1 16.503-8.543c4.854-1.942 10.29-3.689 16.115-5.63v83.097a63.294 63.294 0 0 1-39.608-22.716z m141.538-188.134z m-19.415 499.168c77.661 65.43 129.888 213.569 97.076 219.2-42.52 8.542-135.907-28.93-179.591-35.725-63.294-7.572-132.413 68.73-171.05 26.21-30.482-34.559 23.299-160.37 107.95-215.315-252.4-124.064-607.118-746.714 11.649-791.952 856.41-62.323 427.72 676.624 133.966 797.582z m73.584-491.014a90.087 90.087 0 0 0-34.754-61.158 132.8 132.8 0 0 0-70.477-25.24V69.1a25.24 25.24 0 1 0-50.286 0v29.317l-12.814 2.912a123.676 123.676 0 0 0-61.547 38.83 111.056 111.056 0 0 0-19.415 31.454c-1.165 2.912-2.136 6.018-3.107 9.125a46.791 46.791 0 0 0-1.941 8.543 25.24 25.24 0 0 0 48.927 10.484c0-2.912 1.553-5.825 2.718-8.737a56.11 56.11 0 0 1 3.883-8.349 64.265 64.265 0 0 1 11.067-14.173 74.943 74.943 0 0 1 32.035-17.474v98.824a179.204 179.204 0 0 0-66.012 28.541 77.661 77.661 0 0 0-22.328 26.793 83.874 83.874 0 0 0-7.766 36.113 85.816 85.816 0 0 0 7.572 36.5 88.922 88.922 0 0 0 20.58 28.347 126.2 126.2 0 0 0 67.954 30.094v27.764a25.24 25.24 0 1 0 50.286 0v-27.764l9.901-1.553a124.452 124.452 0 0 0 65.818-31.842 97.077 97.077 0 0 0 19.416-28.929 92.223 92.223 0 0 0 3.494-9.125 55.916 55.916 0 0 0 2.33-8.93 25.24 25.24 0 0 0-48.344-12.815c-0.97 2.718-1.553 5.63-2.718 8.349a44.461 44.461 0 0 1-4.077 7.96 47.956 47.956 0 0 1-11.844 12.426 81.739 81.739 0 0 1-33.782 13.59v-95.329a319.77 319.77 0 0 0 43.102-12.814 100.571 100.571 0 0 0 51.839-41.355c3.494-6.212 1.747-3.3 0 0a89.893 89.893 0 0 0 10.29-53.78z m-54.946-9.513z"  horiz-adv-x="1024" />

    
    <glyph glyph-name="pc-proxy-_9" unicode="&#59223;" d="M325.421 365.779h-11.746a60.235 60.235 0 0 1-60.235-60.235v-168.057h132.216V305.544a60.235 60.235 0 0 1-60.235 60.235z m384.753 0h-11.746a60.235 60.235 0 0 1-60.235-60.235v-168.057h132.216V305.544a60.235 60.235 0 0 1-60.235 60.235zM319.548 498.447a66.108 66.108 0 1 1-65.957 66.259 66.108 66.108 0 0 1 65.957-66.259z m384.753 132.217a66.108 66.108 0 1 1 66.108-65.958 66.108 66.108 0 0 1-65.957 65.807zM512 896a512 512 0 1 1 512-512A512 512 0 0 1 512 896zM319.548 690.748a126.344 126.344 0 1 0-126.193-126.042 126.494 126.494 0 0 0 126.193 126.042zM830.645 107.37a30.118 30.118 0 0 0-30.118-30.117H608.226a30.118 30.118 0 0 0-30.118 30.117v94.72l-48.339-35.237h-1.355a30.118 30.118 0 0 0-5.873-3.012l-2.41-0.904a30.118 30.118 0 0 0-7.98-1.204 30.118 30.118 0 0 0-7.982 1.204l-2.409 0.904a30.118 30.118 0 0 0-5.873 3.012h-1.355l-48.34 35.237v-94.72a30.118 30.118 0 0 0-30.117-30.117H223.473a30.118 30.118 0 0 0-30.118 30.117V305.544a120.47 120.47 0 0 0 120.47 120.47h11.747a120.47 120.47 0 0 0 120.47-120.47v-28.913L512 228.442l66.108 48.34v28.762a120.47 120.47 0 0 0 120.47 120.47h11.747a120.47 120.47 0 0 0 120.47-120.47zM704.3 438.664a126.344 126.344 0 1 0 126.344 126.042 126.494 126.494 0 0 0-126.193-126.494z"  horiz-adv-x="1024" />

    
    <glyph glyph-name="pc-proxy-_10" unicode="&#59224;" d="M335.678 100.6a35.31 35.31 0 0 0-28.661 55.946L659.66 649.745a35.31 35.31 0 0 0 56.864-40.814L364.568 115.275a35.31 35.31 0 0 0-28.89-14.675z m282.024 141.012a35.31 35.31 0 1 0-35.31-35.31 35.31 35.31 0 0 0 35.31 36.227z m0-141.012a105.702 105.702 0 1 0 105.701 105.702A105.931 105.931 0 0 0 617.702 100.6zM406.298 594.028a35.31 35.31 0 1 1 35.081-35.54 35.31 35.31 0 0 1-35.08 35.54z m0-141.012A105.702 105.702 0 1 0 512 558.717a105.702 105.702 0 0 0-105.702-105.701z m496.638 7.795a396.21 396.21 0 0 1-60.532 146.057l48.38 31.183a451.239 451.239 0 0 0 68.786-167.38z m-12.152-331.55l-48.15 32.559a396.21 396.21 0 0 1 60.531 146.056l57.093-11.464a451.239 451.239 0 0 0-69.474-167.15z m-290.279-193.29L589.5-6.936a396.21 396.21 0 0 1 146.057 60.532l32.33-48.38a451.239 451.239 0 0 0-167.61-68.786z m-341.639 68.787l32.559 48.15a395.98 395.98 0 0 1 146.056-60.532l-11.464-57.093a451.239 451.239 0 0 0-168.068 69.933zM133.904 128.803a451.239 451.239 0 0 0-68.786 167.38l56.175 11.006a396.21 396.21 0 0 1 60.532-146.057z m0 508.79l48.15-32.56a396.21 396.21 0 0 1-60.76-145.139L64.2 471.36a451.239 451.239 0 0 0 68.786 166.692zM425.1 830.882l11.006-55.718a396.21 396.21 0 0 1-146.057-60.532l-31.183 47.921A451.01 451.01 0 0 0 425.1 831.341z m342.556-68.787l-32.559-48.15a396.21 396.21 0 0 1-146.056 61.22l11.464 57.092a451.239 451.239 0 0 0 167.151-68.786zM512.688 895.54a511.77 511.77 0 1 1 511.77-511.77A511.77 511.77 0 0 1 512.689 895.54z"  horiz-adv-x="1024" />

    
    <glyph glyph-name="pc-proxy-" unicode="&#59225;" d="M511.78291 895.99982A511.78291 511.78291 0 1 1 1023.99982 384.21691 511.78291 511.78291 0 0 1 511.78291 895.99982z m106.603981-793.459861q-39.434993-15.599997-62.835989-23.832995a166.404971 166.404971 0 0 0-54.60099-8.233999 109.203981 109.203981 0 0 0-74.535987 23.399996 75.401987 75.401987 0 0 0-26.433995 59.36999 216.673962 216.673962 0 0 0 0 28.599995c0 9.533998 3.465999 20.799996 6.499999 32.934994l34.667993 117.869979c3.032999 11.266998 5.632999 21.667996 7.366999 31.634994a140.404975 140.404975 0 0 1 3.033 27.299996 43.334992 43.334992 0 0 1-9.099999 31.201994 52.001991 52.001991 0 0 1-35.100994 8.666999 92.302984 92.302984 0 0 1-26.434995-3.9l-22.966996-8.233998 8.666999 35.967993q32.499994 12.999998 61.968989 22.533997a182.872968 182.872968 0 0 0 55.89999 9.532998 107.036981 107.036981 0 0 0 73.236987-22.966996 76.269987 76.269987 0 0 0 25.567995-59.80199v-26.867995a178.971969 178.971969 0 0 0-6.499998-35.099994l-32.935995-116.139979c-2.6-9.531998-5.199999-19.932996-7.366998-32.066995a168.57197 168.57197 0 0 1-3.033-27.299995 39.000993 39.000993 0 0 1 10.399998-31.634994 58.06899 58.06899 0 0 1 35.967994-8.232999 104.002982 104.002982 0 0 1 27.299995 4.332999 154.271973 154.271973 0 0 1 22.099996 7.366999z m-5.633999 471.482918a78.435986 78.435986 0 0 0-55.03499-21.233997 79.302986 79.302986 0 0 0-55.46799 21.233997 68.035988 68.035988 0 0 0-25.567996 51.567991 68.901988 68.901988 0 0 0 25.133996 53.73499 78.435986 78.435986 0 0 0 55.46899 21.667996 77.569986 77.569986 0 0 0 55.03499-21.667996 69.768988 69.768988 0 0 0 0-103.569982z"  horiz-adv-x="1024" />

    
    <glyph glyph-name="pc-proxy-_11" unicode="&#59226;" d="M977.505045 661.387229H759.669258a374.321634 374.321634 0 0 0 75.487926-92.980909h142.348861a46.489955 46.489955 0 1 1 0 92.980909z m0-117.423885H847.619172a368.80964 368.80964 0 0 0 30.193971-92.980909h99.451903a46.489955 46.489955 0 1 1 0 92.980909z m0 234.609771H632.899382a46.489955 46.489955 0 0 1-43.615957-30.434971 370.727638 370.727638 0 0 0 140.190863-62.546939h248.031757a46.489955 46.489955 0 1 1 0 92.98191zM632.899382 803.017091h344.605663a46.489955 46.489955 0 1 1 0 92.980909H632.899382a46.489955 46.489955 0 1 1 0-92.980909z m344.605663-376.239633h-95.857906a377.677631 377.677631 0 0 0 2.635997-42.655958 369.768639 369.768639 0 0 0-3.833996-50.324951h95.857907a46.489955 46.489955 0 1 1 0 92.981909z m0-117.424885h-100.649901a367.372641 367.372641 0 0 0-32.830968-92.980909h133.481869a46.489955 46.489955 0 1 1 0 92.980909z m0-117.424885H830.364189a374.082635 374.082635 0 0 0-79.321922-92.98091h226.463778a46.489955 46.489955 0 1 1 0 92.98091zM46.492955 341.464542h95.857906a340.292668 340.292668 0 0 0 0 92.981909H46.490955a46.489955 46.489955 0 1 1 0-92.981909z m0-116.465887h129.885873a369.768639 369.768639 0 0 0-30.193971 92.980909H46.492955a46.489955 46.489955 0 1 1 0-92.980909z m0 233.651772h100.649901a367.611641 367.611641 0 0 0 32.830968 92.980909H46.491955a46.489955 46.489955 0 1 1 0-92.980909z m0 117.424885h147.140856a374.801634 374.801634 0 0 0 79.321922 92.98091H46.490955a46.489955 46.489955 0 1 1 0-92.98091z m0-469.459541H263.610743a374.082635 374.082635 0 0 0-75.487927 92.980909H46.491955a46.489955 46.489955 0 1 1 0-92.980909z m0-117.185886h344.605663a46.489955 46.489955 0 0 1 43.615957 30.434971 370.487638 370.487638 0 0 0-140.190863 62.546939H46.490955a46.489955 46.489955 0 1 1 0-92.98191z m344.605663-24.443976H46.492955a46.489955 46.489955 0 1 1 0-92.980909h344.605663a46.489955 46.489955 0 1 1 0 92.980909z m120.779882 744.809273a325.913682 325.913682 0 1 1 326.873681-325.673682 326.153681 326.153681 0 0 1-326.872681 325.673682z m0-558.606455a232.693773 232.693773 0 1 0 232.693773 232.692773A232.932773 232.932773 0 0 0 511.8805 151.188727z m13.659987 264.325742v80.279922c47.929953 0 46.489955-46.249955 74.049927-46.249955a25.401975 25.401975 0 0 1 26.839974 26.119974c0 41.45996-67.819934 62.306939-100.649901 63.025939v21.807979a12.699988 12.699988 0 1 1-25.401976 0v-22.526978c-52.960948-1.676998-100.649902-31.392969-100.649901-88.906914 0-47.927953 38.102963-74.528927 100.649901-85.791916v-88.427913c-70.454931 2.875997-33.549967 61.34794-80.999921 61.34794a23.963977 23.963977 0 0 1-26.119974-26.599974c0-33.549967 35.466965-76.205926 107.119895-77.883924v-26.120975a12.699988 12.699988 0 1 1 25.401976 0v27.079974c63.025938 3.833996 105.442897 32.589968 105.442897 89.385912-0.24 65.182936-49.845951 81.47892-105.682897 93.459909z m-25.400975 4.552996c-31.632969 6.469994-47.929953 18.692982-47.929954 39.779961s18.692982 35.227966 47.929954 35.946965z m25.400975-143.78486v83.873918c23.963977-5.031995 52.002949-13.419987 52.002949-42.176959s-26.359974-40.49996-52.002949-42.175958z"  horiz-adv-x="1024" />

    


  </font>
</defs>
</svg>
