<?xml version="1.0" standalone="no"?><!DOCTYPE svg PUBLIC "-//W3C//DTD SVG 1.1//EN" "http://www.w3.org/Graphics/SVG/1.1/DTD/svg11.dtd"><svg t="1554797939084" class="icon" style="" viewBox="0 0 1024 1024" version="1.1" xmlns="http://www.w3.org/2000/svg" p-id="2299" xmlns:xlink="http://www.w3.org/1999/xlink" width="200" height="200"><defs><style type="text/css"></style></defs><path d="M513.783623 130.208551c-152.644539 0-281.283338 105.779162-322.692447 250.269997-37.023218 22.295795-58.671261 65.240887-58.671261 115.508757 0 72.89931 44.443212 132.010593 117.342522 132.010593 16.222473 0 29.335119-13.112646 29.335119-29.335119l0-205.349925c0-13.494339-9.578146-24.085558-22.002107-27.502377 42.832528-105.136525 141.707442-178.76443 256.68715-178.76443 114.979708 0 213.854623 73.627904 256.68715 178.76443-12.422937 3.416819-22.002107 14.008039-22.002107 27.502377l0 205.349925c0 16.222473 13.112646 29.335119 29.335119 29.335119 6.825452 0 12.93766-0.833995 19.25146-1.833765-9.488095 54.739718-32.476669 95.531773-55.920614 123.759675-14.622022 17.605983-29.616528 30.364565-41.253566 38.502919-5.818519 4.069689-10.344602 6.597255-13.751189 8.250918-1.703805 0.826831-3.096525 1.581008-3.666506 1.833765l-55.003731 0c-10.564613-30.631648-44.185338-53.17099-84.339874-53.17099-48.604998 0-88.007403 32.834826-88.007403 73.339332s39.402405 73.339332 88.007403 73.339332c40.154535 0 73.77526-22.540366 84.339874-53.17099l57.754379 0c9.915837 0 12.437264-2.638083 18.334577-5.500271 5.897314-2.862187 12.82612-6.782473 20.168342-11.917424 14.683421-10.269901 32.402991-25.247011 49.503461-45.836955 30.928407-37.238113 59.728336-92.562139 66.922179-166.847006 34.589796-22.957875 55.003731-64.293305 55.003731-112.75811 0-50.268894-21.648043-93.213985-58.671261-115.508757C795.067984 235.987712 666.428162 130.208551 513.783623 130.208551z" p-id="2300" fill="rgb(89,151,233)"></path></svg>
