<svg id="图层_1" data-name="图层 1" xmlns="http://www.w3.org/2000/svg" xmlns:xlink="http://www.w3.org/1999/xlink" viewBox="0 0 1024 1024"><defs><style>.cls-1{fill:url(#未命名的渐变_61);}.cls-2{opacity:0.45;}.cls-3{fill:#ea571a;}.cls-4,.cls-8{fill:#fff;}.cls-5{opacity:0.34;}.cls-6,.cls-7{fill:#c1381f;}.cls-7,.cls-8{font-size:249.95px;font-family:Arial-BoldMT, Arial;font-weight:700;}</style><linearGradient id="未命名的渐变_61" x1="512" y1="1024" x2="512" gradientUnits="userSpaceOnUse"><stop offset="0.2" stop-color="#ea5324"/><stop offset="0.89" stop-color="#edb039"/></linearGradient></defs><title>分分PK拾</title><rect class="cls-1" width="1024" height="1024" rx="350" ry="350"/><g class="cls-2"><polyline class="cls-3" points="571.6 168.88 617.88 168.88 562.83 238.13 519 238.13"/><polyline class="cls-3" points="725.47 238.13 681.64 238.13 626.59 168.88 672.87 168.88"/><polyline class="cls-3" points="560.63 270.88 522.66 270.88 522.66 248.86 713.31 248.86 713.31 336.49 686.09 365.01 608.98 365.01 608.98 342.98 671.27 342.98 671.27 270.88 606.43 270.88 567.27 365.01 525.89 365.01"/><polyline class="cls-3" points="355.85 168.88 402.13 168.88 347.07 238.13 303.25 238.13"/><polyline class="cls-3" points="509.72 238.13 465.89 238.13 410.84 168.88 457.12 168.88"/><polyline class="cls-3" points="344.88 270.88 306.91 270.88 306.91 248.86 497.56 248.86 497.56 336.49 470.34 365.01 393.23 365.01 393.23 342.98 455.52 342.98 455.52 270.88 390.68 270.88 351.52 365.01 310.14 365.01"/></g><polyline class="cls-4" points="570.6 148.88 616.88 148.88 561.83 218.13 518 218.13"/><polyline class="cls-4" points="724.47 218.13 680.64 218.13 625.59 148.88 671.87 148.88"/><polyline class="cls-4" points="559.63 250.88 521.66 250.88 521.66 228.86 712.31 228.86 712.31 316.49 685.09 345.01 607.98 345.01 607.98 322.98 670.27 322.98 670.27 250.88 605.43 250.88 566.27 345.01 524.89 345.01"/><polyline class="cls-4" points="354.85 148.88 401.13 148.88 346.07 218.13 302.25 218.13"/><polyline class="cls-4" points="508.72 218.13 464.89 218.13 409.84 148.88 456.12 148.88"/><polyline class="cls-4" points="343.88 250.88 305.91 250.88 305.91 228.86 496.56 228.86 496.56 316.49 469.34 345.01 392.23 345.01 392.23 322.98 454.52 322.98 454.52 250.88 389.68 250.88 350.52 345.01 309.14 345.01"/><path class="cls-4" d="M413.35,541.28a7.5,7.5,0,0,1-.4-15c46.11-2.51,79.06-17.28,97.93-43.9,14-19.79,14.75-39.27,14.76-39.47a7.52,7.52,0,0,1,7.49-7.3h.19a7.5,7.5,0,0,1,7.31,7.65c0,1-.68,23.59-17,47-14.82,21.32-45.91,47.47-109.89,51Z" transform="translate(0 0)"/><path class="cls-4" d="M281,524.7a7.5,7.5,0,0,1-5.66-12.42c1.78-2,44.5-50.36,133.37-81.25,52-18,109-26.31,169.51-24.54,75.33,2.2,156.31,20,240.7,53,10.26,3.51,23,7.32,26.11,7.57a7.5,7.5,0,0,1,1.87,14.87c-5.87,1-25.57-5.76-33-8.3l-.3-.11c-187.28-73.21-320.88-55.81-400-28.32-85.13,29.59-126.56,76.45-127,76.92A7.45,7.45,0,0,1,281,524.7Zm563.45-57.57h0Z" transform="translate(0 0)"/><path class="cls-4" d="M879.72,615.37c-3.28,0-10.29,2.83-11.22-.48a7.52,7.52,0,0,1,5.2-9.25c30.09-8.42,47.55-20,50.5-33.48,3.79-17.3-16.44-34.73-16.65-34.9a7.51,7.51,0,0,1-2.62-6.44c2.47-25.93-2.72-37.5-7.51-42.64-3.92-4.22-8.13-4.48-8.19-4.48h-.5c-132.1-5.81-231.81,14.9-319.78,33.18-92.31,19.18-172,35.74-260.3,14.63-66.89-16-123.53-12.17-163.81,11.09C114.69,560,98,582.45,97.87,582.68a7.51,7.51,0,0,1-9.94,3.65c-3.75-1.73.59-6.15,2.31-9.91.48-1.07,12.31-26.36,46.09-46.23,19.56-11.51,42.55-18.88,68.31-21.91,31.79-3.73,68-.83,107.5,8.63,85,20.33,163.21,4.09,253.76-14.73,88.8-18.44,189.44-39.36,323.34-33.48,2.12,0,11.18.67,19.16,9.26,9.51,10.21,13.47,27.22,11.77,50.56,7,6.85,23.29,25.59,18.7,46.78-4.24,19.55-20.8,29.62-57.12,39.79A7.53,7.53,0,0,1,879.72,615.37Z" transform="translate(0 0)"/><path class="cls-4" d="M470,640.62c-3.62,0,5.19.37,4.6-3.32-.65-4.09-9.86-3.93-5.77-4.58,45.35-7.22,77.6-33.06,93.26-61.46,11.63-21.09,10.24-39.89,10.22-40.08a7.5,7.5,0,0,1,15-1.23c.08.95,1.76,23.54-12,48.55-12.54,22.74-40.77,52-104,62A8,8,0,0,1,470,640.62Z" transform="translate(0 0)"/><path class="cls-4" d="M680.06,644.21l-345.5-5c-4.14,0-7.5,1.64-7.5-2.5s3.36-3.5,7.5-2.5l345.5-4c4.15-1,7.5,2.35,7.5,6.5A7.5,7.5,0,0,1,680.06,644.21Z" transform="translate(0 0)"/><path class="cls-4" d="M683.6,600.71c-.87,0,.25-.15-.61-.47-3.88-1.44-.87-9.75.57-13.64a95,95,0,0,1,168.35-19.36,7.5,7.5,0,1,1-12.52,8.26,80,80,0,0,0-100.13-28.59c-19.42,8.92-41.21,28.87-48.63,48.9A7.5,7.5,0,0,1,683.6,600.71Z" transform="translate(0 0)"/><path class="cls-4" d="M142.14,564.29c-.78-.37.29,0-.34-.68-2.86-3,3.5-9.15,6.5-12A95,95,0,0,1,308.08,608,7.5,7.5,0,0,1,293.21,610a80,80,0,0,0-77.45-69.6c-21.37-.5-49.69,7.87-65.15,22.62A7.49,7.49,0,0,1,142.14,564.29Z" transform="translate(0 0)"/><g class="cls-5"><path class="cls-6" d="M770.86,693A106.34,106.34,0,1,0,877.2,799.33,106.34,106.34,0,0,0,770.86,693ZM744,712.83a25,25,0,1,1-25,25A25,25,0,0,1,744,712.83Zm10.5,178.84a44,44,0,1,1,44-44A44,44,0,0,1,754.53,891.67Zm69-74.67a35,35,0,1,1,35-35A35,35,0,0,1,823.53,817Z" transform="translate(0 0)"/><text class="cls-7" transform="matrix(0.97, 0, -0.18, 0.98, 166.28, 897.97)">PK1</text></g><path class="cls-4" d="M769.86,673A106.34,106.34,0,1,0,876.2,779.33,106.34,106.34,0,0,0,769.86,673ZM743,692.83a25,25,0,1,1-25,25A25,25,0,0,1,743,692.83Zm10.5,178.84a44,44,0,1,1,44-44A44,44,0,0,1,753.53,871.67Zm69-74.67a35,35,0,1,1,35-35A35,35,0,0,1,822.53,797Z" transform="translate(0 0)"/><text class="cls-8" transform="matrix(0.97, 0, -0.18, 0.98, 165.28, 877.97)">PK1</text></svg>