<svg id="图层_1" data-name="图层 1" xmlns="http://www.w3.org/2000/svg" xmlns:xlink="http://www.w3.org/1999/xlink" viewBox="0 0 1024 1024"><defs><style>.cls-1{fill:url(#未命名的渐变_5);}.cls-2{fill:#fff;}</style><linearGradient id="未命名的渐变_5" x1="512" x2="512" y2="1024" gradientUnits="userSpaceOnUse"><stop offset="0" stop-color="#ff416c"/><stop offset="1" stop-color="#ff4b2b"/></linearGradient></defs><title>广东快乐10分</title><rect class="cls-1" width="1024" height="1024" rx="350" ry="350"/><path class="cls-2" d="M578,314c13,1,25,38,23,50s-59-2-85,14-45,24-78,18,27-4,66-34A544,544,0,0,1,578,314Z" transform="translate(-1)"/><path class="cls-2" d="M420.94,119.1q6.83,9.11,12.14,23.52,31.1-1.51,67.53,0l3.79,8.35q-91.82,2.28-133.55,19-11.38,63.74-14.42,111.54-14.42-.76-24.28,2.28,1.51-34.15,15.18-125.2,3-22,16.69-17.45,6.83,2.28,8.35,7.59,8.34-.75,24.28-3,8.34-.75,12.14-1.52a86.11,86.11,0,0,0-8.35-16.69q-4.55-8.34,4.55-12.14Q414.86,112.29,420.94,119.1Z" transform="translate(-1)"/><path class="cls-2" d="M625.05,176.77q2.28,7.59,2.28,22.76a267.54,267.54,0,0,0,46.29-9.86l3,6.07q-21.25,8.36-49.32,17.45.75,43.25-5.31,69.81-14.42-3.81-24.28,0,5.3-21.25,6.83-63.74a100.11,100.11,0,0,1-19,2.28q-29.59-.75-25-28.07,3.79-15.17,12.9-34.9a97.25,97.25,0,0,0-25.8,9.11q-15.93,6.83-17.45-7.59,0-9.1,11.38-13.66a234.77,234.77,0,0,1,43.25-9.86,8.35,8.35,0,0,0,1.52-3A122.48,122.48,0,0,1,600,115.31q6.06-6.83,14.42-.76,6.83,5.32,3,11.38-1.53,1.53-6.07,9.11,19-.75,44.77-.76,6.83,0,25,1.52,6.83.76,9.87.76l3,8.35q-53.89,1.53-92.57,7.59-7.59,14.42-14.42,31.11Q581,199.53,603,201.81h.76a150.75,150.75,0,0,0-1.52-21.25q-.76-11.38,9.11-14.42Q622.78,163.12,625.05,176.77Zm-63,53.11q5.3-7.58,14.42-5.31,10.62,3.81,6.83,11.38Q579.51,242,559,282.24a37.81,37.81,0,0,0-23.52-1.52Q554.47,240.51,562.07,229.89Zm132.79,48.56q-19,0-24.28,3A451.83,451.83,0,0,1,639.47,239q-6.83-9.85,3.79-15.18,8.34-3.79,17.45,6.07Q684.23,260.24,694.86,278.45Z" transform="translate(-1)"/><path class="cls-2" d="M631.5,420.5s-58,1-78,10c-11,2-25,2-25,2l-1-28s-38,16-36,23,14,19,4,24-44,34-53,21,26-49,16-59-36-12-59-9-31,3-31,3,21-29,19-47-12-26-36-24-35,10-35,10l-1-35-20,3v40s-26.5,1.5-36,7c-10.09,5.84-19,38-3,33a61.54,61.54,0,0,0,12.57-5.2,28.88,28.88,0,0,1,15.3-4l9.13.23-3,43s-56,28-56,27-9-63,1-87,13-35,13-35l-41,2s-6,143-16,142S181,405,181,405c-1,2-3,14-18,15s-27,2-27,2l-5,102s5,22,17,18,29-25,29-25,6,41-7,58l52-3V490l56-36s14,28-13,66-33,48-33,48h66l6-88s16-12,32,19,15,65,15,65l51-4s11-50-20-79-72.5-24.5-72.5-24.5,1-23,51-30,77-3,77-3-39,62-27,78,43,5,43,5l58-34v29s-22,28-51,23-48,11-32,33,86-43,86-43,11,16-20,40c0,0-9,32,4,34s36,6,44-12,8-72,8-72,29,3,37,22,4,26,9,26,35-21,33-29-14-27-43-32-41-10-41-17v-18s46,5,61,12,20,7,20,7-5-34,3-41S631.5,420.5,631.5,420.5Zm-292-35c-1,25-27,40-27,40v-64S340.5,360.5,339.5,385.5Z" transform="translate(-1)"/><path class="cls-2" d="M313,617l126-31s1,46-18,68-46,36-48,83,4,126-16,131-66-11-67-31,38.5-176.5,38.5-176.5-22,3-22-6S313,617,313,617Z" transform="translate(-1)"/><path class="cls-2" d="M572.46,623.22C517.92,590.63,443,615.6,405.11,679s-24.39,141.21,30.15,173.8S564.72,860.41,602.61,797,627,655.81,572.46,623.22Zm-61,132.28c-12,11-27,43-27,43s-5-34-15-49-41-22-41-22,26-5,45-13,30-45,30-45,12,31,21,44,34,16,34,16S523.5,744.5,511.5,755.5Z" transform="translate(-1)"/><path class="cls-2" d="M719,561s7-21,38-22,71,2,113,51,17,59-7,66-29.5,17.5-31.5,14.5,5-47-16-69S780.5,567.5,719,561Z" transform="translate(-1)"/><polygon class="cls-2" points="701.5 585.5 635.5 637.5 637.5 680.5 706.5 593.5 701.5 585.5"/><path class="cls-2" d="M680.64,693.09a8.52,8.52,0,0,1-10.79-11.46c5.92-13.09,13.67-28,18.66-29.13,6.6-1.47,32-.78,45.12-.31a15,15,0,0,0,12-5.28c5.79-6.82,17.51-17.14,33.9-14.41,24,4,40,33,42,54s6,73-25,88-82,12-82,12L740,739s29.5-8.5,38.5-20.5,9-28,5-43-22-16-30,7-51,102-82,132-104,95-149,98-85,10-102-15S397,837,397,837s32.5,41.5,81.5,42.5,116-34,146-66,79-103,83-120C709.8,683.73,694.27,687.83,680.64,693.09Z" transform="translate(-1)"/><path class="cls-2" d="M820.5,290.5s-18,42-36,62-55,36-55,36,35,12,45,38,11,58,11,58,23-50,41-64,47-27,47-27-32-20-42-38S820.5,290.5,820.5,290.5Z" transform="translate(-1)"/><path class="cls-2" d="M240.5,222.5s-7,26-15,31-26,11-26,11,17.5,13.5,20,20,5,33,5,33S234,293.06,243,285c9.5-8.5,26.5-15.5,26.5-15.5s-12-6-19-17S240.5,222.5,240.5,222.5Z" transform="translate(-1)"/><path class="cls-2" d="M234.5,625.5s-7,30-18,37-31,11-31,11,18,14,24,26,9,36,9,36,16-29,25-36,30-19,30-19-17-5-25-20S234.5,625.5,234.5,625.5Z" transform="translate(-1)"/></svg>