<?xml version="1.0" encoding="utf-8"?>
<!-- Generator: Adobe Illustrator 22.0.0, SVG Export Plug-In . SVG Version: 6.00 Build 0)  -->
<svg version="1.1" xmlns="http://www.w3.org/2000/svg" xmlns:xlink="http://www.w3.org/1999/xlink" x="0px" y="0px"
	 viewBox="0 0 1024 1024" style="enable-background:new 0 0 1024 1024;" xml:space="preserve">
<style type="text/css">
	.st0{fill:url(#SVGID_1_);}
	.st1{fill:none;}
	.st2{fill:#FFFFFF;}
	.st3{font-family:'Arial-Black';}
	.st4{font-size:501.425px;}
</style>
<g id="图层_1">
	<linearGradient id="SVGID_1_" gradientUnits="userSpaceOnUse" x1="512.8387" y1="1024.75" x2="512.8387" y2="0.75">
		<stop  offset="0.2545" style="stop-color:#584498"/>
		<stop  offset="0.9606" style="stop-color:#934B99"/>
	</linearGradient>
	<path class="st0" d="M674.8,1024.8h-324c-192.5,0-350-157.5-350-350v-324c0-192.5,157.5-350,350-350h324c192.5,0,350,157.5,350,350
		v324C1024.8,867.3,867.3,1024.8,674.8,1024.8z"/>
	<path class="st1" d="M553.6,358.9l-9.5,19.5c9.7,2.8,16.1-1.8,19.6-10.9S553.6,358.9,553.6,358.9z"/>
	<path class="st1" d="M470,378.7c1.2,0.9,2.7,1.4,4.3,1.7l11.9-24.3c-2.6,0-5.3,0.2-8.1,0.8C461.8,360.3,460.9,371.8,470,378.7z"/>
	<path class="st2" d="M508.8,361.3l-1-12.4l-4.9,9.9C506.5,360.1,508.8,361.3,508.8,361.3z"/>
	<path class="st1" d="M569.2,367l-9.5,19.5c9.7,2.8,16.1-1.8,19.6-10.9S569.2,367,569.2,367z"/>
	<g>
		<path class="st2" d="M430.1,393.6c0.3-2.4,0.8-4.7,1.3-6.9c-2.8,0.4-5.7,0.7-8.5,1.1c-28.7,4-57.2,9.3-85.3,16
			c-28.1,6.7-55.8,14.8-83,24.4c-13.6,4.8-27.1,9.9-40.3,15.5c-6.6,2.8-13.2,5.7-19.8,8.7c-6.5,3.1-13,6.2-19.3,9.7
			c27.8-7.1,55.6-13.4,83.5-19c27.9-5.6,55.7-10.7,83.7-14.9c27.9-4.3,55.9-7.8,84-10.6c3.6-0.4,7.3-0.7,10.9-1
			C431.8,411.9,428.7,404.7,430.1,393.6z"/>
		<path class="st2" d="M682.8,395.4c-14.2-3.3-28.5-5.4-42.9-7.9c-10.8-1.4-21.5-2.8-32.3-3.8c2.2,4.9,3.1,10.9,1.8,18.1
			c-0.8,4.3-2.1,8-3.7,11.3c10.4,0.6,20.7,1.5,31.1,2.1l20.9,2.2c7,0.5,14,1.6,20.9,2.5c55.9,6.9,110.8,20.1,165.6,37.4
			C794.7,427.9,739.6,407.4,682.8,395.4z"/>
		<g>
			<path class="st2" d="M495,352.5c0,0-48.4-8.3-58.5,33.1c-0.5,2.2-1,4.5-1.3,7c-1.4,11.2,1.7,18.6,7.2,23.3
				c5.8,4.9,14.4,7,23.4,7.4l10.5-21.5c-1.7-0.3-3.2-0.8-4.4-1.7c-9.2-6.9-8.3-18.7,8.2-22.1c2.8-0.6,5.6-0.8,8.3-0.8l11.8-24
				L495,352.5z"/>
			<polygon class="st2" points="487.1,424.9 499.2,400.2 507.8,382.6 512.8,372.5 527.6,342.3 544.4,343.1 549.1,333.6 514.3,332.1 
				502.7,355.8 490.9,379.8 478.9,404.4 468.3,425.8 468.2,426.1 486.1,426.9 			"/>
			<polygon class="st2" points="542.2,359.1 558.2,359.8 564.8,346.4 546.9,345.6 530.1,344.8 488.6,429.3 481.5,443.7 501.2,444.6 
							"/>
			<path class="st2" d="M603.2,382.5c-6.5-14.6-23.7-19.4-23.7-19.4l-18.7-0.9l-16-0.7l-41,85.6l-7.6,15.9l34.7,1.6l16.2-33.8
				c23.3,3.6,44.8,0.3,54.1-18.3c1.7-3.3,3-7.1,3.8-11.5C606.3,393.5,605.3,387.5,603.2,382.5z M574.5,398.7
				c-3.5,9.2-10.1,13.9-19.9,11l9.6-19.7C564.3,390,578.1,389.5,574.5,398.7z"/>
		</g>
		<text transform="matrix(1.0681 1.233702e-02 -0.2476 0.9689 103.0497 873.9708)" class="st2 st3 st4">3</text>
		<g>
			<path class="st2" d="M869.4,623.9C819.5,487.6,622.5,513,622.5,513l-111.1-0.4l-88.2,349.3l111.1,0.4l35.1-138.9
				c8,13.7,18.3,25.8,30.6,35.8l-36,178.6c173.2-40.1,212.4-84.5,212.4-84.5S919.3,760.1,869.4,623.9z M670.5,769.8
				c-47.7,0-87.2-32.8-93.9-75.4l0,0c-0.3-1.9-0.5-3.8-0.7-5.7c0-0.4-0.1-0.8-0.1-1.1c-0.1-2-0.2-3.9-0.2-5.9c0-1.4,0-2.7,0.1-4.1
				c0-0.4,0.1-0.8,0.1-1.3c0.1-1,0.1-1.9,0.2-2.9c0-0.5,0.1-0.9,0.1-1.4c0.1-1,0.3-2,0.4-3c0.1-0.3,0.1-0.7,0.1-1
				c0.2-1.3,0.5-2.5,0.7-3.7c0.1-0.5,0.2-1,0.4-1.5c0.2-0.8,0.4-1.5,0.6-2.3c0.2-0.6,0.3-1.2,0.5-1.8c0.2-0.7,0.4-1.3,0.6-2
				c0.2-0.6,0.4-1.2,0.6-1.8c0.2-0.7,0.5-1.4,0.8-2.1c0.4-1.1,0.8-2.2,1.3-3.2c0.2-0.4,0.4-0.9,0.6-1.3c0.3-0.7,0.7-1.5,1-2.2
				c0.2-0.4,0.3-0.7,0.5-1.1c0.4-0.8,0.8-1.6,1.2-2.3c0,0,0,0,0,0c1-1.9,2.1-3.8,3.2-5.6c0-0.1,0.1-0.1,0.1-0.2
				c0.5-0.8,1.1-1.6,1.6-2.5c0.1-0.2,0.3-0.4,0.4-0.5c0.6-0.8,1.2-1.6,1.8-2.4v0c17.1-22.9,45.7-38,78-38
				c52.4,0,94.9,39.5,94.9,88.2S722.9,769.8,670.5,769.8z"/>
			<ellipse class="st2" cx="670.5" cy="681.6" rx="75.6" ry="70.2"/>
		</g>
	</g>
	<g>
		<path class="st2" d="M372.1,95.7c6.5,8.8,12.2,17.7,17.1,26.7l-22.3,10.9l27.3,0l-2.6,22.4c-6.9,11.2-13.9,21.7-21.2,31.5
			l-0.7,5.9l9.4-5.4c3.2,5.1,6.8,11.1,10.8,18.1l0.9-7.6l126,0.1l-11.4,97.1l-27.5,0l1.1-9.1l-71-0.1l-1.1,9.1l-27.5,0l8.5-72.8
			l-12.4,6.6c-2.7-7-5.3-13.3-7.8-19l-10.1,86.4l-27.1,0l8.5-73c-6.1,6.1-12.4,11.8-18.9,17.1c-1.3-13.6-2.6-24.6-3.8-33.1
			c18.2-15.5,32.5-31.3,43-47.4l-34.6,0l3.1-26.7l32.8,0c-4.8-9.3-9.7-17.9-14.6-25.7L372.1,95.7z M402.4,105.5l126.2,0.1l-2.5,21.4
			l-126.2-0.1L402.4,105.5z M406.5,136.4l108.9,0.1l-6.1,52.3l-108.9-0.1L406.5,136.4z M410.2,266.5l22.1,0l1.7-14.7l-22.1,0
			L410.2,266.5z M414.2,232.5l22.1,0L438,218l-22.1,0L414.2,232.5z M485.1,157.1l-53.1,0l-1.3,11.3l53.1,0L485.1,157.1z
			 M459.2,266.5l22.1,0l1.7-14.7l-22.1,0L459.2,266.5z M486.9,218.1l-22.1,0l-1.7,14.5l22.1,0L486.9,218.1z"/>
		<path class="st2" d="M534.7,188.8l45.6,0l1.6-13.5l27.5,0l-1.6,13.5l41.9,0l-2.8,24.2l-41.9,0l-0.7,6.3
			c14.8,8.5,28.6,16.9,41.4,25.3l-19.3,22.6c-8.9-7.4-17.3-14.2-25.3-20.4l-5.9,50.1l-27.5,0l6.6-56.8c-12.2,16.3-25.2,30.3-39.1,42
			c-4.2-8.2-8.6-16.1-13.3-23.6c18.4-14.7,34-29.8,46.8-45.4l-36.9,0L534.7,188.8z M558.7,140.6c4.9,9,9.8,19.1,14.6,30.3L551,181.1
			c-4.1-11-8.5-21.4-13-31.1L558.7,140.6z M544.6,110.8c35.3-1.3,71.2-3.6,107.8-6.8l0.8,23.4c-39,3.2-74.6,5.7-106.9,7.4
			C546.3,127.9,545.7,119.9,544.6,110.8z M597.1,132.3c5.4,10,10,19.5,13.9,28.5l-21.9,9.5c-3.3-8.2-7.8-18-13.2-29.3L597.1,132.3z
			 M635.8,130.9l21.3,8.7c-8.8,13.2-18.2,26.6-28.4,40.2l-19.4-10.3C618.4,157.5,627.2,144.7,635.8,130.9z M714.5,216.2l19.7,17
			c-27.5,27.4-56.5,49-87.1,64.8c-4.7-8.4-10.1-16.6-16.2-24.9C661.4,259.6,689.3,240.6,714.5,216.2z M720.4,155.2l18.3,17.6
			c-23.7,22.6-48,41.3-72.8,56.1c-4.6-7-10.3-14.4-17.2-22C674.2,194.4,698.1,177.2,720.4,155.2z M722.3,97.9l18.4,17
			c-21.8,19.9-44.6,37.1-68.5,51.4c-5.2-7.9-10.8-15.7-16.9-23.2C679.9,131.8,702.2,116.7,722.3,97.9z"/>
	</g>
</g>
<g id="图层_2">
</g>
</svg>
