<svg id="图层_1" data-name="图层 1" xmlns="http://www.w3.org/2000/svg" xmlns:xlink="http://www.w3.org/1999/xlink" viewBox="0 0 1024 1024"><defs><style>.cls-1{fill:url(#未命名的渐变_3);}.cls-2,.cls-6{fill:#fff;}.cls-3{opacity:0.07;}.cls-4,.cls-5{fill:#040000;}.cls-5,.cls-6{font-size:249.95px;font-family:Arial-BoldMT, Arial;font-weight:700;}</style><linearGradient id="未命名的渐变_3" x1="512" y1="1024" x2="512" gradientUnits="userSpaceOnUse"><stop offset="0.2" stop-color="#2c6ab4"/><stop offset="0.89" stop-color="#24baee"/></linearGradient></defs><title>北京PK拾</title><rect class="cls-1" width="1024" height="1024" rx="350" ry="350"/><path class="cls-2" d="M413.35,541.28a7.5,7.5,0,0,1-.4-15c46.11-2.51,79.06-17.28,97.93-43.9,14-19.79,14.75-39.27,14.76-39.47a7.52,7.52,0,0,1,7.49-7.3h.19a7.5,7.5,0,0,1,7.31,7.65c0,1-.68,23.59-17,47-14.82,21.32-45.91,47.47-109.89,51Z" transform="translate(0 0)"/><path class="cls-2" d="M281,524.7a7.5,7.5,0,0,1-5.66-12.42c1.78-2,44.5-50.36,133.37-81.25,52-18,109-26.31,169.51-24.54,75.33,2.2,156.31,20,240.7,53,10.26,3.51,23,7.32,26.11,7.57a7.5,7.5,0,0,1,1.87,14.87c-5.87,1-25.57-5.76-33-8.3l-.3-.11c-187.28-73.21-320.88-55.81-400-28.32-85.13,29.59-126.56,76.45-127,76.92A7.45,7.45,0,0,1,281,524.7Zm563.45-57.57h0Z" transform="translate(0 0)"/><path class="cls-2" d="M879.72,615.37c-3.28,0-10.29,2.83-11.22-.48a7.52,7.52,0,0,1,5.2-9.25c30.09-8.42,47.55-20,50.5-33.48,3.79-17.3-16.44-34.73-16.65-34.9a7.51,7.51,0,0,1-2.62-6.44c2.47-25.93-2.72-37.5-7.51-42.64-3.92-4.22-8.13-4.48-8.19-4.48h-.5c-132.1-5.81-231.81,14.9-319.78,33.18-92.31,19.18-172,35.74-260.3,14.63-66.89-16-123.53-12.17-163.81,11.09C114.69,560,98,582.45,97.87,582.68a7.51,7.51,0,0,1-9.94,3.65c-3.75-1.73.59-6.15,2.31-9.91.48-1.07,12.31-26.36,46.09-46.23,19.56-11.51,42.55-18.88,68.31-21.91,31.79-3.73,68-.83,107.5,8.63,85,20.33,163.21,4.09,253.76-14.73,88.8-18.44,189.44-39.36,323.34-33.48,2.12,0,11.18.67,19.16,9.26,9.51,10.21,13.47,27.22,11.77,50.56,7,6.85,23.29,25.59,18.7,46.78-4.24,19.55-20.8,29.62-57.12,39.79A7.53,7.53,0,0,1,879.72,615.37Z" transform="translate(0 0)"/><path class="cls-2" d="M470,640.62c-3.62,0,5.19.37,4.6-3.32-.65-4.09-9.86-3.93-5.77-4.58,45.35-7.22,77.6-33.06,93.26-61.46,11.63-21.09,10.24-39.89,10.22-40.08a7.5,7.5,0,0,1,15-1.23c.08.95,1.76,23.54-12,48.55-12.54,22.74-40.77,52-104,62A8,8,0,0,1,470,640.62Z" transform="translate(0 0)"/><path class="cls-2" d="M680.06,644.21l-345.5-5c-4.14,0-7.5,1.64-7.5-2.5s3.36-3.5,7.5-2.5l345.5-4c4.15-1,7.5,2.35,7.5,6.5A7.5,7.5,0,0,1,680.06,644.21Z" transform="translate(0 0)"/><path class="cls-2" d="M683.6,600.71c-.87,0,.25-.15-.61-.47-3.88-1.44-.87-9.75.57-13.64a95,95,0,0,1,168.35-19.36,7.5,7.5,0,1,1-12.52,8.26,80,80,0,0,0-100.13-28.59c-19.42,8.92-41.21,28.87-48.63,48.9A7.5,7.5,0,0,1,683.6,600.71Z" transform="translate(0 0)"/><path class="cls-2" d="M142.14,564.29c-.78-.37.29,0-.34-.68-2.86-3,3.5-9.15,6.5-12A95,95,0,0,1,308.08,608,7.5,7.5,0,0,1,293.21,610a80,80,0,0,0-77.45-69.6c-21.37-.5-49.69,7.87-65.15,22.62A7.49,7.49,0,0,1,142.14,564.29Z" transform="translate(0 0)"/><g class="cls-3"><path class="cls-4" d="M770.86,693A106.34,106.34,0,1,0,877.2,799.33,106.34,106.34,0,0,0,770.86,693ZM744,712.83a25,25,0,1,1-25,25A25,25,0,0,1,744,712.83Zm10.5,178.84a44,44,0,1,1,44-44A44,44,0,0,1,754.53,891.67Zm69-74.67a35,35,0,1,1,35-35A35,35,0,0,1,823.53,817Z" transform="translate(0 0)"/><text class="cls-5" transform="matrix(0.97, 0, -0.18, 0.98, 166.28, 897.97)">PK1</text></g><path class="cls-2" d="M769.86,673A106.34,106.34,0,1,0,876.2,779.33,106.34,106.34,0,0,0,769.86,673ZM743,692.83a25,25,0,1,1-25,25A25,25,0,0,1,743,692.83Zm10.5,178.84a44,44,0,1,1,44-44A44,44,0,0,1,753.53,871.67Zm69-74.67a35,35,0,1,1,35-35A35,35,0,0,1,822.53,797Z" transform="translate(0 0)"/><text class="cls-6" transform="matrix(0.97, 0, -0.18, 0.98, 165.28, 877.97)">PK1</text><polyline class="cls-2" points="351.12 267.51 351.12 204.47 305.91 204.47 305.91 184.3 351.12 184.3 351.12 141.84 391.46 141.84 391.46 342.66 351.12 342.66 351.12 292.56"/><polygon class="cls-2" points="403.19 144.62 443.31 144.62 443.31 325.27 495.11 325.27 490.22 343.43 403.19 343.43 403.19 144.62"/><polyline class="cls-2" points="635.93 155.68 716.6 155.68 716.6 178.85 515.14 178.85 515.14 155.68 595.81 155.68"/><polygon class="cls-2" points="557.4 190.32 565.24 214.48 666.71 214.48 666.71 254.26 565.24 254.26 565.24 210.48 565.24 190.32 524.91 190.32 524.91 274.22 595.81 274.22 595.81 324.27 578.62 324.27 578.62 344.43 609.82 344.43 635.93 318.54 635.93 274.22 680.94 274.22 706.84 248.11 706.84 190.32 557.4 190.32"/><rect class="cls-2" x="303" y="319.33" width="54" height="23.33"/><rect class="cls-2" x="442.56" y="320.33" width="54" height="23.08"/><rect class="cls-2" x="303" y="181.67" width="54" height="23.33"/><polygon class="cls-2" points="496.56 204.99 442.56 204.99 442.56 181.67 501.56 173.67 496.56 204.99"/><circle class="cls-2" cx="618.32" cy="155.68" r="19.07"/><polygon class="cls-2" points="548.99 347.5 515.63 347.5 557.4 284.63 590.76 284.63 548.99 347.5"/><polygon class="cls-2" points="685.49 347.5 718.86 347.5 677.08 284.63 643.72 284.63 685.49 347.5"/></svg>