<svg id="图层_1" data-name="图层 1" xmlns="http://www.w3.org/2000/svg" xmlns:xlink="http://www.w3.org/1999/xlink" viewBox="0 0 1024 1024"><defs><style>.cls-1{fill:url(#未命名的渐变_5);}.cls-2{opacity:0;}.cls-3{fill:#040000;}.cls-4{fill:#fff;}</style><linearGradient id="未命名的渐变_5" x1="512" y1="1024" x2="512" gradientUnits="userSpaceOnUse"><stop offset="0.14" stop-color="#db1982"/><stop offset="1" stop-color="#eb6363"/></linearGradient></defs><title>21</title><rect class="cls-1" width="1024" height="1024" rx="350" ry="350"/><g class="cls-2"><path class="cls-3" d="M365.09,422.5S295.59,399,281.59,295s-104-62-81.5,0S302.09,432,365.09,422.5Z" transform="translate(-1.09 -1)"/></g><path class="cls-4" d="M365.09,422.5S295.59,399,281.59,295s-104-62-81.5,0S302.09,432,365.09,422.5Z" transform="translate(-1.09 -1)"/><g class="cls-2"><path class="cls-3" d="M377.59,417s-49-134,32.5-201.5,11-99.5-16-97.5-73,34-88,105S337.09,401,377.59,417Z" transform="translate(-1.09 -1)"/></g><path class="cls-4" d="M377.59,417s-49-134,32.5-201.5,11-99.5-16-97.5-73,34-88,105S337.09,401,377.59,417Z" transform="translate(-1.09 -1)"/><g class="cls-2"><path class="cls-3" d="M404.69,289.16s94.08-177.33,266-171.09c151.4,5.5,82.48,151.06-9.5,109.59C585.59,193.57,431.19,282.66,404.69,289.16Z" transform="translate(-1.09 -1)"/></g><path class="cls-4" d="M404.69,289.16s94.08-177.33,266-171.09c151.4,5.5,82.48,151.06-9.5,109.59C585.59,193.57,431.19,282.66,404.69,289.16Z" transform="translate(-1.09 -1)"/><polygon class="cls-4" points="525.57 597 519.85 622 458.79 622 458.79 597 525.57 597"/><polygon class="cls-4" points="200 531.5 217.5 531.5 195.41 649 232.5 636 257 496.5 205.5 500 200 531.5"/><polygon class="cls-4" points="276 496 270.5 527.5 288 527.5 265.91 645 303 632 327.5 492.5 276 496"/><ellipse class="cls-4" cx="375.09" cy="495" rx="23.04" ry="19.14" transform="translate(-240.51 583.94) rotate(-61.17)"/><path class="cls-4" d="M371.59,622.5l20-99h-48l-8,26h17l-24,124h14s16.7-21.5,33.1-8l126.9-1,18.5-26.5H379.59Z" transform="translate(-1.09 -1)"/><polygon class="cls-4" points="451 568.75 419.5 568.75 384.5 622 423.75 622 451 568.75"/><polygon class="cls-4" points="525.5 509 534.5 484 488.86 484 491.25 471 461.25 471 458.86 484 442.27 484 445.25 471 413.25 471 399.25 532 431.25 532 436.53 509 454.25 509 448.64 539.5 392 539.5 392 564.5 461.6 564.5 451 622 481 622 491.6 564.5 514.13 564.5 525.57 539.5 478.64 539.5 484.25 509 525.5 509"/><path class="cls-4" d="M626.8,524.15q-24.06,0-42,19.08L597,495.1h78.65l6.7-25.65H579.11L555.24,561.1l25.92,5.23q14-19.33,35.12-19.33,14,0,21.24,9.54t5.08,23.4A40.8,40.8,0,0,1,630,603.77q-10.37,9.84-26.65,9.85-26.49,0-30.89-25.41l-29.36,4.25q1.68,23.34,17.88,34.41t40.14,11.06q30.14,0,50.1-17.14t23.67-40.85q3.57-22.73-10.31-39.26T626.8,524.15Z" transform="translate(-1.09 -1)"/><path class="cls-4" d="M305.23,814.17l3-.21a29.79,29.79,0,0,0,3.79-.73l3.28-.93c.62-.14,3.15-.48,7.59-1s6.94-.83,7.48-.83c.28.07,1.29.3,3,.68s4.75.86,9,1.45,6.59,1.55,7,2.9a4.89,4.89,0,0,1-.05,3.38c-.07.14-1.16,1.17-3.28,3.11l-4.31,6.23a12.48,12.48,0,0,1-5.64,4.15l-4.2,1.24-10.56,5.5-7.48,2.6c-2.12,1.11-3.42,1.62-3.9,1.55q-1.74,0-5.07-3.63t-3.34-14.73Q301.54,815.83,305.23,814.17Zm46.6,35.8a3.12,3.12,0,0,1,1.69,2.7q.21,2-1.43,5.6l-3,7.79A37.62,37.62,0,0,1,340.66,878a58.87,58.87,0,0,1-12,9.24l-10.25,5.29q-5.85,3-8.41,3a5.4,5.4,0,0,1-5.43-3.63v-9.65l-1.44-2.7a5,5,0,0,1,.52-3,16.84,16.84,0,0,1,1.64-3.43,6.62,6.62,0,0,1,3.07-2.38l3.08-1,4.82-2,2.87-.42a17.77,17.77,0,0,0,4.51-1.76l2.15-1.46L331,862a45.46,45.46,0,0,0,4.1-2.39l7.48-3.84a17.14,17.14,0,0,0,3.9-2.9l2.05-2.29A3.13,3.13,0,0,1,351.83,850Zm-30.6-84.89,2.15,1.14q3.08,1.46,11.38.21a17.44,17.44,0,0,1,8.26.67q3.63,1.3,5.94,2.34a12,12,0,0,0,3.64,1.14l3.9.31,2.66.93q6.25,2.19,6.82,2.86a5,5,0,0,1,.82,2.39,3.4,3.4,0,0,1-.36,2.54,2,2,0,0,1-1,.72l-1.54.42a14.49,14.49,0,0,0-6.15,4.31q-3.28,3.48-4.41,3.58a12.4,12.4,0,0,1-2.62-.16,22.15,22.15,0,0,0-5.64.26,28.18,28.18,0,0,0-4.76,1l-5.54,2.59a22.38,22.38,0,0,1-2.77.42l-11.79,2a5.87,5.87,0,0,1-2.05.21q-2.76,0-5.48-3.74t-2.87-5.71a26.06,26.06,0,0,1-.05-3.73,79.75,79.75,0,0,1,1.18-9.24c.64-3.74,1.55-5.72,2.71-6s1.78-.38,1.85-.41.44-.47,1.12-1.3S318.84,764.11,321.23,765.08ZM368,867.92l2.77.63a11.6,11.6,0,0,0,3.69-.94l3.07-.93,6.77-3,8-1.66,8.3-1.14q6.15-1.14,7.79-3.22a7.85,7.85,0,0,0,1.85-3.84l.1-1.76,1.74-7.06q.31-1.87.57-13.8T412.48,814q-.42-5.24-.36-7.68a7.87,7.87,0,0,0-.67-3.79c-1.3-1.87-3.9-2.52-7.79-2l-10.25,2a53.62,53.62,0,0,1-11.28.52q-6.36-.21-8-2.59l-1.74-4.26-2.26-4.36a17.3,17.3,0,0,1,.21-6.74l1.84-3.84q1.33-3.12,2.1-3.69a3.57,3.57,0,0,1,2.11-.57c.13.07.93.37,2.41.89a15.33,15.33,0,0,0,3.43.88q4.81.72,14.81-1.92a98,98,0,0,1,13.64-3q3.65-.31,13.28-.36t13.43-.26a106.6,106.6,0,0,1,18.81.88q7.74,1.2,11.07.36c2.22-.55,3.44-.83,3.64-.83a8.52,8.52,0,0,1,5,2,3.64,3.64,0,0,1,1.38,4.51l-2.36,3.43-1.43,3.11L472,788.53l-2.46,5.92q-1.12,1.24-4.36,2A87.06,87.06,0,0,1,454.87,798q-7.12.72-13.89.77c-4.51,0-7.51.37-9,1a6.13,6.13,0,0,0-3.28,3.32,20.27,20.27,0,0,0-1.54,5.35q-.46,3,.15,12.3l.41,11.51,1.13,18a14.5,14.5,0,0,0,.66,4.77q.68,1.88,5.59,4.26t24.3.83A121.09,121.09,0,0,0,474,857.55c6.77-1.46,11-2.61,12.61-3.48s2.7-1.23,3.18-1.09q1.53.72,1.59,4a21.6,21.6,0,0,1-1.49,7.57A91.24,91.24,0,0,1,485,874.88,57.16,57.16,0,0,1,477.68,886a17.21,17.21,0,0,1-6.92,5,15.58,15.58,0,0,1-8.25.31A20.1,20.1,0,0,1,458,890l-7.59-3.94q-5.13-2.39-14.56-3.64-15.59-2-21.58-.62t-13,3.48a102.46,102.46,0,0,1-16.76,3.37q-9.8,1.25-13.54,3.27t-4.87,1.71c-.54-.07-1.74-1.1-3.58-3.11l-3-3a2.84,2.84,0,0,1-.77-1.25,24.46,24.46,0,0,1-.2-3.58,24.11,24.11,0,0,1,0-3.37,41.6,41.6,0,0,1,2-5.5l1-3A6.27,6.27,0,0,1,368,867.92Z" transform="translate(-1.09 -1)"/><path class="cls-4" d="M527.55,784a4.78,4.78,0,0,1-.36-1.09,20.87,20.87,0,0,1-.31-2.44,8.11,8.11,0,0,1,.92-4.05q1.08-2.28,8.26-2.39,19.07-.19,33.11-4.25l6.26-1.87q12.81-3.52,39.11-3.84t30.4-.21a178.66,178.66,0,0,1,19.58,2.7q13.43,2.38,15.79,2.08L690.36,767h8.71c.07,0,1.67-.17,4.82-.52s5-.43,5.48-.26.26,1.71-.77,4.62q-4.92,13.17-11.84,20.75t-14.09,6.54q-3.39-.42-20.66-5.86t-18.82-3.38a8,8,0,0,0-1.69,4,19,19,0,0,0,0,3.06q.21,4.47,1.95,5.76a15,15,0,0,0,5.74,2.13l6.77,1.87a51.05,51.05,0,0,0,5.43,1.14q4.62.83,7.18,1l8.92.51a21.51,21.51,0,0,1,9.07,3.43q4.56,2.91,4.92,3.48A7.72,7.72,0,0,1,692,818a15.81,15.81,0,0,1,0,3.53q-.21.51-4,6.69t-4.16,22l-.82,16.5a71,71,0,0,0,1.44,14.89q1.64,8.88,1.54,10.12a30.72,30.72,0,0,1-1.49,4.78q-1.19,3.1-2.92,3.53a6.12,6.12,0,0,1-3.38-.52q-2.26-.84-7.28-2.08l-11.69-3.94q-8.61-2.7-28.4-2.39l-19.07.31q-30.76.84-39.68,3.89t-11.84,4.36a26.42,26.42,0,0,0-3.64,1.82L553,905.08a3.81,3.81,0,0,1-4.61-.62q-.3-.21-1.85-5.4l-.71-1.87c-.69-1.66-.89-4.48-.62-8.46s.6-13.16,1-27.55-.23-24.22-1.8-29.47l-2.56-7.48a12.6,12.6,0,0,1-.92-5.08,11.66,11.66,0,0,1,1.48-4,15.86,15.86,0,0,1,3-4.15c1-1,2.92-1.09,5.58-.26l4.31,2.29q3.48,1.76,9.84.51a82,82,0,0,1,10.36-.67q7.27-.15,8.15-2.75a23.13,23.13,0,0,0,1.07-6l.72-10.17c-.07-1.73-.38-2.82-.92-3.27s-1.68-.53-3.38-.26q-.11.11-14.87,4.67l-15.89,4.26q-13.44,4.56-17.43,3.63a4.36,4.36,0,0,1-2.26-.94c-.41-.41-.71-1.55-.92-3.42L527,786.35a4.38,4.38,0,0,1,.25-1.45A4,4,0,0,0,527.55,784Zm100.27,86.45q8.29.83,20.91,2t15.74-3.06q3.12-4.26,3.59-12.66t1.12-12.87a24.28,24.28,0,0,0,.36-6.54,20.71,20.71,0,0,0-1.69-4.62,10.68,10.68,0,0,0-3.84-4.56,17,17,0,0,0-6-2.34l-9.43-1q-5.64-.62-6.77.73a7,7,0,0,0-1.13,3.94l.11,9.65a27,27,0,0,0,.61,6.9q.72,3.07,6,4.83a11.5,11.5,0,0,0,6.56.21,11.83,11.83,0,0,1,6-.11c1.4.49,2.2,2,2.41,4.52a7.22,7.22,0,0,1-2.92,6.43q-3.24,2.65-11.64,2.34-12.72-.32-16.25-3.11a16.39,16.39,0,0,1-5.07-6.39,24.15,24.15,0,0,1-1.9-7.31c-.24-2.5-.53-6.4-.87-11.73a25.59,25.59,0,0,1,.15-6.28c.31-2.18.14-3.68-.51-4.51s-2-1.15-4.15-.94a77.51,77.51,0,0,0-10.41,1.87q-4.87,1.25-6.15,2.75a10.52,10.52,0,0,0-1.9,4.93,83.48,83.48,0,0,0-1,9,49.86,49.86,0,0,1-2.46,12.09q-2.1,6.48-9.33,9.13t-11.54,1.92q-4.31-.72-5.07-2.39t6-8.09q5-4.77,5.84-8.3a64.93,64.93,0,0,0,1.28-9c.31-3.67,0-5.93-.82-6.8s-3.33-1-7.43-.47a53.93,53.93,0,0,0-7.28,1.4,10.11,10.11,0,0,0-4.05,2.55c-1.27,1.24-2.17,3.66-2.72,7.26l-1.12,17.33q-1.54,14.53,1.74,16.09,1.74.93,12.81.73l31.48-4.36L619,871C624.47,870.62,627.41,870.42,627.82,870.42Zm-3.9-84.17q-2.56-.82-12-.1t-10.45,2.12a6,6,0,0,0-1,3.38c0,1.31,0,3.35.05,6.12s.34,4.39,1,5.08,1.91,1.08,3.69,1.15l10.76-.83a32.5,32.5,0,0,0,8-.94,4.78,4.78,0,0,0,3-2.7,12.46,12.46,0,0,0,.67-5.6l-.41-5.81A6.39,6.39,0,0,0,623.92,786.25Z" transform="translate(-1.09 -1)"/><path class="cls-4" d="M420,308.62a72,72,0,0,0-13.08,13.81Q413.17,315.28,420,308.62Z" transform="translate(-1.09 -1)"/><path class="cls-4" d="M523.75,406c-2.58,2.86-5.07,5.83-7.44,8.89A71.08,71.08,0,0,0,523.75,406Z" transform="translate(-1.09 -1)"/><path class="cls-4" d="M590.3,239.24A242.81,242.81,0,0,0,420,308.62q-6.81,6.64-13.08,13.81a71.84,71.84,0,0,0,109.41,92.49c2.37-3.06,4.86-6,7.44-8.89,24.3-26.84,57.81-44.41,94.28-44.41,72.44,0,129.1,69.29,129.1,143S693.87,672.69,593.76,692.85c-39.9,8-71.36,12.12-95.9,13A243.21,243.21,0,0,0,590.3,724c134.31,0,243.2-108.51,243.2-242.38S724.61,239.24,590.3,239.24Z" transform="translate(-1.09 -1)"/></svg>