<svg id="图层_1" data-name="图层 1" xmlns="http://www.w3.org/2000/svg" xmlns:xlink="http://www.w3.org/1999/xlink" viewBox="0 0 1024 1024"><defs><style>.cls-1{fill:url(#未命名的渐变_7);}.cls-2{fill:#d42d18;}.cls-3{fill:#890017;}.cls-3,.cls-5{opacity:0.3;}.cls-4{fill:#e95537;}.cls-5{fill:#870208;}.cls-6{fill:#ea613c;}.cls-7{fill:#51b1c4;}.cls-8{fill:#72c7da;}.cls-9{fill:#7ecbe1;}.cls-10{font-size:391.3px;}.cls-10,.cls-11,.cls-14{fill:#fff;}.cls-10,.cls-11{font-family:MicrosoftYaHei-Bold, Microsoft YaHei;font-weight:700;}.cls-11{font-size:304.1px;}.cls-12{opacity:0.4;}.cls-13{fill:#890e17;}.cls-15{fill:#892019;}</style><linearGradient id="未命名的渐变_7" x1="512" y1="1024" x2="512" gradientUnits="userSpaceOnUse"><stop offset="0" stop-color="#94291e"/><stop offset="1" stop-color="#ed213a"/></linearGradient></defs><title>幸运蛋蛋北京28</title><rect class="cls-1" width="1024" height="1024" rx="350" ry="350"/><circle class="cls-2" cx="425.05" cy="411.55" r="272.84"/><circle class="cls-3" cx="610.95" cy="411.55" r="272.84"/><circle class="cls-4" cx="415.08" cy="411.55" r="262.87"/><circle class="cls-5" cx="683.26" cy="621.2" r="196.12"/><circle class="cls-6" cx="381.58" cy="411.55" r="229.37"/><circle class="cls-7" cx="601.83" cy="623.07" r="193.66"/><circle class="cls-8" cx="583.22" cy="623.07" r="175.06"/><circle class="cls-9" cx="555.62" cy="624.74" r="147.46"/><text class="cls-10" transform="matrix(1.23, 0.42, -0.32, 0.95, 160.58, 448.02)">8</text><text class="cls-11" transform="matrix(0.93, -0.37, 0.37, 0.93, 508.9, 748.02)">2</text><g class="cls-12"><polygon class="cls-13" points="867 243 903 254 903 274 989 296 983 323 769 263 775 240 864.5 263.5 867 243"/><polygon class="cls-13" points="786.5 376.5 809.5 405.5 742.5 432.5 726.5 404.5 786.5 376.5"/><polygon class="cls-13" points="879.5 426.5 901.5 409.5 946.5 459.5 918.5 479.5 879.5 426.5"/><path class="cls-13" d="M787.5,287.5l-25,76s71,16,74,23-12,45-21,44-28-7-28-7v25s24,11,47,12,36-65,36-65l65,15,17-73Zm124,88-108-27,6-27,107,31Z" transform="translate(0 -1)"/></g><polygon class="cls-14" points="867 225 903 236 903 256 989 278 983 305 769 245 775 222 864.5 245.5 867 225"/><polygon class="cls-14" points="786.5 358.5 809.5 387.5 742.5 414.5 726.5 386.5 786.5 358.5"/><polygon class="cls-14" points="879.5 408.5 901.5 391.5 946.5 441.5 918.5 461.5 879.5 408.5"/><path class="cls-14" d="M787.5,269.5l-25,76s71,16,74,23-12,45-21,44-28-7-28-7v25s24,11,47,12,36-65,36-65l65,15,17-73Zm124,88-108-27,6-27,107,31Z" transform="translate(0 -1)"/><polygon class="cls-15" points="160.5 720.5 198.5 712.5 254.5 921.5 220.5 931.5 207.5 898.5 160.5 925.5 148.5 896.5 201.5 862.5 181.5 801.5 132.5 816.5 124.5 786.5 177.5 771.5 160.5 720.5"/><path class="cls-15" d="M217,705l36-12,19,66,44-47,24,24-57,60s9.84,77.9,33,75c24-3,10-60,10-60l42,2s8,76-19,85-72,14-80-8S217,705,217,705Z" transform="translate(0 -1)"/><polygon class="cls-14" points="160.5 702.5 198.5 694.5 254.5 903.5 220.5 913.5 207.5 880.5 160.5 907.5 148.5 878.5 201.5 844.5 181.5 783.5 132.5 798.5 124.5 768.5 177.5 753.5 160.5 702.5"/><path class="cls-14" d="M217,687l36-12,19,66,44-47,24,24-57,60s9.84,77.9,33,75c24-3,10-60,10-60l42,2s8,76-19,85-72,14-80-8S217,687,217,687Z" transform="translate(0 -1)"/></svg>