<svg id="图层_1" data-name="图层 1" xmlns="http://www.w3.org/2000/svg" xmlns:xlink="http://www.w3.org/1999/xlink" viewBox="0 0 1024 1024"><defs><style>.cls-1{fill:url(#未命名的渐变_5);}.cls-2{opacity:0.2;}.cls-3,.cls-4{fill:#4c4c4c;}.cls-4,.cls-9{font-size:111.93px;font-family:Archivo-SemiBold, Archivo;font-weight:700;}.cls-5{letter-spacing:-0.03em;}.cls-6{letter-spacing:-0.02em;}.cls-7{fill:#fcfcfc;}.cls-8,.cls-9{fill:#fff;}</style><linearGradient id="未命名的渐变_5" x1="512" x2="512" y2="1024" gradientUnits="userSpaceOnUse"><stop offset="0" stop-color="#01b09b"/><stop offset="1" stop-color="#96c93d"/></linearGradient></defs><title>重庆时时彩图标</title><rect class="cls-1" width="1024" height="1024" rx="350" ry="350"/><g class="cls-2"><path class="cls-3" d="M142,455,104.5,674.5,160,671l41-39,29-184Zm21.5,187.5h-18l10-64h16Zm16-95h-18l10-64h16Z" transform="translate(-1)"/><polygon class="cls-3" points="243 459 307 457 309 443 346 426 346 450 364 451 338 487 316 626 283 660 237.5 635.5 276.5 633.5 300.5 485.5 240.37 487.94 243 459"/><ellipse class="cls-3" cx="258" cy="545" rx="29.18" ry="21.18" transform="translate(-264.8 242.82) rotate(-34.59)"/><path class="cls-3" d="M390,433,352.5,652.5,408,649l41-39,29-184Zm21.5,187.5h-18l10-64h16Zm16-95h-18l10-64h16Z" transform="translate(-1)"/><polygon class="cls-3" points="491 437 555 435 557 421 594 404 594 428 612 429 586 465 564 604 531 638 485.5 613.5 524.5 611.5 548.5 463.5 488.37 465.94 491 437"/><ellipse class="cls-3" cx="506" cy="523" rx="29.18" ry="21.18" transform="translate(-208.47 379.73) rotate(-34.59)"/><path class="cls-3" d="M640,415s84-3,111-14a270.88,270.88,0,0,0,46-24s-23,39-47,47-114,17-114,17Z" transform="translate(-1)"/><rect class="cls-3" x="635" y="448" width="35" height="40"/><rect class="cls-3" x="678" y="443" width="35" height="40"/><polygon class="cls-3" points="730 439 766 439 752 481 718 481 730 439"/><polygon class="cls-3" points="622 506 673 502 673 490 710 490 709 496 758 496 742 521 702 525 688 625 652.5 615.5 668.5 531.5 617.5 532.5 622 506"/><path class="cls-3" d="M633.5,541.5h27s-15,67-24,76-50,16-50,16,29-26,35-41S633.5,541.5,633.5,541.5Z" transform="translate(-1)"/><rect class="cls-3" x="706.5" y="532.5" width="36" height="82"/><path class="cls-3" d="M923,340s-56-3-91,43c-24.87,32.69-44.18,83-53.28,109.45-3.8,11-6.72,22.59-6.72,34.25v35.05c0,6,1.63,11.94,2.72,17.81A59.19,59.19,0,0,1,767,621c-15,25-49,72-46,93,2.25,15.76,24.77,28.13,35.87,33.33a12.26,12.26,0,0,1,7.13,11c0,8.12-2.58,20.05-17,25.7-23,9-33,16-48,16-12.49,0-190,1.39-249.06,1.85a83.66,83.66,0,0,0-35.22,8.09C381.76,825.58,305.48,859.6,249,868c0,0,80,32,132,28s127-62,150-64c19.66-1.71,133.56-.5,166.24-.11a68,68,0,0,0,19.84-2.7c14-4.08,38.38-15,55.93-31.19,26-24,25-54,23-68s-28-27-25-57,56-40,62-73-20-93-11-113S900,350,923,340Z" transform="translate(-1)"/><text class="cls-4" transform="matrix(0.98, -0.09, -0.01, 1, 124.19, 791.69)"><tspan xml:space="preserve">  LOTTE</tspan><tspan class="cls-5" x="427.02" y="0">R</tspan><tspan class="cls-6" x="504.47" y="0">Y</tspan></text><path class="cls-3" d="M514.5,228.5v-11l-77,8L438,212l65.5-9.5.5-9.5L360,210v11l63-6-1,14-79.5,6.5v11l80-5.5-1,12.5-61,4L355,317l55-3-1,13-66,4,.5,10.5,64-4L406,347l-82.5,5.5v12l166-13,5-12-72.5,5,1-12,58.5-5,4-11-60.5,5,1-13,57.5-5,7-55-55,4L436,236Zm-103,72-44,3L368,290c2,0,45.5-2.5,45.5-2.5Zm6-25L373,279V266l45.5-2.5Zm54,19-43,4L430,285l43.5-3.5Zm4.82-36.87-.82,12.87L432,275l1.32-15.37Z" transform="translate(-1)"/><path class="cls-3" d="M616.5,179.5v23l-73,7s1,39-10,75a247.21,247.21,0,0,1-30,63h15S536,317,544,293c8.61-25.82,12-71,12-71l142.5-13.5-2-13-62,6v-24Z" transform="translate(-1)"/><path class="cls-3" d="M615.5,224.5v30L558,258.67l-.17,11.83,51.67-4-.57,7.94a18.69,18.69,0,0,1-4.44,10.82C598.32,292.49,586,306.39,575,316c-13,11.3-37.5,26.5-37.5,26.5l12,5c20.09-10.45,21.35-13.8,33-23C592,317,617,288,617,288s9.35,22.28,20,32c11.5,10.5,29.5,19.5,29.5,19.5L674,326s-15.49-9.61-25-17c-9-7-15.31-20.87-18-25-2.08-3.19-1.5-18.5-1.5-18.5l49-4,2.86-13-53.86,3v-28Z" transform="translate(-1)"/></g><path class="cls-7" d="M142,439,104.5,658.5,160,655l41-39,29-184Zm21.5,187.5h-18l10-64h16Zm16-95h-18l10-64h16Z" transform="translate(-1)"/><polygon class="cls-7" points="243 443 307 441 309 427 346 410 346 434 364 435 338 471 316 610 283 644 237.5 619.5 276.5 617.5 300.5 469.5 240.37 471.94 243 443"/><ellipse class="cls-7" cx="258" cy="529" rx="29.18" ry="21.18" transform="translate(-255.72 239.99) rotate(-34.59)"/><path class="cls-7" d="M390,417,352.5,636.5,408,633l41-39,29-184Zm21.5,187.5h-18l10-64h16Zm16-95h-18l10-64h16Z" transform="translate(-1)"/><polygon class="cls-7" points="491 421 555 419 557 405 594 388 594 412 612 413 586 449 564 588 531 622 485.5 597.5 524.5 595.5 548.5 447.5 488.37 449.94 491 421"/><ellipse class="cls-7" cx="506" cy="507" rx="29.18" ry="21.18" transform="translate(-199.39 376.9) rotate(-34.59)"/><path class="cls-8" d="M640,399s84-3,111-14a270.88,270.88,0,0,0,46-24s-23,39-47,47-114,17-114,17Z" transform="translate(-1)"/><rect class="cls-8" x="635" y="432" width="35" height="40"/><rect class="cls-8" x="678" y="427" width="35" height="40"/><polygon class="cls-8" points="730 423 766 423 752 465 718 465 730 423"/><polygon class="cls-7" points="622 490 673 486 673 474 710 474 709 480 758 480 742 505 702 509 688 609 652.5 599.5 668.5 515.5 617.5 516.5 622 490"/><path class="cls-8" d="M633.5,525.5h27s-15,67-24,76-50,16-50,16,29-26,35-41S633.5,525.5,633.5,525.5Z" transform="translate(-1)"/><rect class="cls-7" x="706.5" y="516.5" width="36" height="82"/><path class="cls-7" d="M923,324s-56-3-91,43c-24.87,32.69-44.18,83-53.28,109.45-3.8,11-6.72,22.59-6.72,34.25v35.05c0,6,1.63,11.94,2.72,17.81A59.19,59.19,0,0,1,767,605c-15,25-49,72-46,93,2.25,15.76,24.77,28.13,35.87,33.33a12.26,12.26,0,0,1,7.13,11c0,8.12-2.58,20.05-17,25.7-23,9-33,16-48,16-12.49,0-190,1.39-249.06,1.85a83.66,83.66,0,0,0-35.22,8.09C381.76,809.58,305.48,843.6,249,852c0,0,80,32,132,28s127-62,150-64c19.66-1.71,133.56-.5,166.24-.11a68,68,0,0,0,19.84-2.7c14-4.08,38.38-15,55.93-31.19,26-24,25-54,23-68s-28-27-25-57,56-40,62-73-20-93-11-113S900,334,923,324Z" transform="translate(-1)"/><text class="cls-9" transform="matrix(0.98, -0.09, -0.01, 1, 124.19, 775.69)"><tspan xml:space="preserve">  LOTTE</tspan><tspan class="cls-5" x="427.02" y="0">R</tspan><tspan class="cls-6" x="504.47" y="0">Y</tspan></text><path class="cls-8" d="M514.5,212.5v-11l-77,8L438,196l65.5-9.5.5-9.5L360,194v11l63-6-1,14-79.5,6.5v11l80-5.5-1,12.5-61,4L355,301l55-3-1,13-66,4,.5,10.5,64-4L406,331l-82.5,5.5v12l166-13,5-12-72.5,5,1-12,58.5-5,4-11-60.5,5,1-13,57.5-5,7-55-55,4L436,220Zm-103,72-44,3L368,274c2,0,45.5-2.5,45.5-2.5Zm6-25L373,263V250l45.5-2.5Zm54,19-43,4L430,269l43.5-3.5Zm4.82-36.87-.82,12.87L432,259l1.32-15.37Z" transform="translate(-1)"/><path class="cls-8" d="M616.5,163.5v23l-73,7s1,39-10,75a247.21,247.21,0,0,1-30,63h15S536,301,544,277c8.61-25.82,12-71,12-71l142.5-13.5-2-13-62,6v-24Z" transform="translate(-1)"/><path class="cls-8" d="M615.5,208.5v30L558,242.67l-.17,11.83,51.67-4-.57,7.94a18.69,18.69,0,0,1-4.44,10.82C598.32,276.49,586,290.39,575,300c-13,11.3-37.5,26.5-37.5,26.5l12,5c20.09-10.45,21.35-13.8,33-23C592,301,617,272,617,272s9.35,22.28,20,32c11.5,10.5,29.5,19.5,29.5,19.5L674,310s-15.49-9.61-25-17c-9-7-15.31-20.87-18-25-2.08-3.19-1.5-18.5-1.5-18.5l49-4,2.86-13-53.86,3v-28Z" transform="translate(-1)"/></svg>