<svg id="图层_1" data-name="图层 1" xmlns="http://www.w3.org/2000/svg" xmlns:xlink="http://www.w3.org/1999/xlink" viewBox="0 0 1024 1024"><defs><style>.cls-1{fill:url(#未命名的渐变_7);}.cls-2{opacity:0.2;}.cls-3,.cls-4{fill:#004b96;}.cls-4,.cls-9{font-size:111.93px;font-family:Archivo-SemiBold, Archivo;font-weight:700;}.cls-5{letter-spacing:-0.03em;}.cls-6{letter-spacing:-0.02em;}.cls-7{fill:#fcfcfc;}.cls-8,.cls-9{fill:#fff;}</style><linearGradient id="未命名的渐变_7" x1="512" x2="512" y2="1024" gradientUnits="userSpaceOnUse"><stop offset="0" stop-color="#91e8e4"/><stop offset="1" stop-color="#7f81d6"/></linearGradient></defs><title>快速时时彩</title><rect class="cls-1" width="1024" height="1024" rx="350" ry="350"/><g class="cls-2"><path class="cls-3" d="M142,457,104.5,676.5,160,673l41-39,29-184Zm21.5,187.5h-18l10-64h16Zm16-95h-18l10-64h16Z" transform="translate(-1)"/><polygon class="cls-3" points="243 461 307 459 309 445 346 428 346 452 364 453 338 489 316 628 283 662 237.5 637.5 276.5 635.5 300.5 487.5 240.37 489.94 243 461"/><ellipse class="cls-3" cx="258" cy="547" rx="29.18" ry="21.18" transform="translate(-265.94 243.18) rotate(-34.59)"/><path class="cls-3" d="M390,435,352.5,654.5,408,651l41-39,29-184Zm21.5,187.5h-18l10-64h16Zm16-95h-18l10-64h16Z" transform="translate(-1)"/><polygon class="cls-3" points="491 439 555 437 557 423 594 406 594 430 612 431 586 467 564 606 531 640 485.5 615.5 524.5 613.5 548.5 465.5 488.37 467.94 491 439"/><ellipse class="cls-3" cx="506" cy="525" rx="29.18" ry="21.18" transform="translate(-209.61 380.08) rotate(-34.59)"/><path class="cls-3" d="M640,417s84-3,111-14a270.88,270.88,0,0,0,46-24s-23,39-47,47-114,17-114,17Z" transform="translate(-1)"/><rect class="cls-3" x="635" y="450" width="35" height="40"/><rect class="cls-3" x="678" y="445" width="35" height="40"/><polygon class="cls-3" points="730 441 766 441 752 483 718 483 730 441"/><polygon class="cls-3" points="622 508 673 504 673 492 710 492 709 498 758 498 742 523 702 527 688 627 652.5 617.5 668.5 533.5 617.5 534.5 622 508"/><path class="cls-3" d="M633.5,543.5h27s-15,67-24,76-50,16-50,16,29-26,35-41S633.5,543.5,633.5,543.5Z" transform="translate(-1)"/><rect class="cls-3" x="706.5" y="534.5" width="36" height="82"/><path class="cls-3" d="M923,342s-56-3-91,43c-24.87,32.69-44.18,83-53.28,109.45-3.8,11-6.72,22.59-6.72,34.25v35.05c0,6,1.63,11.94,2.72,17.81A59.19,59.19,0,0,1,767,623c-15,25-49,72-46,93,2.25,15.76,24.77,28.13,35.87,33.33a12.26,12.26,0,0,1,7.13,11c0,8.12-2.58,20.05-17,25.7-23,9-33,16-48,16-12.49,0-190,1.39-249.06,1.85a83.66,83.66,0,0,0-35.22,8.09C381.76,827.58,305.48,861.6,249,870c0,0,80,32,132,28s127-62,150-64c19.66-1.71,133.56-.5,166.24-.11a68,68,0,0,0,19.84-2.7c14-4.08,38.38-15,55.93-31.19,26-24,25-54,23-68s-28-27-25-57,56-40,62-73-20-93-11-113S900,352,923,342Z" transform="translate(-1)"/><text class="cls-4" transform="matrix(0.98, -0.09, -0.01, 1, 124.19, 793.69)"><tspan xml:space="preserve">  LOTTE</tspan><tspan class="cls-5" x="427.02" y="0">R</tspan><tspan class="cls-6" x="504.47" y="0">Y</tspan></text><path class="cls-3" d="M356.57,236.74l11.34,1q-6.08,20.86-15,44.26-4.66-.91-11.16-2.05Q348.88,262.1,356.57,236.74ZM380,196.39l13-.77-6.32,37.65,7.51-4.85a186.11,186.11,0,0,1,15.58,22.8l-11.67,8.14a179.94,179.94,0,0,0-12.31-20.79L364.92,363l-13,.77Zm11.16,82.87,46.14-2.71q3.77-14.28,9-42.38l-36.25,2.13,2-12.15L448.53,222l5-29.95,13.7-.81q-2.73,16.26-5.2,30l42.33-2.49-9.14,54.42,17-1-2,12.15L454,287.6q7.7,38,45.77,53.73a190.51,190.51,0,0,0-13.84,13.86q-35.7-19.59-42.77-59.33Q426.3,335,381.63,362.68a80.76,80.76,0,0,0-8.31-10.86q45.71-26.75,60.22-63l-44.41,2.61Zm97.65-47.59-29,1.7q-4.92,27.23-8.66,42.36l30.53-1.8Z" transform="translate(-1)"/><path class="cls-3" d="M579.59,333.41q43.08-1.86,101.07-6.62-2.86,5.76-7.13,13.81-57.48,3.72-98.59,5.12-29.43,1.39-37.92-17.59-8.2,6.92-24.67,24.15l-4.73-13.78q17.71-15.44,25.71-22.18L543,258.64l-20.64,1.21,2.13-12.66,34-2-12.3,73.24Q553.95,334.75,579.59,333.41ZM552.72,188.61q7.07,10.09,18.86,30.91l-13.75,9.28q-10.4-20.9-17.44-32.18Zm32.34,41.64,43.54-2.56,2.79-16.6-51.69,3,2-11.81,51.69-3,3.13-18.65,12.84-.76-3.13,18.65,54.47-3.2-2,11.81-54.47,3.2-2.79,16.6L685,224.37l-8.25,49.11-12.49.73.89-5.3-31.05,1.83L632,283.06l5.66-7.11Q661,288.3,682.49,300.59l-10,12.62a435.88,435.88,0,0,0-41.26-25.36L625,325l-12.84.76,7.41-44.15A286.42,286.42,0,0,1,565,323.26a61.18,61.18,0,0,0-7.5-10.57q34.16-17.26,59.43-40.94l-26.71,1.57-.89,5.3-12.49.73Zm7,31.95,31.05-1.83,3.62-21.56-31.05,1.83Zm78.56-26-31.05,1.83L636,259.62,667,257.79Z" transform="translate(-1)"/></g><path class="cls-7" d="M142,439,104.5,658.5,160,655l41-39,29-184Zm21.5,187.5h-18l10-64h16Zm16-95h-18l10-64h16Z" transform="translate(-1)"/><polygon class="cls-7" points="243 443 307 441 309 427 346 410 346 434 364 435 338 471 316 610 283 644 237.5 619.5 276.5 617.5 300.5 469.5 240.37 471.94 243 443"/><ellipse class="cls-7" cx="258" cy="529" rx="29.18" ry="21.18" transform="translate(-255.72 239.99) rotate(-34.59)"/><path class="cls-7" d="M390,417,352.5,636.5,408,633l41-39,29-184Zm21.5,187.5h-18l10-64h16Zm16-95h-18l10-64h16Z" transform="translate(-1)"/><polygon class="cls-7" points="491 421 555 419 557 405 594 388 594 412 612 413 586 449 564 588 531 622 485.5 597.5 524.5 595.5 548.5 447.5 488.37 449.94 491 421"/><ellipse class="cls-7" cx="506" cy="507" rx="29.18" ry="21.18" transform="translate(-199.39 376.9) rotate(-34.59)"/><path class="cls-8" d="M640,399s84-3,111-14a270.88,270.88,0,0,0,46-24s-23,39-47,47-114,17-114,17Z" transform="translate(-1)"/><rect class="cls-8" x="635" y="432" width="35" height="40"/><rect class="cls-8" x="678" y="427" width="35" height="40"/><polygon class="cls-8" points="730 423 766 423 752 465 718 465 730 423"/><polygon class="cls-7" points="622 490 673 486 673 474 710 474 709 480 758 480 742 505 702 509 688 609 652.5 599.5 668.5 515.5 617.5 516.5 622 490"/><path class="cls-8" d="M633.5,525.5h27s-15,67-24,76-50,16-50,16,29-26,35-41S633.5,525.5,633.5,525.5Z" transform="translate(-1)"/><rect class="cls-7" x="706.5" y="516.5" width="36" height="82"/><path class="cls-7" d="M923,324s-56-3-91,43c-24.87,32.69-44.18,83-53.28,109.45-3.8,11-6.72,22.59-6.72,34.25v35.05c0,6,1.63,11.94,2.72,17.81A59.19,59.19,0,0,1,767,605c-15,25-49,72-46,93,2.25,15.76,24.77,28.13,35.87,33.33a12.26,12.26,0,0,1,7.13,11c0,8.12-2.58,20.05-17,25.7-23,9-33,16-48,16-12.49,0-190,1.39-249.06,1.85a83.66,83.66,0,0,0-35.22,8.09C381.76,809.58,305.48,843.6,249,852c0,0,80,32,132,28s127-62,150-64c19.66-1.71,133.56-.5,166.24-.11a68,68,0,0,0,19.84-2.7c14-4.08,38.38-15,55.93-31.19,26-24,25-54,23-68s-28-27-25-57,56-40,62-73-20-93-11-113S900,334,923,324Z" transform="translate(-1)"/><text class="cls-9" transform="matrix(0.98, -0.09, -0.01, 1, 124.19, 775.69)"><tspan xml:space="preserve">  LOTTE</tspan><tspan class="cls-5" x="427.02" y="0">R</tspan><tspan class="cls-6" x="504.47" y="0">Y</tspan></text><path class="cls-8" d="M356.57,218.74l11.34,1q-6.08,20.86-15,44.26-4.66-.91-11.16-2.05Q348.88,244.1,356.57,218.74ZM380,178.39l13-.77-6.32,37.65,7.51-4.85a186.11,186.11,0,0,1,15.58,22.8l-11.67,8.14a179.94,179.94,0,0,0-12.31-20.79L364.92,345l-13,.77Zm11.16,82.87,46.14-2.71q3.77-14.28,9-42.38l-36.25,2.13,2-12.15L448.53,204l5-29.95,13.7-.81q-2.73,16.26-5.2,30l42.33-2.49-9.14,54.42,17-1-2,12.15L454,269.6q7.7,38,45.77,53.73a190.51,190.51,0,0,0-13.84,13.86q-35.7-19.59-42.77-59.33Q426.3,317,381.63,344.68a80.76,80.76,0,0,0-8.31-10.86q45.71-26.75,60.22-63l-44.41,2.61Zm97.65-47.59-29,1.7q-4.92,27.23-8.66,42.36l30.53-1.8Z" transform="translate(-1)"/><path class="cls-8" d="M579.59,315.41q43.08-1.86,101.07-6.62-2.86,5.76-7.13,13.81-57.48,3.72-98.59,5.12-29.43,1.39-37.92-17.59-8.2,6.92-24.67,24.15l-4.73-13.78q17.71-15.44,25.71-22.18L543,240.64l-20.64,1.21,2.13-12.66,34-2-12.3,73.24Q553.95,316.75,579.59,315.41ZM552.72,170.61q7.07,10.09,18.86,30.91l-13.75,9.28q-10.4-20.9-17.44-32.18Zm32.34,41.64,43.54-2.56,2.79-16.6-51.69,3,2-11.81,51.69-3,3.13-18.65,12.84-.76-3.13,18.65,54.47-3.2-2,11.81-54.47,3.2-2.79,16.6L685,206.37l-8.25,49.11-12.49.73.89-5.3-31.05,1.83L632,265.06l5.66-7.11Q661,270.3,682.49,282.59l-10,12.62a435.88,435.88,0,0,0-41.26-25.36L625,307l-12.84.76,7.41-44.15A286.42,286.42,0,0,1,565,305.26a61.18,61.18,0,0,0-7.5-10.57q34.16-17.26,59.43-40.94l-26.71,1.57-.89,5.3-12.49.73Zm7,31.95,31.05-1.83,3.62-21.56-31.05,1.83Zm78.56-26-31.05,1.83L636,241.62,667,239.79Z" transform="translate(-1)"/></svg>