<svg id="图层_1" data-name="图层 1" xmlns="http://www.w3.org/2000/svg" xmlns:xlink="http://www.w3.org/1999/xlink" viewBox="0 0 1024 1024"><defs><style>.cls-1{fill:url(#未命名的渐变_3);}.cls-2{fill:#fff;}</style><linearGradient id="未命名的渐变_3" x1="512" y1="1024" x2="512" gradientUnits="userSpaceOnUse"><stop offset="0.2" stop-color="#2c6ab4"/><stop offset="0.89" stop-color="#24baee"/></linearGradient></defs><title>香港赛马</title><rect class="cls-1" width="1024" height="1024" rx="350" ry="350"/><path class="cls-2" d="M106.72,706.12c8.62-17.24,60.25-3.19,69.73-.44a2.45,2.45,0,0,0,2.54-.76l19.28-22a2.48,2.48,0,0,1,4.15,2.6C199.33,693,199,697,199.5,699a2.48,2.48,0,0,0,3.59,1.59c20.62-11.47,43.38-49,54.09-68.3a2.48,2.48,0,0,1,4.63,1.47c-1.76,18.7,1.6,15.34,1.6,15.34,13.64-4.55,27.29-43.94,28.41-47.26a2,2,0,0,0,.11-.47c.23-2,.5-3.89.79-5.74,10.14-64.75,53.06-58.78,63.4-56.35a2.49,2.49,0,0,1,1.85,2.86c-9.42,53.72,10,78.28,21.4,87.72a7.76,7.76,0,0,1,.45,11.63c-68.63,64.89-64.18,69.34-64.18,69.34l-4.56,54.72a11.77,11.77,0,0,1-1.21,4.3C291.05,807.13,280,818,274.09,820.65A8.29,8.29,0,0,0,269,829l3.73,26.69a2.49,2.49,0,0,0,2.47,2.26c1.37,0,2.88-1,2.88-2.41,0-3.2.88-3.44,3.12-5.72,43-43.73,25.34-40.53,39.22-91.42,14.24-52.23,38-52.23,90.22-76,49.08-22.31,60.43-40.44,73.44-70.13.05-.13.1-.26.14-.4a101,101,0,0,0,2.41-11.28c1.31-6.53,2.57-13.06,3.38-19.67,1.22-6.53,1.42-13.17,2-19.79a.86.86,0,0,0,0-.16,188.28,188.28,0,0,0-2.82-39.79c-2.39-13.12-6.1-26.18-12.31-38.08a.27.27,0,0,1,.08-.34.24.24,0,0,1,.32.09c6.83,11.7,11.19,24.67,14.24,37.86a192.29,192.29,0,0,1,4.29,40.42c-.1,2.13-.16,4.27-.22,6.4.7-2.15,1.4-4.31,2.23-6.43,4.45-11,11.13-21.26,20.26-29.08a70.8,70.8,0,0,1,31.86-15.37,96,96,0,0,1,17.52-2.07l17.38-.08q17.29-.12,34.55-1.4a292.38,292.38,0,0,0,34.26-4.45,147.87,147.87,0,0,0,16.73-4.23c5.41-1.84,11-3.89,15.45-7.37l0,0a.23.23,0,0,1,.32,0,.24.24,0,0,1,0,.34c-4.58,3.74-10,5.91-15.48,7.93A151.84,151.84,0,0,1,654,510a293.21,293.21,0,0,1-34.35,5.43q-17.31,1.63-34.7,2.12l-17.3.43a91.21,91.21,0,0,0-16.82,2.34,66.58,66.58,0,0,0-29.59,15.19,77.45,77.45,0,0,0-19,27.37,114.05,114.05,0,0,0-7.4,24.17,2.48,2.48,0,0,0,4.05,2.34c17.61-15.69,42.95-16.23,44.62-16.25h.19c133.64-12.17,167.05-62.34,174-76.79a2.47,2.47,0,0,0-2.35-3.52c-3.43.1-6.87.08-10.32,0-4.76-.11-9.48-.89-14.22-1.43a139.84,139.84,0,0,1-13.84-3.29l-.25-.08L670,485.56a46.88,46.88,0,0,1-6.6-2.87A70.13,70.13,0,0,1,640.12,466c-1.59-1.74-2.92-3.72-4.33-5.59l-.15-.23a50.91,50.91,0,0,1-3.37-6.19,35.47,35.47,0,0,1-3.48-13.8.24.24,0,0,1,.47,0v0a34.64,34.64,0,0,0,4.29,13.16,47.34,47.34,0,0,0,3.63,5.73c.06.08.11.16.18.24,1.48,1.7,2.87,3.5,4.49,5.06A67.22,67.22,0,0,0,665,479.22a44.26,44.26,0,0,0,6.51,2.35l6.52,2,.18.05,6.69,1.53c2.25.52,4.44,1.31,6.75,1.62l13.71,2.8c4.62.75,9.25,1.54,13.9,2.62a.27.27,0,0,1,.2.22s0,0-.05.06c52.18,14.09,104.3-38,104.3-28.53s4.75,19-19,38c-17.68,14.14-24.83,9.85-27.32,6.74a2.47,2.47,0,0,0-3.38-.37c-40.7,30.27-38.7,48.12-36.67,53.56a2.48,2.48,0,0,0,2.69,1.53c65-9.92,83.84-47.43,102.66-71,16-20,11.8-39.95,10.07-45.78a2.5,2.5,0,0,0-2.27-1.79c-88.34-4.78-74.27-14.16-74.27-14.16s.11-.2.17-.3a31,31,0,0,1-11.93-6.48c-4.7-3.86-8.07-8.9-11.22-13.85A151,151,0,0,1,738,378.58a.26.26,0,0,1,.13-.3.23.23,0,0,1,.31.12c2.51,5.22,5.33,10.29,8.32,15.21a143.68,143.68,0,0,0,9.58,14.3c3.41,4.59,7.49,8.54,11.31,12.52a61.49,61.49,0,0,0,7.21,6.38,2.53,2.53,0,0,0,3.86-1.11c11.36-30.61-31.52-90.72-40.5-104.19-6.73-10.09-8.69-44-9.26-62.95a2.48,2.48,0,0,1,4.67-1.24c15.05,29.07,38.33,21.46,42.58,21.46,4.48,0,34.36,25.4,37.68,28.23a2.43,2.43,0,0,0,.76.44c2.06.72,10.87,2.74,23.29-9.68,13.07-13.08,2.14-26.15.26-28.21a2.41,2.41,0,0,0-.56-.45c-3.31-2-33.21-20.4-37.69-47.31-4.1-24.59-25.88-42.1-31.77-46.44a2.48,2.48,0,0,1-.89-2.78l3.08-9.24a2.48,2.48,0,0,0-2.35-3.27H738.41a2.07,2.07,0,0,0-.35,0c-29,3.68-77.29,23.87-98.5,33.21a2.48,2.48,0,0,0,1,4.75h15.67a2.48,2.48,0,0,1,1.08,4.72c-9.6,4.59-24.12,11.3-33.05,14.27-14.25,4.75-57,33.24-47.49,28.49,4.67-2.33,18.49-4.66,31.36-6.43a2.48,2.48,0,0,1,1.19,4.79c-6.31,2.3-11.82,4.66-13.55,6.39C591,255,562.55,255,567.3,259.79s61.72-9.5,47.48-4.75c-13.81,4.6-23.15,27-23.72,28.42a.78.78,0,0,1,0,.14c-12.43,37.27-22.82,48.09-28.51,51.12a2.47,2.47,0,0,0,.07,4.35,23.72,23.72,0,0,0,19,1.44c14.25-4.75,42.74-57,38-38-4,15.81-21.07,44.78-26.69,54.05a2.48,2.48,0,0,0,3.24,3.5c6.54-3.18,17.39-15.1,24.84-23.89a2.49,2.49,0,0,1,4.24,2.44c-20.67,60.51-63.23,106.94-143.33,115.84-77.29,8.59-111.86,56-117.78,65a2.45,2.45,0,0,1-2.68,1C245.57,490.8,201.52,628.86,197.28,643.2a2.47,2.47,0,0,1-1.56,1.62C87.8,682.7,97.26,725,106.72,706.12ZM833.87,275.81c.2-.5,1.58-.42,3.07.17s2.56,1.49,2.36,2-1.58.42-3.07-.18S833.67,276.31,833.87,275.81Zm-64.29-62.35c.48-1.21,3.88-1,7.59.47s6.32,3.66,5.83,4.88-3.88,1-7.59-.47S769.09,214.68,769.58,213.46Zm-79.06,8.29a.23.23,0,0,1,.27-.19.24.24,0,0,1,.2.27v0c-2.4,14.9-1.4,30.17,1.28,44.92a183.45,183.45,0,0,0,13.52,42.7l.08.15c3.49,6.61,6.61,13.39,10.79,19.59,3.74,6.49,8.1,12.57,12.39,18.7a93.67,93.67,0,0,0,6.68,9c2.29,2.94,4.66,5.83,6.89,8.84l.08.11c4.82,5.74,9.93,11.25,14.7,17.16a.27.27,0,0,1,0,.32.24.24,0,0,1-.34,0c-5.73-5-11.46-10-16.88-15.35-2.61-2.77-5.09-5.67-7.64-8.51a94.86,94.86,0,0,1-7.31-8.81l-6.72-9.3c-2.23-3.11-3.93-6.57-5.91-9.83-4-6.5-6.94-13.58-10.22-20.44l-.06-.14a186.82,186.82,0,0,1-12.41-43.87C687.82,252.09,687.47,236.67,690.52,221.75ZM586.2,454.25a116.08,116.08,0,0,0,45.24-41.53c11.3-17.28,19.19-36.74,24.76-56.8a338.5,338.5,0,0,0,10.14-61.78,420.83,420.83,0,0,0,.43-62.82.24.24,0,0,1,.48,0,423.67,423.67,0,0,1,1.46,63,342.33,342.33,0,0,1-8.83,62.57c-5.14,20.43-12.23,40.88-24.49,58.49-6.17,8.68-13.1,17-21.5,23.6a98.25,98.25,0,0,1-27.51,15.72.23.23,0,0,1-.29-.12A.23.23,0,0,1,586.2,454.25Z" transform="translate(0 0)"/><path class="cls-2" d="M615.61,660.73h71.33c2.56,0,3.91,2.08,3,4.65l-7.74,21.91a7.26,7.26,0,0,1-6.31,4.65l-38.82-.1c-2.57,0-3.91-2.09-3-4.65l5-14.1c.91-2.57-.44-4.65-3-4.65H515.26a7.24,7.24,0,0,0-6.29,4.65l-4.8,13.58a7.26,7.26,0,0,1-6.3,4.65H460c-2.57,0-3.92-2.08-3-4.65l7.53-21.29a7.24,7.24,0,0,1,6.29-4.65h68.55" transform="translate(0 0)"/><path class="cls-2" d="M513.93,820q39.36,6.32,94.88,25.91l6.19,2.53c1.28.42,1.6,1.56.94,3.41q-1.34,3.79-4.29,3.54a2.56,2.56,0,0,1-1.38-.38l-5.39-2.27q-5.43-2.16-38.25-13a293.76,293.76,0,0,0-59.7-13.53q-17.22,11.88-29.36,16.18-18,6.45-46.43,10.49-18.64,2.65-23.19,2.66-5.82,0-4.61-3.41,1.07-3,5.21-3.67l28.28-4.17q44.64-6.82,61.62-19.47,18.93-13.14,29.18-38.94,2.13-5.31,5.42-5.31c2.86,0,3.64,1.86,2.33,5.56a61.37,61.37,0,0,1-3.82,7.59q-6.76,12-8.68,14.92Q520.31,812.3,513.93,820Z" transform="translate(0 0)"/><path class="cls-2" d="M657.42,777.79q-1-1.77-11.14-3.54-17.29-2.91-28.63-11.63a66.86,66.86,0,0,1-8.4-8.27c-1.91-2.18,1.16-6.52,4.61-6.52h49a5.71,5.71,0,0,0,5-3.73l.13-.38c.68-2-.39-3.6-2.39-3.6H613.85c-2,0-3.09-1.64-2.37-3.67l2.45-7a5.73,5.73,0,0,1,5-3.67h16.69a5.71,5.71,0,0,0,5-3.66l.06-.17c.71-2-.33-3.64-2.33-3.66l-16.7-.18c-2,0-3-1.66-2.33-3.67l2.38-6.74a5.71,5.71,0,0,1,5-3.66h25.91a5.73,5.73,0,0,0,5-3.67h0c.71-2-.35-3.66-2.37-3.66H629.17c-2,0-3.08-1.65-2.37-3.67l2.73-7.71c.71-2-.35-3.67-2.37-3.67H587.08a5.7,5.7,0,0,0-5,3.67l-2.73,7.71a5.72,5.72,0,0,1-5,3.67H556.35c-2,0-3.08-1.65-2.37-3.67l2.73-7.71c.71-2-.35-3.67-2.37-3.67H514.2a5.73,5.73,0,0,0-5,3.73l-2.51,7.47a5.7,5.7,0,0,1-5,3.73l-27.05.1a5.72,5.72,0,0,0-4.95,3.67h0c-.71,2,.35,3.67,2.37,3.67h26.8c2,0,3.09,1.64,2.38,3.66l-2.37,6.71a5.73,5.73,0,0,1-5,3.66h-17.2a5.73,5.73,0,0,0-5,3.67l-.13.38c-.72,2,.34,3.66,2.37,3.66h17.19c2,0,3.09,1.64,2.37,3.67l-2.46,7a5.7,5.7,0,0,1-5,3.67H432.81a5.73,5.73,0,0,0-5,3.66l-.13.38c-.72,2,.34,3.67,2.37,3.67h46.23c3.51,0,3.44,4.48-.11,6.59A133.58,133.58,0,0,1,428,771.94l-.47,0q-15.21.75-16.53,1.63a5.39,5.39,0,0,0-2,2.78q-1.42,4.05,5.14,4.05,15.3,0,35.92-6.83c.37-.13.8-.29,1.3-.49,2.82-1.09,4.95.67,4,3.34l-15.61,44.18c-.72,2,.34,3.66,2.37,3.66h38.94a5.73,5.73,0,0,0,5-3.66l15-42.35a5.7,5.7,0,0,1,5-3.67h66.24c2,0,3.09,1.64,2.37,3.67l-14.83,42c-.72,2,.34,3.67,2.37,3.67h37.42a5.73,5.73,0,0,0,5-3.67l14.37-40.66c.92-2.59,4.17-4.36,6.23-3.4q16.06,7.53,25.69,7.52c3.62,0,5.84-1.14,6.64-3.41A2.87,2.87,0,0,0,657.42,777.79Zm-103.66-73.7h18.08c2,0,3.08,1.64,2.37,3.66l-2.37,6.71a5.72,5.72,0,0,1-5,3.66H548.8c-2,0-3.08-1.64-2.37-3.66l2.37-6.71A5.72,5.72,0,0,1,553.76,704.09Zm-7.68,21.74h18.07c2,0,3.09,1.64,2.37,3.67l-2.45,7a5.73,5.73,0,0,1-5,3.67H541c-2,0-3.09-1.64-2.37-3.67l2.45-7A5.73,5.73,0,0,1,546.08,725.83Zm-67.7,34.55A139.06,139.06,0,0,0,496,749.19a5,5,0,0,1,3-1.11l92.46-.25a2.5,2.5,0,0,1,2.26,1.17,65.84,65.84,0,0,0,8.64,11.7c2,2.16-1,6.58-4.55,6.58l-119.72-.21C474.48,767.06,474.69,762.4,478.38,760.38Z" transform="translate(0 0)"/><path class="cls-2" d="M670.05,793.21l.08-.25a5.73,5.73,0,0,1,5-3.66H812.39c2,0,3.09,1.64,2.37,3.66l-.09.25a5.71,5.71,0,0,1-5,3.67H672.42C670.39,796.88,669.33,795.24,670.05,793.21ZM726.29,644.8h0a5.73,5.73,0,0,1,5-3.67H940c2,0,3.09,1.64,2.38,3.67l-29.67,83.94a5.73,5.73,0,0,1-5,3.67h-53.1c-2,0-3.09-1.64-2.37-3.67l27.08-76.61c.71-2-.35-3.67-2.37-3.67H728.66C726.64,648.46,725.58,646.82,726.29,644.8ZM698.57,747.2,724.08,675a5.73,5.73,0,0,1,5-3.66h52.71c2,0,3.09,1.64,2.37,3.66l-22.78,64.48c-.72,2,.34,3.66,2.37,3.66H913.27c2,0,3.09,1.64,2.37,3.67l-17,48q-9.57,27-43.94,43.11a176.69,176.69,0,0,1-39.45,12.89q-15.57,3.28-24.42,3.29-5.31,0-4.15-3.29t11.15-9.35Q820,828.87,832.48,794l13.94-39.44c.72-2-.34-3.67-2.37-3.67H700.94C698.92,750.86,697.86,749.22,698.57,747.2Z" transform="translate(0 0)"/><ellipse class="cls-2" cx="581.48" cy="650.19" rx="20.26" ry="14.26" transform="translate(-281.87 525.73) rotate(-39.99)"/><path class="cls-2" d="M119.7,415.54,138,324.81q-7.63,3.29-15.61,6.16a273.71,273.71,0,0,0-9.56-25.86,283.07,283.07,0,0,0,69.08-25.45H125.57L130,257.9h80.88l2.9-14.37q-32.38,1.23-66.47,1.85.39-11.08.2-22.38,92.29-1.63,164.8-7l1,21.76q-34.52,2.67-71.32,4.52l-3.15,15.6h81.7l-4.39,21.76H257.35q25.08,15.6,61,22-10.22,12.93-19.26,26.27-7.41-2.46-14.1-5.44l-18.78,93.09H238.75l1.74-8.62H149l-1.74,8.62ZM152.93,318H275.57q-25.9-13-42.37-32.64l-5.55,27.51H199.73l5.39-26.69A295.94,295.94,0,0,1,152.93,318Zm.37,67.33h91.54l2.61-12.94H155.91Zm100.78-45.78H162.53l-2.61,12.93h91.55Z" transform="translate(0 0)"/><path class="cls-2" d="M341,330.15a195.08,195.08,0,0,0,24.53,9.65q-13.94,30.38-32.86,75.33-12.39-4.72-25.39-8.42Q318.94,384.35,341,330.15Zm6.72-61.78a352.19,352.19,0,0,1,27.21,25.86l-23.19,21.35q-5.08-6.36-25-28.53Zm16.56-53.58q14.72,12.53,26.47,24.43l-23.8,20.32a352.14,352.14,0,0,0-23.85-27.3Zm115.48-.61H506l-3.89,19.29h24.83l-4.39,21.76H497.72L494,273.5h35.1l-4.39,21.76H491.9q11.24,16,32.25,28.32-9.46,11.3-19.63,26.07a108.08,108.08,0,0,1-21.47-20.73l-8.16,40.44H403.46l-1.78,8.82q-2,9.85,7.45,9.86h55.22q7.78,0,11.51-5.19T484.77,354a141.88,141.88,0,0,0,24.65,11.09q-8.71,29.44-18.88,38.64t-29,9.18H395.91q-27.11,0-21.63-27.09l8-39.52q-4.69,3.39-9.56,6.68a218.29,218.29,0,0,0-11.78-25.05,205.16,205.16,0,0,0,44.36-32.63h-30l4.39-21.76h30.79l3.68-18.27h-23l4.39-21.76h23l3.89-19.29h26.27l-3.89,19.29h31ZM453.66,348.42,457,332H411l-3.32,16.42Zm-32-37.36h50a111.08,111.08,0,0,1-6.76-15.8H434.42A176.32,176.32,0,0,1,421.69,311.06Zm15.07-37.56h31l3.68-18.27h-31Z" transform="translate(0 0)"/></svg>