<svg id="图层_1" data-name="图层 1" xmlns="http://www.w3.org/2000/svg" xmlns:xlink="http://www.w3.org/1999/xlink" viewBox="0 0 1024 1024"><defs><style>.cls-1{fill:url(#未命名的渐变_7);}.cls-2{opacity:0.2;}.cls-3,.cls-4{fill:#bf0020;}.cls-4,.cls-9{font-size:111.93px;font-family:Archivo-SemiBold, Archivo;font-weight:700;}.cls-5{letter-spacing:-0.03em;}.cls-6{letter-spacing:-0.02em;}.cls-7{fill:#fcfcfc;}.cls-8,.cls-9{fill:#fff;}</style><linearGradient id="未命名的渐变_7" x1="512" x2="512" y2="1024" gradientUnits="userSpaceOnUse"><stop offset="0" stop-color="#ee0979"/><stop offset="1" stop-color="#ff6a00"/></linearGradient></defs><title>分分时时彩图标</title><rect class="cls-1" width="1024" height="1024" rx="350" ry="350"/><g class="cls-2"><path class="cls-3" d="M142,454,104.5,673.5,160,670l41-39,29-184Zm21.5,187.5h-18l10-64h16Zm16-95h-18l10-64h16Z" transform="translate(-1)"/><polygon class="cls-3" points="243 458 307 456 309 442 346 425 346 449 364 450 338 486 316 625 283 659 237.5 634.5 276.5 632.5 300.5 484.5 240.37 486.94 243 458"/><ellipse class="cls-3" cx="258" cy="544" rx="29.18" ry="21.18" transform="translate(-264.23 242.65) rotate(-34.59)"/><path class="cls-3" d="M390,432,352.5,651.5,408,648l41-39,29-184Zm21.5,187.5h-18l10-64h16Zm16-95h-18l10-64h16Z" transform="translate(-1)"/><polygon class="cls-3" points="491 436 555 434 557 420 594 403 594 427 612 428 586 464 564 603 531 637 485.5 612.5 524.5 610.5 548.5 462.5 488.37 464.94 491 436"/><ellipse class="cls-3" cx="506" cy="522" rx="29.18" ry="21.18" transform="translate(-207.9 379.55) rotate(-34.59)"/><path class="cls-3" d="M640,414s84-3,111-14a270.88,270.88,0,0,0,46-24s-23,39-47,47-114,17-114,17Z" transform="translate(-1)"/><rect class="cls-3" x="635" y="447" width="35" height="40"/><rect class="cls-3" x="678" y="442" width="35" height="40"/><polygon class="cls-3" points="730 438 766 438 752 480 718 480 730 438"/><polygon class="cls-3" points="622 505 673 501 673 489 710 489 709 495 758 495 742 520 702 524 688 624 652.5 614.5 668.5 530.5 617.5 531.5 622 505"/><path class="cls-3" d="M633.5,540.5h27s-15,67-24,76-50,16-50,16,29-26,35-41S633.5,540.5,633.5,540.5Z" transform="translate(-1)"/><rect class="cls-3" x="706.5" y="531.5" width="36" height="82"/><path class="cls-3" d="M923,339s-56-3-91,43c-24.87,32.69-44.18,83-53.28,109.45-3.8,11-6.72,22.59-6.72,34.25v35.05c0,6,1.63,11.94,2.72,17.81A59.19,59.19,0,0,1,767,620c-15,25-49,72-46,93,2.25,15.76,24.77,28.13,35.87,33.33a12.26,12.26,0,0,1,7.13,11c0,8.12-2.58,20.05-17,25.7-23,9-33,16-48,16-12.49,0-190,1.39-249.06,1.85a83.66,83.66,0,0,0-35.22,8.09C381.76,824.58,305.48,858.6,249,867c0,0,80,32,132,28s127-62,150-64c19.66-1.71,133.56-.5,166.24-.11a68,68,0,0,0,19.84-2.7c14-4.08,38.38-15,55.93-31.19,26-24,25-54,23-68s-28-27-25-57,56-40,62-73-20-93-11-113S900,349,923,339Z" transform="translate(-1)"/><path class="cls-3" d="M588,181l15,3s-44,65-74,82l-10-11S572,211,588,181Z" transform="translate(-1)"/><path class="cls-3" d="M628,183s8,39,46.5,70.5l16-14s-23-5-47-63Z" transform="translate(-1)"/><path class="cls-3" d="M543.44,255.32,656.5,247.5s-8,70-24,84-51,12-51,12l-2-16s42,2,48-14,11-50,11-50l-52,3s-7,41-31,62-40,25-40,25l-5-13s26-14,37-27,21-44,21-44l-27,1Z" transform="translate(-1)"/><path class="cls-3" d="M408,191l15,3s-44,65-74,82l-10-11S392,221,408,191Z" transform="translate(-1)"/><path class="cls-3" d="M448,193s8,39,46.5,70.5l16-14s-23-5-47-63Z" transform="translate(-1)"/><path class="cls-3" d="M363.44,265.32,476.5,257.5s-8,70-24,84-51,12-51,12l-2-16s42,2,48-14,11-50,11-50l-52,3s-7,41-31,62-40,25-40,25l-5-13s26-14,37-27,21-44,21-44l-27,1Z" transform="translate(-1)"/><text class="cls-4" transform="matrix(0.98, -0.09, -0.01, 1, 124.19, 790.69)"><tspan xml:space="preserve">  LOTTE</tspan><tspan class="cls-5" x="427.02" y="0">R</tspan><tspan class="cls-6" x="504.47" y="0">Y</tspan></text></g><path class="cls-7" d="M142,439,104.5,658.5,160,655l41-39,29-184Zm21.5,187.5h-18l10-64h16Zm16-95h-18l10-64h16Z" transform="translate(-1)"/><polygon class="cls-7" points="243 443 307 441 309 427 346 410 346 434 364 435 338 471 316 610 283 644 237.5 619.5 276.5 617.5 300.5 469.5 240.37 471.94 243 443"/><ellipse class="cls-7" cx="258" cy="529" rx="29.18" ry="21.18" transform="translate(-255.72 239.99) rotate(-34.59)"/><path class="cls-7" d="M390,417,352.5,636.5,408,633l41-39,29-184Zm21.5,187.5h-18l10-64h16Zm16-95h-18l10-64h16Z" transform="translate(-1)"/><polygon class="cls-7" points="491 421 555 419 557 405 594 388 594 412 612 413 586 449 564 588 531 622 485.5 597.5 524.5 595.5 548.5 447.5 488.37 449.94 491 421"/><ellipse class="cls-7" cx="506" cy="507" rx="29.18" ry="21.18" transform="translate(-199.39 376.9) rotate(-34.59)"/><path class="cls-8" d="M640,399s84-3,111-14a270.88,270.88,0,0,0,46-24s-23,39-47,47-114,17-114,17Z" transform="translate(-1)"/><rect class="cls-8" x="635" y="432" width="35" height="40"/><rect class="cls-8" x="678" y="427" width="35" height="40"/><polygon class="cls-8" points="730 423 766 423 752 465 718 465 730 423"/><polygon class="cls-7" points="622 490 673 486 673 474 710 474 709 480 758 480 742 505 702 509 688 609 652.5 599.5 668.5 515.5 617.5 516.5 622 490"/><path class="cls-8" d="M633.5,525.5h27s-15,67-24,76-50,16-50,16,29-26,35-41S633.5,525.5,633.5,525.5Z" transform="translate(-1)"/><rect class="cls-7" x="706.5" y="516.5" width="36" height="82"/><path class="cls-7" d="M923,324s-56-3-91,43c-24.87,32.69-44.18,83-53.28,109.45-3.8,11-6.72,22.59-6.72,34.25v35.05c0,6,1.63,11.94,2.72,17.81A59.19,59.19,0,0,1,767,605c-15,25-49,72-46,93,2.25,15.76,24.77,28.13,35.87,33.33a12.26,12.26,0,0,1,7.13,11c0,8.12-2.58,20.05-17,25.7-23,9-33,16-48,16-12.49,0-190,1.39-249.06,1.85a83.66,83.66,0,0,0-35.22,8.09C381.76,809.58,305.48,843.6,249,852c0,0,80,32,132,28s127-62,150-64c19.66-1.71,133.56-.5,166.24-.11a68,68,0,0,0,19.84-2.7c14-4.08,38.38-15,55.93-31.19,26-24,25-54,23-68s-28-27-25-57,56-40,62-73-20-93-11-113S900,334,923,324Z" transform="translate(-1)"/><path class="cls-8" d="M588,166l15,3s-44,65-74,82l-10-11S572,196,588,166Z" transform="translate(-1)"/><path class="cls-8" d="M628,168s8,39,46.5,70.5l16-14s-23-5-47-63Z" transform="translate(-1)"/><path class="cls-8" d="M543.44,240.32,656.5,232.5s-8,70-24,84-51,12-51,12l-2-16s42,2,48-14,11-50,11-50l-52,3s-7,41-31,62-40,25-40,25l-5-13s26-14,37-27,21-44,21-44l-27,1Z" transform="translate(-1)"/><path class="cls-8" d="M408,176l15,3s-44,65-74,82l-10-11S392,206,408,176Z" transform="translate(-1)"/><path class="cls-8" d="M448,178s8,39,46.5,70.5l16-14s-23-5-47-63Z" transform="translate(-1)"/><path class="cls-8" d="M363.44,250.32,476.5,242.5s-8,70-24,84-51,12-51,12l-2-16s42,2,48-14,11-50,11-50l-52,3s-7,41-31,62-40,25-40,25l-5-13s26-14,37-27,21-44,21-44l-27,1Z" transform="translate(-1)"/><text class="cls-9" transform="matrix(0.98, -0.09, -0.01, 1, 124.19, 775.69)"><tspan xml:space="preserve">  LOTTE</tspan><tspan class="cls-5" x="427.02" y="0">R</tspan><tspan class="cls-6" x="504.47" y="0">Y</tspan></text></svg>