<svg id="图层_1" data-name="图层 1" xmlns="http://www.w3.org/2000/svg" xmlns:xlink="http://www.w3.org/1999/xlink" viewBox="0 0 1024 1024"><defs><style>.cls-1{fill:url(#未命名的渐变_6);}.cls-2{fill:#fff;}.cls-3{opacity:0;}.cls-4{fill:#050101;}</style><linearGradient id="未命名的渐变_6" x1="512" y1="1024" x2="512" gradientUnits="userSpaceOnUse"><stop offset="0" stop-color="#57a434"/><stop offset="1" stop-color="#a2cd64"/></linearGradient></defs><title>常玩彩票</title><rect class="cls-1" width="1024" height="1024" rx="350" ry="350"/><path class="cls-2" d="M565.46,248.48h28.88V280h25.48l-6.67-5.69q14.22-12.9,27.13-26.25l20.78,14.87q-8.53,8.1-18.6,17.07h40.47v48.34H656.25V303.16H504v25.16H477.31V280h39.26q-8.09-9-16.29-17.07L518.87,248q13.13,11.6,26,24.94l-8.75,7h29.31ZM518,451H489.12V381.26h76.13V369h-53.6V315.19H648.59V369H595v12.25h78.09v42.87a33.36,33.36,0,0,1-2.57,13.78,20.81,20.81,0,0,1-7.71,9,25.71,25.71,0,0,1-11,4q-5.91.72-32,.71-2.4-10.94-6.78-24.71,11.27.64,21.55.65,9.74,0,9.73-11.59v-11.6H595v59.5H565.25v-59.5H518Zm20.34-102.16H621.9V335.32H538.34Z" transform="translate(0 0)"/><path class="cls-2" d="M701.09,438.13,695,408.82q13.45-2.52,25.6-5.14V353.26H701.09v-26h19.47V285.88H698.9V259.41h72.19v26.47H749v41.35h20.56v26H749v44q13-3.18,24.06-6.35a257.18,257.18,0,0,0-.22,28Q740,427,701.09,438.13Zm74.37-117.9H908V349.1H872.81v71.31q0,10.06,7.22,10.07a6.5,6.5,0,0,0,6-3.5q2-3.51,3.66-35.88,14.65,5.68,22.75,7.88-3.82,43.53-11.59,51.51a25.29,25.29,0,0,1-18.81,8H870.07q-25.7,0-25.7-28.22V349.1H825.23q1.63,84.33-52.17,115.5a173.75,173.75,0,0,0-20.56-24.94q46-25,45-90.56h-22ZM786.4,259H897.09v28.87H786.4Z" transform="translate(0 0)"/><path class="cls-2" d="M306.68,701.52h47.9V686.86h28.88v14.66h44v26.25h-44v6.78q24.93,13.79,46.59,27.34l-17.5,24.5q-15.32-12-29.09-22.09v54.25H354.58V757.08a229,229,0,0,1-35.87,45.5q-8.1-13.33-16.85-25.59,26.25-23.85,43.53-49.22H306.68Zm19.25-52.28q9.4,14.65,19,32.81l-22.1,11.16q-8.52-17.94-17.5-33.69Zm-18.38-32.16q55.35-2.19,112.44-7.44L423.71,635q-60.82,5.25-111.35,8.09Q310.83,631.74,307.55,617.08Zm57.75,23.19q10.27,16.18,18.16,30.84l-21.88,10.28q-6.78-13.33-17.5-31.71Zm40.47-1.53,23.41,9.4q-11.39,21.45-24.94,43.54l-21.66-11.16A451.41,451.41,0,0,0,405.77,638.74ZM499,731.05l22.75,18.38q-38.28,44.63-83.57,70.21A298.92,298.92,0,0,0,418,792.74Q463.74,770.65,499,731.05Zm-6.35-128.19,21.44,18.38A385,385,0,0,1,448.43,677q-9.63-12.9-20.57-25.16A224.66,224.66,0,0,0,492.61,602.86Zm5,62.13,21.44,19q-33.25,36.75-69.56,60.81A240.8,240.8,0,0,0,428.74,721Q466.59,700.65,497.64,665Z" transform="translate(0 0)"/><path class="cls-2" d="M528.27,746.8H745.71v23.41H655.14v23.4q0,10.93-5.41,16.74t-16.79,6.45q-11.37.66-31.39.66Q598.7,803,595.86,793q12.25.64,22.1.65,7.65,0,7.65-9.4v-14H589.08l14,18.81-60.15,27.56a276,276,0,0,0-15.54-24.06q19.14-5.58,56.55-22.31H528.27Zm13.34-100.19h54V633.05H534V610.3H739.8v22.75H678.55v13.56H732.8v57.1H541.61Zm2.19,67.6H730.18v21.65H543.8Zm26-31.5h25.81v-15.1H569.83Zm54.25-36.1h26V633.05h-26Zm0,36.1h26v-15.1h-26Zm57.53,88.15q27.57,9.42,61.91,21.88l-12.91,23q-26.25-11.16-61.25-24.28Zm23-88.15v-15.1h-26v15.1Z" transform="translate(0 0)"/><g class="cls-3"><path class="cls-4" d="M336.15,185.1c-14.76-9.35-34.42-7-51.93,4.26-17.51-11.25-37.18-13.61-51.94-4.26-23,14.59-25.39,52.11-5.3,83.81,13.39,21.13,33.4,34.32,52.07,36.45l1.48.16.73,0c.59,0,1.18.08,1.78.09h2.36c.59,0,1.19,0,1.78-.09l.72,0,1.49-.16c18.67-2.13,38.67-15.32,52.07-36.45C361.55,237.21,359.17,199.69,336.15,185.1Z" transform="translate(0 0)"/></g><path class="cls-2" d="M336.15,185.1c-14.76-9.35-34.42-7-51.93,4.26-17.51-11.25-37.18-13.61-51.94-4.26-23,14.59-25.39,52.11-5.3,83.81,13.39,21.13,33.4,34.32,52.07,36.45l1.48.16.73,0c.59,0,1.18.08,1.78.09h2.36c.59,0,1.19,0,1.78-.09l.72,0,1.49-.16c18.67-2.13,38.67-15.32,52.07-36.45C361.55,237.21,359.17,199.69,336.15,185.1Z" transform="translate(0 0)"/><g class="cls-3"><path class="cls-4" d="M181.93,435.56a14.92,14.92,0,0,1-10.61-4.39h0l-55.86-55.86a15,15,0,0,1,0-21.21l55.86-55.86a15,15,0,0,1,21.21,0l55.86,55.86a15,15,0,0,1,0,21.21l-55.86,55.86A14.91,14.91,0,0,1,181.93,435.56Zm-6.37-8.63a9,9,0,0,0,12.73,0l55.86-55.86a9,9,0,0,0,0-12.73l-55.86-55.86a9,9,0,0,0-12.73,0L119.7,358.34a9,9,0,0,0,0,12.73l55.86,55.86Z" transform="translate(0 0)"/></g><path class="cls-2" d="M181.93,435.56a14.92,14.92,0,0,1-10.61-4.39h0l-55.86-55.86a15,15,0,0,1,0-21.21l55.86-55.86a15,15,0,0,1,21.21,0l55.86,55.86a15,15,0,0,1,0,21.21l-55.86,55.86A14.91,14.91,0,0,1,181.93,435.56Zm-6.37-8.63a9,9,0,0,0,12.73,0l55.86-55.86a9,9,0,0,0,0-12.73l-55.86-55.86a9,9,0,0,0-12.73,0L119.7,358.34a9,9,0,0,0,0,12.73l55.86,55.86Z" transform="translate(0 0)"/><g class="cls-3"><path class="cls-4" d="M386.51,435.56a15,15,0,0,1-10.61-4.39h0L320,375.31a15,15,0,0,1,0-21.21l55.86-55.86a15,15,0,0,1,21.22,0L453,354.1a15,15,0,0,1,0,21.21l-55.86,55.86A15,15,0,0,1,386.51,435.56Zm-6.36-8.63a9,9,0,0,0,12.72,0l55.86-55.86a9,9,0,0,0,0-12.73l-55.86-55.86a9,9,0,0,0-12.72,0l-55.87,55.86a9,9,0,0,0,0,12.73l55.87,55.86Z" transform="translate(0 0)"/></g><path class="cls-2" d="M386.51,435.56a15,15,0,0,1-10.61-4.39h0L320,375.31a15,15,0,0,1,0-21.21l55.86-55.86a15,15,0,0,1,21.22,0L453,354.1a15,15,0,0,1,0,21.21l-55.86,55.86A15,15,0,0,1,386.51,435.56Zm-6.36-8.63a9,9,0,0,0,12.72,0l55.86-55.86a9,9,0,0,0,0-12.73l-55.86-55.86a9,9,0,0,0-12.72,0l-55.87,55.86a9,9,0,0,0,0,12.73l55.87,55.86Z" transform="translate(0 0)"/><g class="cls-3"><path class="cls-4" d="M284.22,557.78a14.94,14.94,0,0,1-10.61-4.39l-55.86-55.86a15,15,0,0,1,0-21.21l55.86-55.86a15,15,0,0,1,21.21,0l55.87,55.86a15.05,15.05,0,0,1,0,21.21l-55.87,55.86A14.91,14.91,0,0,1,284.22,557.78Zm0-135.71a9,9,0,0,0-6.37,2.63L222,480.56a9,9,0,0,0,0,12.73l55.86,55.86a9,9,0,0,0,12.73,0l55.86-55.86a9,9,0,0,0,0-12.73L290.58,424.7A8.94,8.94,0,0,0,284.22,422.07Z" transform="translate(0 0)"/></g><path class="cls-2" d="M284.22,557.78a14.94,14.94,0,0,1-10.61-4.39l-55.86-55.86a15,15,0,0,1,0-21.21l55.86-55.86a15,15,0,0,1,21.21,0l55.87,55.86a15.05,15.05,0,0,1,0,21.21l-55.87,55.86A14.91,14.91,0,0,1,284.22,557.78Zm0-135.71a9,9,0,0,0-6.37,2.63L222,480.56a9,9,0,0,0,0,12.73l55.86,55.86a9,9,0,0,0,12.73,0l55.86-55.86a9,9,0,0,0,0-12.73L290.58,424.7A8.94,8.94,0,0,0,284.22,422.07Z" transform="translate(0 0)"/></svg>