<svg id="图层_1" data-name="图层 1" xmlns="http://www.w3.org/2000/svg" xmlns:xlink="http://www.w3.org/1999/xlink" viewBox="0 0 1024 1024"><defs><style>.cls-1{fill:url(#未命名的渐变_7);}.cls-2{opacity:0.23;}.cls-3{fill:#bf223a;}.cls-10,.cls-4,.cls-9{fill:#fff;}.cls-5{opacity:0.3;}.cls-6,.cls-7,.cls-8{fill:#ff3c00;}.cls-10,.cls-7,.cls-8,.cls-9{font-size:110px;font-family:Cambria-Bold, Cambria;font-weight:700;}.cls-7,.cls-9{letter-spacing:0.1em;}.cls-10,.cls-8{letter-spacing:0.05em;}</style><linearGradient id="未命名的渐变_7" x1="512" y1="1024" x2="512" gradientUnits="userSpaceOnUse"><stop offset="0" stop-color="#f09819"/><stop offset="1" stop-color="#ff512f"/></linearGradient></defs><title>三分六合彩</title><rect class="cls-1" width="1024" height="1024" rx="350" ry="350"/><g class="cls-2"><circle class="cls-3" cx="327.29" cy="274.33" r="34"/><circle class="cls-3" cx="420.63" cy="202.33" r="35.33"/><circle class="cls-3" cx="534.29" cy="171.67" r="40.33"/><circle class="cls-3" cx="664.54" cy="172.58" r="43.25"/><circle class="cls-3" cx="786.38" cy="234.42" r="51.75"/></g><circle class="cls-4" cx="327.29" cy="265.33" r="34"/><circle class="cls-4" cx="420.63" cy="193.33" r="35.33"/><circle class="cls-4" cx="534.29" cy="162.67" r="40.33"/><circle class="cls-4" cx="664.54" cy="163.58" r="43.25"/><circle class="cls-4" cx="786.38" cy="225.42" r="51.75"/><g class="cls-5"><circle class="cls-6" cx="277.29" cy="361.33" r="25.33"/><polyline class="cls-6" points="309.54 377.27 385.29 377.27 381.04 404.67 167.56 404.67 171.82 377.27 253.38 377.27"/><polygon class="cls-6" points="613.04 439.91 597.66 470.75 399.75 470.75 400.13 439.91 613.04 439.91"/><path class="cls-6" d="M397.13,482.2l-13.86,93.11H582.8l17.86-93.11Zm151.23,68.59h-120l6.46-42.07h122Z" transform="translate(-1.09 -1)"/><path class="cls-6" d="M298.38,420.67H342s-24.67,71.67,3.67,157h-45S275.38,497.33,298.38,420.67Z" transform="translate(-1.09 -1)"/><path class="cls-6" d="M189,420.65h46s-2.67,99.67-57,160.67H132.8S189,499,189,420.65Z" transform="translate(-1.09 -1)"/><polygon class="cls-6" points="406.17 426.25 493.17 345 550.04 345 617.79 425.63 555.54 426.88 519.17 377.27 468.17 426.88 406.17 426.25"/><polygon class="cls-6" points="655.63 366 792.96 358.33 777.63 393 652.96 396.33 655.63 366"/><polygon class="cls-6" points="652.96 402.33 683.63 402.33 689.29 444 655.63 444 652.96 402.33"/><rect class="cls-6" x="697.63" y="402.33" width="32.33" height="43.67"/><polygon class="cls-6" points="747.29 402.33 783.63 402.33 768.96 444 734.63 444 747.29 402.33"/><polygon class="cls-6" points="643.96 456.5 690.29 456.5 692.21 448.25 730.71 448.25 729.28 456.54 779.71 455.25 762.96 481.5 751.71 481.5 751.71 571 721.96 569.25 721.96 497.23 721.96 497.23 711.84 568 669.21 582.5 684.71 483 682.71 483 658.71 573.07 622.96 573.07 659.96 482.5 636.71 482.5 643.96 456.5"/><polygon class="cls-6" points="854.38 352.67 853.54 353.52 795.71 412.67 820.38 442.91 786.38 493.67 854.38 441 826.71 409.33 854.38 352.67"/><polygon class="cls-6" points="843.29 466 767.29 531 783.63 557.5 680.79 684 823.29 567.5 801.79 533.5 843.29 466"/><rect class="cls-6" x="132.29" y="600" width="597.67" height="16"/><rect class="cls-6" x="797.96" y="600" width="85.35" height="16"/><text class="cls-7" transform="matrix(0.95, 0, -0.18, 0.98, 214.93, 713.89)">MARK</text><text class="cls-8" transform="matrix(0.95, 0, -0.18, 0.98, 767.1, 713.89)">IX</text><path class="cls-6" d="M358.16,884.78h166v25.44h-166ZM368.81,765.5h144v25.44h-144Zm7.73,58.09H505.11v24.75H376.55Z" transform="translate(-1.09 -1)"/><path class="cls-6" d="M703.63,814.31q-7.22,8.94-16.5,22-6.36-5-12.29-10.31-2.32,54.91-3.61,66.34T662.72,910q-7.22,6.23-20.2,6.23-17.7,0-33.43-.52-1.55-14.27-3.61-26,22.34,1.89,32.31,1.89,5.93,0,7.52-5.29t2.62-43.18H605.48q-1.46,24.15-6.92,37a65.36,65.36,0,0,1-17.1,23.29q-11.65,10.4-29.26,18a246.57,246.57,0,0,0-17.87-21.83q15.3-6.1,25.22-13.54t14.27-15.81q4.34-8.38,5.8-27.2H555.13V829.53q-4.3,3.27-8.77,6.27a183,183,0,0,0-15.64-19.42q38.84-27.33,58.61-65l23,10a207.1,207.1,0,0,1-45.12,58.09H667.79a237,237,0,0,1-43.57-56.72l21.31-11A189.79,189.79,0,0,0,703.63,814.31Z" transform="translate(-1.09 -1)"/></g><circle class="cls-4" cx="277.29" cy="351.33" r="25.33"/><polyline class="cls-4" points="309.54 367.27 385.29 367.27 381.04 394.67 167.56 394.67 171.82 367.27 253.38 367.27"/><polygon class="cls-4" points="613.04 429.91 597.66 460.75 399.75 460.75 400.13 429.91 613.04 429.91"/><path class="cls-4" d="M397.13,472.2l-13.86,93.11H582.8l17.86-93.11Zm151.23,68.59h-120l6.46-42.07h122Z" transform="translate(-1.09 -1)"/><path class="cls-4" d="M298.38,410.67H342s-24.67,71.67,3.67,157h-45S275.38,487.33,298.38,410.67Z" transform="translate(-1.09 -1)"/><path class="cls-4" d="M189,410.65h46s-2.67,99.67-57,160.67H132.8S189,489,189,410.65Z" transform="translate(-1.09 -1)"/><polygon class="cls-4" points="406.17 416.25 493.17 335 550.04 335 617.79 415.63 555.54 416.88 519.17 367.27 468.17 416.88 406.17 416.25"/><polygon class="cls-4" points="655.63 356 792.96 348.33 777.63 383 652.96 386.33 655.63 356"/><polygon class="cls-4" points="652.96 392.33 683.63 392.33 689.29 434 655.63 434 652.96 392.33"/><rect class="cls-4" x="697.63" y="392.33" width="32.33" height="43.67"/><polygon class="cls-4" points="747.29 392.33 783.63 392.33 768.96 434 734.63 434 747.29 392.33"/><polygon class="cls-4" points="643.96 446.5 690.29 446.5 692.21 438.25 730.71 438.25 729.28 446.54 779.71 445.25 762.96 471.5 751.71 471.5 751.71 561 721.96 559.25 721.96 487.23 721.96 487.23 711.84 558 669.21 572.5 684.71 473 682.71 473 658.71 563.07 622.96 563.07 659.96 472.5 636.71 472.5 643.96 446.5"/><polygon class="cls-4" points="854.38 342.67 853.54 343.52 795.71 402.67 820.38 432.91 786.38 483.67 854.38 431 826.71 399.33 854.38 342.67"/><polygon class="cls-4" points="843.29 456 767.29 521 783.63 547.5 680.79 674 823.29 557.5 801.79 523.5 843.29 456"/><rect class="cls-4" x="132.29" y="590" width="597.67" height="16"/><rect class="cls-4" x="797.96" y="590" width="85.35" height="16"/><text class="cls-9" transform="matrix(0.95, 0, -0.18, 0.98, 214.93, 703.89)">MARK</text><text class="cls-10" transform="matrix(0.95, 0, -0.18, 0.98, 767.1, 703.89)">IX</text><path class="cls-4" d="M358.16,874.78h166v25.44h-166ZM368.81,755.5h144v25.44h-144Zm7.73,58.09H505.11v24.75H376.55Z" transform="translate(-1.09 -1)"/><path class="cls-4" d="M703.63,804.31q-7.22,8.94-16.5,22-6.36-5-12.29-10.31-2.32,54.91-3.61,66.34T662.72,900q-7.22,6.23-20.2,6.23-17.7,0-33.43-.52-1.55-14.27-3.61-26,22.34,1.89,32.31,1.89,5.93,0,7.52-5.29t2.62-43.18H605.48q-1.46,24.15-6.92,37a65.36,65.36,0,0,1-17.1,23.29q-11.65,10.4-29.26,18a246.57,246.57,0,0,0-17.87-21.83q15.3-6.1,25.22-13.54t14.27-15.81q4.34-8.38,5.8-27.2H555.13V819.53q-4.3,3.27-8.77,6.27a183,183,0,0,0-15.64-19.42q38.84-27.33,58.61-65l23,10a207.1,207.1,0,0,1-45.12,58.09H667.79a237,237,0,0,1-43.57-56.72l21.31-11A189.79,189.79,0,0,0,703.63,804.31Z" transform="translate(-1.09 -1)"/></svg>