<svg id="图层_1" data-name="图层 1" xmlns="http://www.w3.org/2000/svg" xmlns:xlink="http://www.w3.org/1999/xlink" viewBox="0 0 1024 1024"><defs><style>.cls-1{fill:url(#未命名的渐变_5);}.cls-2{opacity:0;}.cls-3{fill:#040000;}.cls-4{fill:#fff;}</style><linearGradient id="未命名的渐变_5" x1="512" y1="1024" x2="512" gradientUnits="userSpaceOnUse"><stop offset="0.18" stop-color="#787cba"/><stop offset="0.88" stop-color="#9fd7e8"/></linearGradient></defs><title>7</title><rect class="cls-1" width="1024" height="1024" rx="350" ry="350"/><g class="cls-2"><path class="cls-3" d="M365.09,422.5S295.59,399,281.59,295s-104-62-81.5,0S302.09,432,365.09,422.5Z" transform="translate(-1.09 -1)"/></g><path class="cls-4" d="M365.09,422.5S295.59,399,281.59,295s-104-62-81.5,0S302.09,432,365.09,422.5Z" transform="translate(-1.09 -1)"/><g class="cls-2"><path class="cls-3" d="M377.59,417s-49-134,32.5-201.5,11-99.5-16-97.5-73,34-88,105S337.09,401,377.59,417Z" transform="translate(-1.09 -1)"/></g><path class="cls-4" d="M377.59,417s-49-134,32.5-201.5,11-99.5-16-97.5-73,34-88,105S337.09,401,377.59,417Z" transform="translate(-1.09 -1)"/><g class="cls-2"><path class="cls-3" d="M404.69,289.16s94.08-177.33,266-171.09c151.4,5.5,82.48,151.06-9.5,109.59C585.59,193.57,431.19,282.66,404.69,289.16Z" transform="translate(-1.09 -1)"/></g><path class="cls-4" d="M404.69,289.16s94.08-177.33,266-171.09c151.4,5.5,82.48,151.06-9.5,109.59C585.59,193.57,431.19,282.66,404.69,289.16Z" transform="translate(-1.09 -1)"/><polygon class="cls-4" points="200 531.5 217.5 531.5 195.41 649 232.5 636 257 496.5 205.5 500 200 531.5"/><polygon class="cls-4" points="270.5 527.5 288 527.5 265.91 645 303 632 327.5 492.5 276 496 270.5 527.5"/><ellipse class="cls-4" cx="375.09" cy="495" rx="23.04" ry="19.14" transform="translate(-240.51 583.94) rotate(-61.17)"/><path class="cls-4" d="M343.59,523.5l-8,26h17l-24,124h14s16.7-21.5,33.1-8l126.9-1,18.5-26.5H379.59l-8-15.5,20-99Z" transform="translate(-1.09 -1)"/><polygon class="cls-4" points="419.5 568.75 384.5 622 423.75 622 451 568.75 419.5 568.75"/><polygon class="cls-4" points="534.5 484 525.5 509 429.38 509 429.38 484 534.5 484"/><polygon class="cls-4" points="525.57 597 519.85 622 458.79 622 458.79 597 525.57 597"/><polygon class="cls-4" points="525.57 539.5 514.13 564.5 392 564.5 392 539.5 525.57 539.5"/><polygon class="cls-4" points="431.25 532 399.25 532 413.25 471 445.25 471 431.25 532"/><polygon class="cls-4" points="477.25 547 447.25 547 461.25 471 491.25 471 477.25 547"/><polygon class="cls-4" points="481 622 451 622 465 546 495 546 481 622"/><path class="cls-4" d="M579.11,469.45h103.2l-6.7,25.65H597l-12.17,48.13q17.94-19.08,42-19.08t37.82,16.53q13.88,16.53,10.31,39.26-3.72,23.71-23.67,40.85t-50.1,17.14q-24,0-40.14-11.06t-17.88-34.41l29.36-4.25q4.39,25.41,30.89,25.41,16.29,0,26.65-9.85a40.8,40.8,0,0,0,12.56-23.83q2.17-13.85-5.08-23.4T616.28,547q-21.15,0-35.12,19.33l-25.92-5.23Z" transform="translate(-1.09 -1)"/><path class="cls-4" d="M420,308.62a72,72,0,0,0-13.08,13.81Q413.17,315.28,420,308.62Z" transform="translate(-1.09 -1)"/><path class="cls-4" d="M523.75,406c-2.58,2.86-5.07,5.83-7.44,8.89A71.08,71.08,0,0,0,523.75,406Z" transform="translate(-1.09 -1)"/><path class="cls-4" d="M590.3,239.24A242.81,242.81,0,0,0,420,308.62q-6.81,6.64-13.08,13.81a71.84,71.84,0,0,0,109.41,92.49c2.37-3.06,4.86-6,7.44-8.89,24.3-26.84,57.81-44.41,94.28-44.41,72.44,0,129.1,69.29,129.1,143S693.87,672.69,593.76,692.85c-39.9,8-71.36,12.12-95.9,13A243.21,243.21,0,0,0,590.3,724c134.31,0,243.2-108.51,243.2-242.38S724.61,239.24,590.3,239.24Z" transform="translate(-1.09 -1)"/><path class="cls-4" d="M341,826.9a30.21,30.21,0,0,0-.88-7.84,19.44,19.44,0,0,0-3.66-6.71l-6-6.5a30.73,30.73,0,0,1-3.66-5.15,22.35,22.35,0,0,1-1.7-3.46,8.37,8.37,0,0,1-.26-1.55,5,5,0,0,1,.36-1.9,6.36,6.36,0,0,1,3.67-4.44,16.07,16.07,0,0,1,5.93-1l6.08.62,19.91-3.61a91.73,91.73,0,0,1,9.85-.21,61.36,61.36,0,0,0,10.83-.57,15.72,15.72,0,0,0,6.71-2.73q2.84-2.05,5.77-10.11t6.45-10.57q3.51-2.53,9.8-.36,2.88,1.14,9.59,9.07t10.78,8.72a109.76,109.76,0,0,0,14.9,1.08q10.83.32,15.84.88t16.5-.41c7.67-.66,11.79-.53,12.38.36a5.83,5.83,0,0,1,1,2.78,10.93,10.93,0,0,1-.21,3,42.45,42.45,0,0,1-4.33,9.6q-3.41,6-6.86,6.7a21.94,21.94,0,0,1-7.06.31l-19-2.27c-3.72-.34-7.36-.58-10.94-.72l-13-.41q-7.63-.53-8.87-.52c-1.86.07-4.59.24-8.21.52s-13.22.82-28.82,1.65-24.28,3.06-26,6.7q-.82,1.65-.62,7.17t-.1,11.19l-.93,13.72c-.27,2-.81,5-1.6,9.08s-2.9,10.71-6.34,20-6.77,16.14-10,20.68l-6.6,8.66a35.33,35.33,0,0,1-5,6.14c-1.79,1.75-4.43,2.2-7.94,1.34s-6.43-3.33-8.77-7.42-1.92-9.51,1.24-16.25a15.46,15.46,0,0,1,3.82-5.26l8.76-5.26q4.85-3.3,8.51-10.47a61.72,61.72,0,0,0,5.21-13.67l1-5,1.65-7.33A55,55,0,0,0,341,826.9Z" transform="translate(-1.09 -1)"/><path class="cls-4" d="M526.27,880.33q-.1-.72-.36-6.71t5.52-5.88c.41.07.93.14,1.54.21l8.36,2.37a13.38,13.38,0,0,0,5.36-.52l14.75-6.8,8-2.37a47.34,47.34,0,0,0,5.67-3,25.09,25.09,0,0,1,5.06-2.52l4.53-.11,3.41-2.06q4.13-2.37,5-1.18a6.08,6.08,0,0,1,.67,4q-.62,5-1.19,6a13.62,13.62,0,0,1-1.18,1.91l-3.41,4-5.56,7.12q-.93.93-3.92,3.3l-9.49,8.05a61.79,61.79,0,0,1-10.37,7.11,32.57,32.57,0,0,1-12.53,3.2q-6.2.72-8.46-.52a39.67,39.67,0,0,1-10.42-10.88A14.07,14.07,0,0,1,526.27,880.33Zm4.23-96.76a19.14,19.14,0,0,1,.88-4.12q.45-1.14,5-2a85.26,85.26,0,0,0,8.4-2,19,19,0,0,1,5.57-1l2.48.41q.3.11,9.59.31a43.66,43.66,0,0,0,5.26-.26c3-.24,6.67-.41,10.94-.52s7.4-.2,9.43-.3a17.83,17.83,0,0,0,5.73-1.24,17.29,17.29,0,0,0,4.79-2.89,57.4,57.4,0,0,0,5.73-6q3.62-4.23,6.6-4.75a7.92,7.92,0,0,1,4,.72,6.5,6.5,0,0,1,3.15,2.43,7.33,7.33,0,0,1,.72,4.38,15.12,15.12,0,0,1-1.19,4.07,9.65,9.65,0,0,0-.87,2.43q0,.21,10.93,1.08a134.61,134.61,0,0,0,17.43.52l8.67-.47a92.23,92.23,0,0,1,13.1.83q7.22.93,8.25.93h3l6.7.82,6.4-.1,2.37,1.24a15.58,15.58,0,0,0,4.28,1.34,28.82,28.82,0,0,1,4.54,1.18,3.17,3.17,0,0,1,2.17,2.27,9.6,9.6,0,0,1,0,3.56,19,19,0,0,1-.62,2.06,12.92,12.92,0,0,1-2,2.84,13.26,13.26,0,0,1-3.77,3.2,19.17,19.17,0,0,1-6.39,1.8,34.55,34.55,0,0,1-6.14.52,18.45,18.45,0,0,1-6.08-1l-4.65-1.65q-.51-.11-8.3-.62a99,99,0,0,1-13.31-1.65c-3.67-.76-6.24-1.24-7.68-1.45a63.86,63.86,0,0,0-9.49.11q-5.57.4-7,.41l-7.84-.21c-.28.07-2.6.25-7,.52s-7.16.67-8.36,1.19a12.35,12.35,0,0,0-3.45,2.26,51,51,0,0,0-5.11,6,97.42,97.42,0,0,1-7.27,8.4c-2.55,2.62-3.49,4.51-2.84,5.68a3.89,3.89,0,0,0,3.56,1.85,9.09,9.09,0,0,0,2.68-.36,67.34,67.34,0,0,1,8.46-.87,45.29,45.29,0,0,0,8.15-1,7.24,7.24,0,0,0,2.83-1.6q1.1-1,3.67-7.74t3.87-7.06a3.22,3.22,0,0,1,2.63.46L625.5,801a18.47,18.47,0,0,0,2.37,1.86,9.38,9.38,0,0,1,3.3,4.44l.83,3.3a8.8,8.8,0,0,0,1.7,3.3c.93,1.24,4,1.72,9.23,1.44l8.77-.51q1.75,0,10,.46T679,817.15a94.51,94.51,0,0,1,10.73,2,6.23,6.23,0,0,1,3.14,3.2,9.4,9.4,0,0,1,.78,6.19,15.1,15.1,0,0,1-3.35,6.44q-2.75,3.36-10.78,3.15l-13.93-.93-9-.21-11.45-.92q-8.88.09-12.38,2.32t-4.07,4.48a23.26,23.26,0,0,0-.67,4.85l-1.14,9.59-.31,15.17q-.93,10.2-.82,10.52l.93,9.69a12.31,12.31,0,0,1-1.45,4.95,21.3,21.3,0,0,1-3.4,4.23c-1.52,1.52-2.62,2.27-3.3,2.27l-2.69-.82a16.29,16.29,0,0,1-3.45-1.08,6.42,6.42,0,0,1-.72-1.91,42.73,42.73,0,0,1-.83-7q-.36-5.31-.36-7.27l.93-17.33.21-6.29c0-.14.24-2.73.72-7.79a65.3,65.3,0,0,0,.1-13.15c-.34-2.2-.88-3.61-1.6-4.23s-3.45-1.17-8.2-1.65a30.46,30.46,0,0,0-8.61,1.19,64.38,64.38,0,0,1-6.86,1.49l-10.21.42-10.63,3a33,33,0,0,1-7.32.31,35.25,35.25,0,0,0-5.72,0c-.73.14-2.46.62-5.21,1.44s-4.85.72-6.3-.31l-2-1.44-1.65-.52a4.77,4.77,0,0,1-3.5-5.15q0-.11,3.81-6l3.1-6a11.65,11.65,0,0,1,4-2.53c2-.92,4.31-2.11,6.86-3.56l9.9-5.15a35.16,35.16,0,0,0,6.91-5.16l8.15-8.87q4-4,3.77-4.75t-6.76,0l-13.62,1-9.07,1.23-7.43.52L537.41,798q-6.4.21-7.22-5.67v-3.92l-.31-2.58Zm115.37,71.95a5.66,5.66,0,0,1,2.84-2.48,5.26,5.26,0,0,1,3.61,0,9,9,0,0,0,.92.41l4.44,3.2a29.83,29.83,0,0,0,2.53,1.65q2,1.25,6.75,4.39a56,56,0,0,0,7.33,4.28l5.15,2.16q1.14.63,10.73,7.27A142.06,142.06,0,0,0,704,885.17c2.82,1.45,4.45,2.7,4.9,3.77a3.26,3.26,0,0,1,.05,2.84,14.73,14.73,0,0,1-2.89,2.26l-3.91,4.44a25.13,25.13,0,0,1-7.07,4.95Q690,906.12,681,905.7q-4.23-.11-5.11-1a14.6,14.6,0,0,1-1.7-2.11,50.42,50.42,0,0,0-4.43-5q-3.62-3.76-6.45-7.32c-1.89-2.37-3.32-4.06-4.28-5a13.3,13.3,0,0,1-1.65-1.91l-2.79-5.78-2.06-3.3-3.09-5.67a23.49,23.49,0,0,1-2.68-4l-.83-4.84-.72-1.14A3.71,3.71,0,0,1,645.87,855.52Z" transform="translate(-1.09 -1)"/></svg>