<svg id="图层_1" data-name="图层 1" xmlns="http://www.w3.org/2000/svg" xmlns:xlink="http://www.w3.org/1999/xlink" viewBox="0 0 200 344.44"><defs><style>.cls-1{opacity:0.1;}.cls-2{fill:url(#未命名的渐变_19);}</style><linearGradient id="未命名的渐变_19" x1="100" y1="342.44" x2="100" y2="2" gradientUnits="userSpaceOnUse"><stop offset="0"/><stop offset="0.5" stop-color="#fff" stop-opacity="0"/><stop offset="0.5"/><stop offset="1" stop-opacity="0"/></linearGradient></defs><title>未标题-2</title><g class="cls-1"><rect class="cls-2" x="2" y="2" width="196" height="340.44" rx="10" ry="10"/><path d="M412,87.28a8,8,0,0,1,8,8V415.72a8,8,0,0,1-8,8H236a8,8,0,0,1-8-8V95.28a8,8,0,0,1,8-8H412m0-4H236a12,12,0,0,0-12,12V415.72a12,12,0,0,0,12,12H412a12,12,0,0,0,12-12V95.28a12,12,0,0,0-12-12Z" transform="translate(-224 -83.28)"/></g></svg>