<svg id="图层_1" data-name="图层 1" xmlns="http://www.w3.org/2000/svg" xmlns:xlink="http://www.w3.org/1999/xlink" viewBox="0 0 1024 1024"><defs><style>.cls-1{fill:url(#未命名的渐变_7);}.cls-2{opacity:0.23;}.cls-3{fill:#bf223a;}.cls-10,.cls-4,.cls-9{fill:#fff;}.cls-5{opacity:0.2;}.cls-6,.cls-7,.cls-8{fill:#d1003c;}.cls-10,.cls-7,.cls-8,.cls-9{font-size:110px;font-family:Cambria-Bold, Cambria;font-weight:700;}.cls-7,.cls-9{letter-spacing:0.1em;}.cls-10,.cls-8{letter-spacing:0.05em;}</style><linearGradient id="未命名的渐变_7" x1="512" y1="1024" x2="512" gradientUnits="userSpaceOnUse"><stop offset="0" stop-color="#f45c43"/><stop offset="1" stop-color="#eb3349"/></linearGradient></defs><title>香港六合彩</title><rect class="cls-1" width="1024" height="1024" rx="350" ry="350"/><g class="cls-2"><circle class="cls-3" cx="327.29" cy="274.33" r="34"/><circle class="cls-3" cx="420.63" cy="202.33" r="35.33"/><circle class="cls-3" cx="534.29" cy="171.67" r="40.33"/><circle class="cls-3" cx="664.54" cy="172.58" r="43.25"/><circle class="cls-3" cx="786.38" cy="234.42" r="51.75"/></g><circle class="cls-4" cx="327.29" cy="265.33" r="34"/><circle class="cls-4" cx="420.63" cy="193.33" r="35.33"/><circle class="cls-4" cx="534.29" cy="162.67" r="40.33"/><circle class="cls-4" cx="664.54" cy="163.58" r="43.25"/><circle class="cls-4" cx="786.38" cy="225.42" r="51.75"/><g class="cls-5"><circle class="cls-6" cx="277.29" cy="361.33" r="25.33"/><polyline class="cls-6" points="309.54 377.27 385.29 377.27 381.04 404.67 167.56 404.67 171.82 377.27 253.38 377.27"/><polygon class="cls-6" points="613.04 439.91 597.66 470.75 399.75 470.75 400.13 439.91 613.04 439.91"/><path class="cls-6" d="M397.13,481.2l-13.86,93.11H582.8l17.86-93.11Zm151.23,68.59h-120l6.46-42.07h122Z" transform="translate(-1.09 0)"/><path class="cls-6" d="M298.38,419.67H342s-24.67,71.67,3.67,157h-45S275.38,496.33,298.38,419.67Z" transform="translate(-1.09 0)"/><path class="cls-6" d="M189,419.65h46s-2.67,99.67-57,160.67H132.8S189,498,189,419.65Z" transform="translate(-1.09 0)"/><polygon class="cls-6" points="406.17 426.25 493.17 345 550.04 345 617.79 425.63 555.54 426.88 519.17 377.27 468.17 426.88 406.17 426.25"/><polygon class="cls-6" points="655.63 366 792.96 358.33 777.63 393 652.96 396.33 655.63 366"/><polygon class="cls-6" points="652.96 402.33 683.63 402.33 689.29 444 655.63 444 652.96 402.33"/><rect class="cls-6" x="697.63" y="402.33" width="32.33" height="43.67"/><polygon class="cls-6" points="747.29 402.33 783.63 402.33 768.96 444 734.63 444 747.29 402.33"/><polygon class="cls-6" points="643.96 456.5 690.29 456.5 692.21 448.25 730.71 448.25 729.28 456.54 779.71 455.25 762.96 481.5 751.71 481.5 751.71 571 721.96 569.25 721.96 497.23 721.96 497.23 711.84 568 669.21 582.5 684.71 483 682.71 483 658.71 573.07 622.96 573.07 659.96 482.5 636.71 482.5 643.96 456.5"/><polygon class="cls-6" points="854.38 352.67 853.54 353.52 795.71 412.67 820.38 442.91 786.38 493.67 854.38 441 826.71 409.33 854.38 352.67"/><polygon class="cls-6" points="843.29 466 767.29 531 783.63 557.5 680.79 684 823.29 567.5 801.79 533.5 843.29 466"/><rect class="cls-6" x="132.29" y="600" width="597.67" height="16"/><rect class="cls-6" x="797.96" y="600" width="85.35" height="16"/><text class="cls-7" transform="matrix(0.95, 0, -0.18, 0.98, 214.93, 713.89)">MARK</text><text class="cls-8" transform="matrix(0.95, 0, -0.18, 0.98, 767.1, 713.89)">IX</text><path class="cls-6" d="M379.64,919.53v-76q-5.84,2.75-12,5.16-7-13.41-12.37-21.66a193.74,193.74,0,0,0,53.54-21.31H361.59V787.53h67.72v-12q-26.9,1-55.34,1.55-1.55-9.28-3.61-18.73,77-1.37,136.81-5.84l4.47,18.22q-28.45,2.24-59,3.78v13.06h68.41v18.22H471.94q23.63,13.06,54.83,18.39-6.36,10.83-11.69,22-6.62-2.06-12.72-4.55v77.95h-23v-7.22H402.67v7.22ZM391,837.89h102.7a146.37,146.37,0,0,1-41-27.33v23H429.31V811.25A188.17,188.17,0,0,1,391,837.89Zm88.34,18H402.67v10.83h76.66Zm-76.66,38.33h76.66V883.44H402.67Z" transform="translate(-1.09 0)"/><path class="cls-6" d="M545.67,796.3q13.06,9.45,27.16,21.66L557,835.83q-5.33-5.33-25.78-23.89ZM550.48,848a199.49,199.49,0,0,0,22.17,8.08q-6.53,25.44-14.78,63.08-11.17-4-22.69-7Q541.2,893.41,550.48,848Zm0-96.59q14.44,10.49,26.3,20.45l-16.5,17Q548.94,777.39,535.7,766Zm96.59-.52h22v16.16h20.8V785.3h-20.8v15.3h29.39v18.22H671q12.12,13.41,31.8,23.72a219.69,219.69,0,0,0-12,21.83A121.73,121.73,0,0,1,669.25,847v33.86H609.44v7.39q0,8.25,7.91,8.25h46.23q6.53,0,8.77-4.34T674.92,868a147.21,147.21,0,0,0,22.52,9.28q-2.32,24.67-9.28,32.36t-22.69,7.69h-55q-22.69,0-22.69-22.69V861.53q-3.35,2.84-6.87,5.59a236.38,236.38,0,0,0-14.09-21,128.15,128.15,0,0,0,31.63-27.33H573.34V800.6h25.78V785.3H579.88V767.08h19.25V750.92h22v16.16h26Zm.86,112.41V849.58h-38.5v13.75ZM614.85,832H656.7a119.74,119.74,0,0,1-8.34-13.23H622.84A111.32,111.32,0,0,1,614.85,832Zm6.27-31.45h26V785.3h-26Z" transform="translate(-1.09 0)"/></g><circle class="cls-4" cx="277.29" cy="351.33" r="25.33"/><polyline class="cls-4" points="309.54 367.27 385.29 367.27 381.04 394.67 167.56 394.67 171.82 367.27 253.38 367.27"/><polygon class="cls-4" points="613.04 429.91 597.66 460.75 399.75 460.75 400.13 429.91 613.04 429.91"/><path class="cls-4" d="M397.13,471.2l-13.86,93.11H582.8l17.86-93.11Zm151.23,68.59h-120l6.46-42.07h122Z" transform="translate(-1.09 0)"/><path class="cls-4" d="M298.38,409.67H342s-24.67,71.67,3.67,157h-45S275.38,486.33,298.38,409.67Z" transform="translate(-1.09 0)"/><path class="cls-4" d="M189,409.65h46s-2.67,99.67-57,160.67H132.8S189,488,189,409.65Z" transform="translate(-1.09 0)"/><polygon class="cls-4" points="406.17 416.25 493.17 335 550.04 335 617.79 415.63 555.54 416.88 519.17 367.27 468.17 416.88 406.17 416.25"/><polygon class="cls-4" points="655.63 356 792.96 348.33 777.63 383 652.96 386.33 655.63 356"/><polygon class="cls-4" points="652.96 392.33 683.63 392.33 689.29 434 655.63 434 652.96 392.33"/><rect class="cls-4" x="697.63" y="392.33" width="32.33" height="43.67"/><polygon class="cls-4" points="747.29 392.33 783.63 392.33 768.96 434 734.63 434 747.29 392.33"/><polygon class="cls-4" points="643.96 446.5 690.29 446.5 692.21 438.25 730.71 438.25 729.28 446.54 779.71 445.25 762.96 471.5 751.71 471.5 751.71 561 721.96 559.25 721.96 487.23 721.96 487.23 711.84 558 669.21 572.5 684.71 473 682.71 473 658.71 563.07 622.96 563.07 659.96 472.5 636.71 472.5 643.96 446.5"/><polygon class="cls-4" points="854.38 342.67 853.54 343.52 795.71 402.67 820.38 432.91 786.38 483.67 854.38 431 826.71 399.33 854.38 342.67"/><polygon class="cls-4" points="843.29 456 767.29 521 783.63 547.5 680.79 674 823.29 557.5 801.79 523.5 843.29 456"/><rect class="cls-4" x="132.29" y="590" width="597.67" height="16"/><rect class="cls-4" x="797.96" y="590" width="85.35" height="16"/><text class="cls-9" transform="matrix(0.95, 0, -0.18, 0.98, 214.93, 703.89)">MARK</text><text class="cls-10" transform="matrix(0.95, 0, -0.18, 0.98, 767.1, 703.89)">IX</text><path class="cls-4" d="M379.64,909.53v-76q-5.84,2.75-12,5.16-7-13.41-12.37-21.66a193.74,193.74,0,0,0,53.54-21.31H361.59V777.53h67.72v-12q-26.9,1-55.34,1.55-1.55-9.28-3.61-18.73,77-1.37,136.81-5.84l4.47,18.22q-28.45,2.24-59,3.78v13.06h68.41v18.22H471.94q23.63,13.06,54.83,18.39-6.36,10.83-11.69,22-6.62-2.06-12.72-4.55v77.95h-23v-7.22H402.67v7.22ZM391,827.89h102.7a146.37,146.37,0,0,1-41-27.33v23H429.31V801.25A188.17,188.17,0,0,1,391,827.89Zm88.34,18H402.67v10.83h76.66Zm-76.66,38.33h76.66V873.44H402.67Z" transform="translate(-1.09 0)"/><path class="cls-4" d="M545.67,786.3q13.06,9.45,27.16,21.66L557,825.83q-5.33-5.33-25.78-23.89ZM550.48,838a199.49,199.49,0,0,0,22.17,8.08q-6.53,25.44-14.78,63.08-11.17-4-22.69-7Q541.2,883.41,550.48,838Zm0-96.59q14.44,10.49,26.3,20.45l-16.5,17Q548.94,767.39,535.7,756Zm96.59-.52h22v16.16h20.8V775.3h-20.8v15.3h29.39v18.22H671q12.12,13.41,31.8,23.72a219.69,219.69,0,0,0-12,21.83A121.73,121.73,0,0,1,669.25,837v33.86H609.44v7.39q0,8.25,7.91,8.25h46.23q6.53,0,8.77-4.34T674.92,858a147.21,147.21,0,0,0,22.52,9.28q-2.32,24.67-9.28,32.36t-22.69,7.69h-55q-22.69,0-22.69-22.69V851.53q-3.35,2.84-6.87,5.59a236.38,236.38,0,0,0-14.09-21,128.15,128.15,0,0,0,31.63-27.33H573.34V790.6h25.78V775.3H579.88V757.08h19.25V740.92h22v16.16h26Zm.86,112.41V839.58h-38.5v13.75ZM614.85,822H656.7a119.74,119.74,0,0,1-8.34-13.23H622.84A111.32,111.32,0,0,1,614.85,822Zm6.27-31.45h26V775.3h-26Z" transform="translate(-1.09 0)"/></svg>