<svg id="图层_1" data-name="图层 1" xmlns="http://www.w3.org/2000/svg" xmlns:xlink="http://www.w3.org/1999/xlink" viewBox="0 0 1024 1024"><defs><style>.cls-1{fill:url(#未命名的渐变_11);}.cls-2{opacity:0.2;}.cls-3,.cls-4{fill:#038406;}.cls-4,.cls-9{font-size:111.93px;font-family:Archivo-SemiBold, Archivo;font-weight:700;}.cls-5{letter-spacing:-0.03em;}.cls-6{letter-spacing:-0.02em;}.cls-7{fill:#fcfcfc;}.cls-8,.cls-9{fill:#fff;}</style><linearGradient id="未命名的渐变_11" x1="512" x2="512" y2="1024" gradientUnits="userSpaceOnUse"><stop offset="0" stop-color="#a5de61"/><stop offset="1" stop-color="#58ad31"/></linearGradient></defs><title>新疆时时彩</title><rect class="cls-1" width="1024" height="1024" rx="350" ry="350"/><g class="cls-2"><path class="cls-3" d="M139,452,101.5,671.5,157,668l41-39,29-184Zm21.5,187.5h-18l10-64h16Zm16-95h-18l10-64h16Z"/><polygon class="cls-3" points="241 456 305 454 307 440 344 423 344 447 362 448 336 484 314 623 281 657 235.5 632.5 274.5 630.5 298.5 482.5 238.37 484.94 241 456"/><ellipse class="cls-3" cx="255" cy="542" rx="29.18" ry="21.18" transform="translate(-262.63 240.59) rotate(-34.59)"/><path class="cls-3" d="M387,430,349.5,649.5,405,646l41-39,29-184Zm21.5,187.5h-18l10-64h16Zm16-95h-18l10-64h16Z"/><polygon class="cls-3" points="489 434 553 432 555 418 592 401 592 425 610 426 584 462 562 601 529 635 483.5 610.5 522.5 608.5 546.5 460.5 486.37 462.94 489 434"/><ellipse class="cls-3" cx="503" cy="520" rx="29.18" ry="21.18" transform="translate(-206.3 377.5) rotate(-34.59)"/><path class="cls-3" d="M637,412s84-3,111-14a270.88,270.88,0,0,0,46-24s-23,39-47,47-114,17-114,17Z"/><rect class="cls-3" x="633" y="445" width="35" height="40"/><rect class="cls-3" x="676" y="440" width="35" height="40"/><polygon class="cls-3" points="728 436 764 436 750 478 716 478 728 436"/><polygon class="cls-3" points="620 503 671 499 671 487 708 487 707 493 756 493 740 518 700 522 686 622 650.5 612.5 666.5 528.5 615.5 529.5 620 503"/><path class="cls-3" d="M630.5,538.5h27s-15,67-24,76-50,16-50,16,29-26,35-41S630.5,538.5,630.5,538.5Z"/><rect class="cls-3" x="704.5" y="529.5" width="36" height="82"/><path class="cls-3" d="M920,337s-56-3-91,43c-24.87,32.69-44.18,83-53.28,109.45-3.8,11-6.72,22.59-6.72,34.25v35.05c0,6,1.63,11.94,2.72,17.81A59.19,59.19,0,0,1,764,618c-15,25-49,72-46,93,2.25,15.76,24.77,28.13,35.87,33.33a12.26,12.26,0,0,1,7.13,11c0,8.12-2.58,20.05-17,25.7-23,9-33,16-48,16-12.49,0-190,1.39-249.06,1.85a83.66,83.66,0,0,0-35.22,8.09C378.76,822.58,302.48,856.6,246,865c0,0,80,32,132,28s127-62,150-64c19.66-1.71,133.56-.5,166.24-.11a68,68,0,0,0,19.84-2.7c14-4.08,38.38-15,55.93-31.19,26-24,25-54,23-68s-28-27-25-57,56-40,62-73-20-93-11-113S897,347,920,337Z"/><text class="cls-4" transform="matrix(0.98, -0.09, -0.01, 1, 122.19, 788.69)"><tspan xml:space="preserve">  LOTTE</tspan><tspan class="cls-5" x="427.02" y="0">R</tspan><tspan class="cls-6" x="504.47" y="0">Y</tspan></text><path class="cls-3" d="M352.75,300.07l10.88,4.78q-12.61,19.89-24.42,36a96.11,96.11,0,0,0-10.42-5.49A359.52,359.52,0,0,0,352.75,300.07ZM342.52,282.2l35.39-2.08,2.73-16.26,12.49-.73-2.73,16.26,34-2-1.84,11-34,2L381.06,335q-3,18.14-20.74,19.18-7.46.44-16.8.82.25-5.61.27-12.89,9.89.43,15.61.1,8.15-.48,9.62-9.21l7-41.92-35.39,2.08Zm.52-31.71L371,248.84a185.77,185.77,0,0,0-10.55-19l10.46-7.05q4.57,6.51,11.5,18.47l-11,7.59,22.9-1.35q11.71-14,21.89-27.55L427.35,226Q417.14,237.24,408,246.67l26.28-1.55-1.84,11-91.24,5.37Zm12.22-40,37.47-2.2q-2.55-6.8-5.94-14.73l12-5.79q3.91,8.41,7.1,17l-6.27,3.08,36.86-2.17-1.84,11-81.18,4.77ZM402.56,298q7.53,12.44,13,23l-12.37,8.18a207.65,207.65,0,0,0-12-23.86Zm45.32-98.05A351.81,351.81,0,0,0,515.32,189l2.3,12.91q-35.09,6.47-59.44,9.26l-6.69,39.87,63.32-3.72-2,11.64L488,260.43,473,350.09l-12.84.75,15.05-89.67-25.67,1.51-1.41,8.39q-8.82,52.53-39.23,83.29-3.27-5.06-7.35-10.41Q428,318.52,435.9,271.29Z"/><path class="cls-3" d="M508.43,312.94q7.86-1.82,16.45-3.85l3.3-19.68-14.4.85,1.67-9.93,14.4-.85,2.5-14.89,10.41-.61-2.5,14.89,14.05-.83L552.64,288l-14.05.83-2.93,17.45q7.89-2,16.56-4.53-1.5,6.87-2.53,11-8.79,2.21-42.52,11.82Zm23.32-93.88,36.95-2.17,3.42-20.36-39.72,2.34,1.72-10.27,51.17-3-7.67,45.69-11.45.67.8-4.79-26.54,1.56-4.72,19.93,40.42-2.38q-4.89,28.08-13.54,72.47-4.51,24.83-23.83,26.31l-20.47,1.2q.08-5.6-.53-13.18a150.68,150.68,0,0,0,19.34.39q12-.7,14.35-14.91,6.1-30.18,11.5-60.32L522,260.63Zm33.52,112.39L675.59,325,674,334.2l-110.33,6.49Zm90.69-12.28.52-3.08-68.87,4-.52,3.08-11.27.66L584,275.12l91.42-5.38-8.19,48.77Zm-75.53-61.64,107.9-6.35-1.55,9.24-107.9,6.35ZM667.9,247l.63-3.76-68.87,4L599,251l-11.28.66L596,202.57l91.42-5.38-8.25,49.11Zm-78.92,65,28.8-1.69,1.78-10.61-28.8,1.69Zm3.16-18.82,28.8-1.69L622.69,281l-28.8,1.69ZM595.52,185l100.61-5.92-1.55,9.24L594,194.22ZM601,239l28.79-1.69,1.75-10.44L602.8,228.6Zm3.1-18.48,28.79-1.69,1.75-10.44-28.79,1.69Zm24.9,89,28.79-1.69,1.78-10.61L630.83,299Zm33.71-31L634,280.31l-1.75,10.44L661,289.06Zm-21.64-41.93L669.91,235l1.75-10.44-28.79,1.69Zm33.65-30.61L646,207.77l-1.75,10.44L673,216.51Z"/></g><path class="cls-7" d="M139,437,101.5,656.5,157,653l41-39,29-184Zm21.5,187.5h-18l10-64h16Zm16-95h-18l10-64h16Z"/><polygon class="cls-7" points="241 441 305 439 307 425 344 408 344 432 362 433 336 469 314 608 281 642 235.5 617.5 274.5 615.5 298.5 467.5 238.37 469.94 241 441"/><ellipse class="cls-7" cx="255" cy="527" rx="29.18" ry="21.18" transform="translate(-254.11 237.94) rotate(-34.59)"/><path class="cls-7" d="M387,415,349.5,634.5,405,631l41-39,29-184Zm21.5,187.5h-18l10-64h16Zm16-95h-18l10-64h16Z"/><polygon class="cls-7" points="489 419 553 417 555 403 592 386 592 410 610 411 584 447 562 586 529 620 483.5 595.5 522.5 593.5 546.5 445.5 486.37 447.94 489 419"/><ellipse class="cls-7" cx="503" cy="505" rx="29.18" ry="21.18" transform="translate(-197.78 374.85) rotate(-34.59)"/><path class="cls-8" d="M637,397s84-3,111-14a270.88,270.88,0,0,0,46-24s-23,39-47,47-114,17-114,17Z"/><rect class="cls-8" x="633" y="430" width="35" height="40"/><rect class="cls-8" x="676" y="425" width="35" height="40"/><polygon class="cls-8" points="728 421 764 421 750 463 716 463 728 421"/><polygon class="cls-7" points="620 488 671 484 671 472 708 472 707 478 756 478 740 503 700 507 686 607 650.5 597.5 666.5 513.5 615.5 514.5 620 488"/><path class="cls-8" d="M630.5,523.5h27s-15,67-24,76-50,16-50,16,29-26,35-41S630.5,523.5,630.5,523.5Z"/><rect class="cls-7" x="704.5" y="514.5" width="36" height="82"/><path class="cls-7" d="M920,322s-56-3-91,43c-24.87,32.69-44.18,83-53.28,109.45-3.8,11-6.72,22.59-6.72,34.25v35.05c0,6,1.63,11.94,2.72,17.81A59.19,59.19,0,0,1,764,603c-15,25-49,72-46,93,2.25,15.76,24.77,28.13,35.87,33.33a12.26,12.26,0,0,1,7.13,11c0,8.12-2.58,20.05-17,25.7-23,9-33,16-48,16-12.49,0-190,1.39-249.06,1.85a83.66,83.66,0,0,0-35.22,8.09C378.76,807.58,302.48,841.6,246,850c0,0,80,32,132,28s127-62,150-64c19.66-1.71,133.56-.5,166.24-.11a68,68,0,0,0,19.84-2.7c14-4.08,38.38-15,55.93-31.19,26-24,25-54,23-68s-28-27-25-57,56-40,62-73-20-93-11-113S897,332,920,322Z"/><text class="cls-9" transform="matrix(0.98, -0.09, -0.01, 1, 122.19, 773.69)"><tspan xml:space="preserve">  LOTTE</tspan><tspan class="cls-5" x="427.02" y="0">R</tspan><tspan class="cls-6" x="504.47" y="0">Y</tspan></text><path class="cls-8" d="M352.75,285.07l10.88,4.78q-12.61,19.89-24.42,36a96.11,96.11,0,0,0-10.42-5.49A359.52,359.52,0,0,0,352.75,285.07ZM342.52,267.2l35.39-2.08,2.73-16.26,12.49-.73-2.73,16.26,34-2-1.84,11-34,2L381.06,320q-3,18.14-20.74,19.18-7.46.44-16.8.82.25-5.61.27-12.89,9.89.43,15.61.1,8.15-.48,9.62-9.21l7-41.92-35.39,2.08Zm.52-31.71L371,233.84a185.77,185.77,0,0,0-10.55-19l10.46-7.05q4.57,6.51,11.5,18.47l-11,7.59,22.9-1.35q11.71-14,21.89-27.55L427.35,211Q417.14,222.24,408,231.67l26.28-1.55-1.84,11-91.24,5.37Zm12.22-40,37.47-2.2q-2.55-6.8-5.94-14.73l12-5.79q3.91,8.41,7.1,17l-6.27,3.08,36.86-2.17-1.84,11-81.18,4.77ZM402.56,283q7.53,12.44,13,23l-12.37,8.18a207.65,207.65,0,0,0-12-23.86Zm45.32-98.05A351.81,351.81,0,0,0,515.32,174l2.3,12.91q-35.09,6.47-59.44,9.26l-6.69,39.87,63.32-3.72-2,11.64L488,245.43,473,335.09l-12.84.75,15.05-89.67-25.67,1.51-1.41,8.39q-8.82,52.53-39.23,83.29-3.27-5.06-7.35-10.41Q428,303.52,435.9,256.29Z"/><path class="cls-8" d="M508.43,297.94q7.86-1.82,16.45-3.85l3.3-19.68-14.4.85,1.67-9.93,14.4-.85,2.5-14.89,10.41-.61-2.5,14.89,14.05-.83L552.64,273l-14.05.83-2.93,17.45q7.89-2,16.56-4.53-1.5,6.87-2.53,11-8.79,2.21-42.52,11.82Zm23.32-93.88,36.95-2.17,3.42-20.36-39.72,2.34,1.72-10.27,51.17-3-7.67,45.69-11.45.67.8-4.79-26.54,1.56-4.72,19.93,40.42-2.38q-4.89,28.08-13.54,72.47-4.51,24.83-23.83,26.31l-20.47,1.2q.08-5.6-.53-13.18a150.68,150.68,0,0,0,19.34.39q12-.7,14.35-14.91,6.1-30.18,11.5-60.32L522,245.63Zm33.52,112.39L675.59,310,674,319.2l-110.33,6.49Zm90.69-12.28.52-3.08-68.87,4-.52,3.08-11.27.66L584,260.12l91.42-5.38-8.19,48.77Zm-75.53-61.64,107.9-6.35-1.55,9.24-107.9,6.35ZM667.9,232l.63-3.76-68.87,4L599,236l-11.28.66L596,187.57l91.42-5.38-8.25,49.11Zm-78.92,65,28.8-1.69,1.78-10.61-28.8,1.69Zm3.16-18.82,28.8-1.69L622.69,266l-28.8,1.69ZM595.52,170l100.61-5.92-1.55,9.24L594,179.22ZM601,224l28.79-1.69,1.75-10.44L602.8,213.6Zm3.1-18.48,28.79-1.69,1.75-10.44-28.79,1.69Zm24.9,89,28.79-1.69,1.78-10.61L630.83,284Zm33.71-31L634,265.31l-1.75,10.44L661,274.06Zm-21.64-41.93L669.91,220l1.75-10.44-28.79,1.69Zm33.65-30.61L646,192.77l-1.75,10.44L673,201.51Z"/></svg>