<svg id="图层_1" data-name="图层 1" xmlns="http://www.w3.org/2000/svg" xmlns:xlink="http://www.w3.org/1999/xlink" viewBox="0 0 1044.93 1024"><defs><style>.cls-1{fill:none;}.cls-2{fill:url(#未命名的渐变_11);}.cls-3,.cls-4,.cls-5{fill:#fff;}.cls-4{font-size:338.6px;font-family:HYf3gj, HYZhongLiShuJ;}.cls-5{font-size:85.79px;font-family:CambriaMath, Cambria Math;}.cls-6{letter-spacing:-0.03em;}.cls-7{letter-spacing:-0.07em;}.cls-8{clip-path:url(#clip-path);}</style><linearGradient id="未命名的渐变_11" x1="512" y1="1024" x2="512" gradientUnits="userSpaceOnUse"><stop offset="0.25" stop-color="#e72a28"/><stop offset="0.96" stop-color="#cc4e97"/></linearGradient><clipPath id="clip-path" transform="translate(-0.84 -0.75)"><rect class="cls-1" x="0.61" y="0.1" width="1024" height="1024" rx="350" ry="350"/></clipPath></defs><title>幸运农场</title><rect class="cls-2" width="1024" height="1024" rx="350" ry="350"/><path class="cls-3" d="M935.26,473.17s-18,42-36,62-55,36-55,36,35,12,45,38,11,58,11,58,23-50,41-64,47-27,47-27-32-20-42-38S935.26,473.17,935.26,473.17Z" transform="translate(-0.84 -0.75)"/><path class="cls-3" d="M186.7,377.44s-7,26-15,31-26,11-26,11,17.5,13.5,20,20,5,33,5,33,9.5-24.44,18.5-32.5c9.5-8.5,26.5-15.5,26.5-15.5s-12-6-19-17S186.7,377.44,186.7,377.44Z" transform="translate(-0.84 -0.75)"/><path class="cls-3" d="M121.32,521.84s-7,30-18,37-31,11-31,11,18,14,24,26,9,36,9,36,16-29,25-36,30-19,30-19-17-5-25-20S121.32,521.84,121.32,521.84Z" transform="translate(-0.84 -0.75)"/><text class="cls-4" transform="translate(179.86 376.69)">幸运</text><path class="cls-3" d="M331.47,643.22a5.25,5.25,0,0,0-1.17-3.34q-1.17-1.49-9.56,1l-19.61,2.33Q289,646,285.58,654.74l-2.34,10.73a16.21,16.21,0,0,1-5.6,8.17q-3.74,2.72-10,6.61t-10.43,3.27q-4.12-.63-6-9.18l4.83-24a22.46,22.46,0,0,0-.78-7.78l-2.34-5.76q-2.49-6.21-1.08-9.17a10.66,10.66,0,0,1,2.64-3.89c1-.73,3.55-.68,7.55.15s13-.2,27.14-3.11L306.42,619l18.83-3.26q15.87-.95,18.35-3.11l5.76-7.94q6.84-9,16.18-7.62,5.44.93,7.47,4.66l2.8,7.16q2.64,2.8,12.13,2.33l26.3-1.24a149.55,149.55,0,0,1,20.22.62l19.14,3q2,.32,16.25,1.48t15.64,6.84q1.39,5.68-.93,9.1l-15.09,8.25q-1.56,1.1-5.84,7.08a80.35,80.35,0,0,1-9.8,11.28,36.71,36.71,0,0,1-13,8q-7.47,2.72-9.57-.47a6.5,6.5,0,0,1-.23-6.92,12,12,0,0,1,2.56-3.27,42.63,42.63,0,0,0,4.9-6.38q2.65-4,2.65-6.69a8.08,8.08,0,0,0-4.75-7.07q-4.42-2.26-12.21-2.57L404,630.47a93.33,93.33,0,0,0-23.49,1.94q-11.06,2.42-13,3.58T362,642.6l-4,5.91-8.56,14-6.22,7.63a120,120,0,0,0-8.95,13.53q-5.2,8.88-5.44,12.22a83.32,83.32,0,0,0,.7,12.21l.46,15.87q.16,3.74.7,8.94c.37,3.48.55,5.73.55,6.77l-.31,5.13q.47,8.88,8.24,11.21,1.88.78,9.49-1.56a115.22,115.22,0,0,1,15.25-3.58l26.45-6.53q25.52-5.61,25.2,6.53-.15,4.05-8.56,10.58t-10.19,7.39q-1.78.85-12.21,3.5l-32,12.14-8.09,2.33q-5.28,1.71-20.38,8a170.84,170.84,0,0,0-26.91,13.93q-11.83,7.62-15.56,7.31a10.23,10.23,0,0,1-7.16-3.43q-3.11-3.25-3.19-10.81a30,30,0,0,1,2.88-13.61,23.07,23.07,0,0,1,5.76-7.78l14-8.24a39.46,39.46,0,0,0,9.8-9.88q5-6.78,5.29-12.68t.31-14q-.15-12-2.49-13.69T296,728.63q-3.9,3.9-17,12.06T262.16,750.8A12.59,12.59,0,0,1,254,752q-4-.62-9.56-5.68a86.87,86.87,0,0,1-6.93-6.77,65.52,65.52,0,0,1-4.66-7.39q-3.27-5.67-5.06-9.25c-1.19-2.39-.13-4,3.19-4.83l7,.63q1.71.15,8.09-1.71l12.6-3a33.89,33.89,0,0,0,8.09-3.81q3.74-2.41,18.83-14.39t18.2-15q3.11-3,15.17-17T331.47,643.22Zm21.62,72.19q1.25-3,9-12.13t9.1-11.52l10.58-19.6a27.2,27.2,0,0,0,2.8-3.27l1.56-4a15.06,15.06,0,0,1,5.75-6.92,8.39,8.39,0,0,1,8.09-1.17q5.61,2.32,5.14,12.13L404,679.47q.78,5.14,10.65,14.78t14.24,12.29l16,10.12,5.14,5.75q.78.93,6.22,3.89l11.51,8.09q8.72,6.23,11.36,7.16l4.51,1.24c.31.21,1.61.83,3.89,1.87a33.88,33.88,0,0,0,7.16,2.33l9.33,1.87,7.94,2.8a34,34,0,0,0,6.61,1.56c2.74.41,4.38,1.06,4.9,1.94s0,2.57-1.56,5.06q-1.54,2.49-8.24,9.25a105.91,105.91,0,0,1-14.16,12.06q-7.47,5.29-19.76,6.22a30.19,30.19,0,0,1-18.35-3.81,44.17,44.17,0,0,1-14.16-13.14l-9-14-4.2-5.13A107.37,107.37,0,0,1,426.6,741q-5.21-8.16-6.45-9.88L401.63,712.3q-3.88-4.51-6.69-5.52t-6.53,1.32a33.5,33.5,0,0,0-2.8,2.33l-9.8,6.38-9.8,7.78c-4.05,1.55-7.34,1.3-9.88-.78s-3.74-3.91-3.58-5.52A9.24,9.24,0,0,1,353.09,715.41Z" transform="translate(-0.84 -0.75)"/><path class="cls-3" d="M555.81,655.2c.1-.62,1.35-1.09,3.73-1.4l7.63-5a20.36,20.36,0,0,1,3-1.08l8.56-2a21,21,0,0,0,6.07-2.17l2.33-1.56,5.91-2.8q1.88-1.56,4.59-15.64t4.9-19.52q2.17-5.44,6.61-6.07t8.95,5.91q2.34,3.74,3.66,15.17t3.73,12.29a17.58,17.58,0,0,0,5.37.94,49.82,49.82,0,0,1,16.18,4.9l7.46,8.24q3.73,3.27,3.89,4a6.46,6.46,0,0,1,.16,1.48,26.28,26.28,0,0,1-.78,3.89l-2.33,5.75-.47,3.58a8.07,8.07,0,0,1-2.26,2.33,9,9,0,0,1-4.74,1.72h-9.18l-8.56,2.33a22.8,22.8,0,0,0-6.38,2.64q-2,1.41-1.78,10.35T622,700q-.24,7.62,2.41,9c.93.62,3.29.76,7.08.39a55.61,55.61,0,0,1,7.7-.39,27.81,27.81,0,0,0,3.58.08c1-.05,1.71-.08,2-.08l3.73,4.36a31.17,31.17,0,0,1,3,4q.07.4-2.57,3.82l-5.13,11.2a26.28,26.28,0,0,1-5.37,5.91q-3.66,3.12-12.14,9.57T620,752.44c1.4-1.25,2.67-2.28,3.81-3.11l-7,5.29-4.66,2.8-3.89,2.64a48.07,48.07,0,0,1-4.67,2.1q-3.59,1.49-13.69,7.23L584,770.48l-3.43,1.4A27.45,27.45,0,0,1,571,774q-4.44.09-11.44-5.52-2.79-2-4-7.62l.93-10.11-.62-7.16a18.59,18.59,0,0,1,.62-5.6,16.16,16.16,0,0,1,2.41-5.91c1.09-1.56,2.1-2.44,3-2.65l3.89.62q0,.16,7-5.28c.52-.42,2.3-1.07,5.36-2a58.75,58.75,0,0,0,10.35-4.28q5.76-3,8-5.83t2.57-9v-7l.62-8.09c0-4.87-.78-7.26-2.33-7.15l-2.18.62a11.23,11.23,0,0,1-3.11-.24,13.74,13.74,0,0,0-5.76.55l-6.38,2c-.62.11-2.7.26-6.22.47q-8.72.62-11.59-.62a7.75,7.75,0,0,1-4.05-3.58,39.74,39.74,0,0,1-2.41-8.87,42.29,42.29,0,0,1-1-9.88A35.59,35.59,0,0,1,555.81,655.2Z" transform="translate(-0.84 -0.75)"/><path class="cls-3" d="M706.41,699.54a9.48,9.48,0,0,0-2.8-4.59,11.09,11.09,0,0,0-5.53-1.71,30.63,30.63,0,0,0-6.45-.08L683.85,695q-10.74,1.71-13.38-.93-1.4-1.1-2.18-5a30.34,30.34,0,0,0-1.56-5.68,5.05,5.05,0,0,1-.62-2.57,3.1,3.1,0,0,1,1.25-2.64,18.24,18.24,0,0,1,3.89-2l6.84-3.74,6.54-2.64q3.11-1.25,4.2-1.56l3.57-.47,8.56-3.26,5.13-1.25a29.17,29.17,0,0,0,4.28-2.41q3.66-2.25,12.06-4.82t11-4.75l2.49-2,6.85-3.89a5,5,0,0,0,.47-5.68q-1.56-2.72-8.72-2.1l-9.49,1.4q-11,1.56-11.66,1.71l-6.23,1.56-15.87,1.4L687,644.78c-3.84.93-8.71,1-14.63.15a8.59,8.59,0,0,1-3.81-1q-1.47-.85-2.25-9.25L665,626.42a10.66,10.66,0,0,1,0-5.13q1.25-4.51,3.81-5.53a22.69,22.69,0,0,1,6.3-1.32c2.5-.2,5.16-.57,8-1.09s5.29-.85,7.31-1a14.45,14.45,0,0,0,3.19-.39l5.6-.78,7-.31,5.91-1.24c.62,0,1.92.08,3.89.23s8.07-.26,18.28-1.24a217.55,217.55,0,0,1,28.55-1q25.05,1.08,28,1.55l7.16,2.34,3.73.15a18.42,18.42,0,0,1,7.16,3.42c2.8,2,4.2,3.79,4.2,5.45a5.16,5.16,0,0,0-.31,1.71v6.69c-.31,4.57-2.13,7.93-5.45,10.11a93.69,93.69,0,0,1-13.45,7q-8.49,3.74-12.68,4.52l-7,1.24q-.94.32-11.2,4.05l-9.34,3.42L739.85,667q-6.52,3.11-7.39,4.9a6,6,0,0,0-.7,3.19q.16,4.82,11.52,4.51A155.36,155.36,0,0,1,771,681.88q16.34,2.57,17.89,3t5.91,2.18q4.35,1.71,12.45,4.43t10.89,5.13a28.9,28.9,0,0,1,5,5.76c1.51,2.23,2.05,3.87,1.64,4.9a8.63,8.63,0,0,1-1.25,1.4q-1.08,1.1-2.72,5.91a18,18,0,0,1-4.9,7.78l-4.82,4.05a20.38,20.38,0,0,0-3.58,5l-2.65,5.29-4.51,6.85-5.13,8.4A55.09,55.09,0,0,0,792,757.1l-2.33,6.38-2.34,4.67-5.13,13.38a94.13,94.13,0,0,1-6.38,10.89q-4.66,7.16-5,7.78l-2.49,5-4.2,5.75-7.62,10.89a6.47,6.47,0,0,1-4.67,1.87q-5.91,0-8.24-5A23.31,23.31,0,0,1,741.41,808a24,24,0,0,1,.78-6.77,26.52,26.52,0,0,1,1.48-4,49.29,49.29,0,0,1,3.5-5.29l9.64-16.8q1.1-1.86,7.7-11.59t9.73-15.09q3.1-5.37,3.73-6.3l3.73-4.82c.21-.31,1-1.51,2.34-3.58s3.6-5.32,6.76-9.72,4.7-8.43,4.59-12.06a4.92,4.92,0,0,0-.62-2.34c-.31-.41-1.61-1-3.89-1.71L787,706.7q-2.49-.15-6.37,3.42a48.64,48.64,0,0,0-5.29,5.45L771,721.63l-4.05,5.29c-.31.52-1.08,2-2.33,4.28s-2.28,4.18-3.11,5.52l-3.73,5.92q-14.94,26.45-15.1,26.6L739.54,773l-7.93,10.58a78.36,78.36,0,0,1-11.36,10.27L714,799q-1.71,1.09-9.34,3.43L698,804.71q-7.46,2.34-19.21,1.71t-12.37-3.58a12.68,12.68,0,0,1,.78-6.84,20.12,20.12,0,0,1,1.71-3.81q1.25-2.27,7.55-5.76c4.2-2.33,6.56-3.71,7.08-4.12l7.31-5.29,14.78-8.09a82.9,82.9,0,0,0,18.51-15.09,100.05,100.05,0,0,0,14.94-19.61l3.57-6.68,4.67-7.78a39.78,39.78,0,0,0,4.9-11.75c.68-3.37.62-5.62-.15-6.77a7.39,7.39,0,0,0-3.66-2.64,7.06,7.06,0,0,0-7.16,1.48c-2.07,1.81-3.47,2.67-4.2,2.56a6.83,6.83,0,0,0-.62,1.4,6,6,0,0,1-2.1,2.49,18.22,18.22,0,0,0-3.65,4.2" transform="translate(-0.84 -0.75)"/><path class="cls-3" d="M715.33,688.54s-111,159.3-386,177.3c0,0-59,28-19,49S661.79,796.72,740.05,701C740.05,701,730.74,664.54,715.33,688.54Z" transform="translate(-0.84 -0.75)"/><text class="cls-5" transform="matrix(0.98, -0.19, 0.19, 0.98, 281.04, 559.52)"><tspan class="cls-6">L</tspan><tspan x="43.77" y="0">UCKY </tspan><tspan class="cls-7" x="269.43" y="0">F</tspan><tspan x="309.6" y="0">ARM</tspan></text><g class="cls-8"><path class="cls-3" d="M9.76,787.19c-5.16,0,2.46-1,2-6.2-.17-2.15,20.43-53.3,78.3-112.44,33.06-33.79,79.68-63.55,138.57-88.46,72.86-30.83,165-54.37,273.94-70,188.15-26.94,315.67-56.3,379-87.27,49.25-24.07,143.51-116.5,143.73-132.76a94,94,0,0,1,.47-9.6,10,10,0,0,1,19.86,2.38c-.26,2.14-.29,4.74-.33,7.49-.26,18.72-94.65,121-154.95,150.46-66.15,32.33-192.08,61.47-385,89.1C46.31,595.67,18.59,774.56,18.74,776.39c.44,5.5-2.66,10.32-8.17,10.77Z" transform="translate(-0.84 -0.75)"/></g></svg>