<?xml version="1.0" encoding="utf-8"?>
<!-- Generator: Adobe Illustrator 22.0.0, SVG Export Plug-In . SVG Version: 6.00 Build 0)  -->
<svg version="1.1" xmlns="http://www.w3.org/2000/svg" xmlns:xlink="http://www.w3.org/1999/xlink" x="0px" y="0px"
	 viewBox="0 0 1024 1024" style="enable-background:new 0 0 1024 1024;" xml:space="preserve">
<style type="text/css">
	.st0{fill:url(#SVGID_1_);}
	.st1{opacity:0.23;}
	.st2{fill:#C0223A;}
	.st3{fill:#FFFFFF;}
	.st4{font-family:'Cambria-Bold';}
	.st5{font-size:110px;}
	.st6{letter-spacing:10.5;}
	.st7{letter-spacing:5.3;}
	.st8{font-family:'MicrosoftYaHei-Bold';}
	.st9{font-size:168.8095px;}
	.st10{letter-spacing:8;}
</style>
<g id="图层_1">
	<linearGradient id="SVGID_1_" gradientUnits="userSpaceOnUse" x1="513.0887" y1="1025" x2="513.0887" y2="1">
		<stop  offset="0.1757" style="stop-color:#DB1A80"/>
		<stop  offset="0.8883" style="stop-color:#EB6464"/>
	</linearGradient>
	<path class="st0" d="M675.1,1025h-324c-192.5,0-350-157.5-350-350V351c0-192.5,157.5-350,350-350h324c192.5,0,350,157.5,350,350
		v324C1025.1,867.5,867.6,1025,675.1,1025z"/>
	<g>
		<g class="st1">
			<circle class="st2" cx="328.4" cy="275.3" r="34"/>
			<circle class="st2" cx="421.7" cy="203.3" r="35.3"/>
			<circle class="st2" cx="535.4" cy="172.7" r="40.3"/>
			<circle class="st2" cx="665.6" cy="173.6" r="43.3"/>
			<circle class="st2" cx="787.5" cy="235.4" r="51.8"/>
		</g>
		<g>
			<g>
				<circle class="st3" cx="328.4" cy="266.3" r="34"/>
				<circle class="st3" cx="421.7" cy="194.3" r="35.3"/>
				<circle class="st3" cx="535.4" cy="163.7" r="40.3"/>
				<circle class="st3" cx="665.6" cy="164.6" r="43.3"/>
				<circle class="st3" cx="787.5" cy="226.4" r="51.8"/>
			</g>
		</g>
	</g>
	<g class="st1">
		<circle class="st2" cx="278.4" cy="361.3" r="25.3"/>
		<polyline class="st2" points="310.6,377.3 386.4,377.3 382.1,404.7 168.7,404.7 172.9,377.3 254.5,377.3 		"/>
		<polygon class="st2" points="614.1,439.9 598.8,470.8 400.8,470.8 401.2,439.9 		"/>
		<path class="st2" d="M397.1,481.2l-13.9,93.1h199.5l17.9-93.1H397.1z M548.4,549.8h-120l6.5-42.1h122L548.4,549.8z"/>
		<path class="st2" d="M298.4,419.7H342c0,0-24.7,71.7,3.7,157h-45C300.7,576.7,275.4,496.3,298.4,419.7z"/>
		<path class="st2" d="M189,419.7h46c0,0-2.7,99.7-57,160.7h-45.3C132.8,580.3,189,498,189,419.7z"/>
		<polygon class="st2" points="407.3,426.3 494.3,345 551.1,345 618.9,425.6 556.6,426.9 520.3,377.3 469.3,426.9 		"/>
		<polygon class="st2" points="656.7,366 794,358.3 778.7,393 654,396.3 		"/>
		<polygon class="st2" points="654,402.3 684.7,402.3 690.4,444 656.7,444 		"/>
		<rect x="698.7" y="402.3" class="st2" width="32.3" height="43.7"/>
		<polygon class="st2" points="748.4,402.3 784.7,402.3 770,444 735.7,444 		"/>
		<polygon class="st2" points="645,456.5 691.4,456.5 693.3,448.3 731.8,448.3 730.4,456.5 780.8,455.3 764,481.5 752.8,481.5 
			752.8,571 723,569.3 723,497.2 723,497.2 712.9,568 670.3,582.5 685.8,483 683.8,483 659.8,573.1 624,573.1 661,482.5 
			637.8,482.5 		"/>
		<polygon class="st2" points="855.5,352.7 854.6,353.5 796.8,412.7 821.5,442.9 787.5,493.7 855.5,441 827.8,409.3 		"/>
		<polygon class="st2" points="844.4,466 768.4,531 784.7,557.5 681.9,684 824.4,567.5 802.9,533.5 		"/>
		<rect x="133.4" y="600" class="st2" width="597.7" height="16"/>
		<rect x="799" y="600" class="st2" width="85.3" height="16"/>
		<text transform="matrix(0.9497 -2.117831e-03 -0.1762 0.9843 216.021 713.8932)" class="st2 st4 st5 st6">MARK</text>
		<text transform="matrix(0.9497 -2.117831e-03 -0.1762 0.9843 768.1854 713.8945)" class="st2 st4 st5 st7">IX</text>
		<text transform="matrix(1 0 0 1 355.7164 892.5967)" class="st2 st8 st9 st10">快速</text>
	</g>
	<circle class="st3" cx="278.4" cy="352.3" r="25.3"/>
	<polyline class="st3" points="310.6,368.3 386.4,368.3 382.1,395.7 168.7,395.7 172.9,368.3 254.5,368.3 	"/>
	<polygon class="st3" points="614.1,430.9 598.8,461.8 400.8,461.8 401.2,430.9 	"/>
	<path class="st3" d="M397.1,472.2l-13.9,93.1h199.5l17.9-93.1H397.1z M548.4,540.8h-120l6.5-42.1h122L548.4,540.8z"/>
	<path class="st3" d="M298.4,410.7H342c0,0-24.7,71.7,3.7,157h-45C300.7,567.7,275.4,487.3,298.4,410.7z"/>
	<path class="st3" d="M189,410.7h46c0,0-2.7,99.7-57,160.7h-45.3C132.8,571.3,189,489,189,410.7z"/>
	<polygon class="st3" points="407.3,417.3 494.3,336 551.1,336 618.9,416.6 556.6,417.9 520.3,368.3 469.3,417.9 	"/>
	<polygon class="st3" points="656.7,357 794,349.3 778.7,384 654,387.3 	"/>
	<polygon class="st3" points="654,393.3 684.7,393.3 690.4,435 656.7,435 	"/>
	<rect x="698.7" y="393.3" class="st3" width="32.3" height="43.7"/>
	<polygon class="st3" points="748.4,393.3 784.7,393.3 770,435 735.7,435 	"/>
	<polygon class="st3" points="645,447.5 691.4,447.5 693.3,439.3 731.8,439.3 730.4,447.5 780.8,446.3 764,472.5 752.8,472.5 
		752.8,562 723,560.3 723,488.2 723,488.2 712.9,559 670.3,573.5 685.8,474 683.8,474 659.8,564.1 624,564.1 661,473.5 637.8,473.5 
			"/>
	<polygon class="st3" points="855.5,343.7 854.6,344.5 796.8,403.7 821.5,433.9 787.5,484.7 855.5,432 827.8,400.3 	"/>
	<polygon class="st3" points="844.4,457 768.4,522 784.7,548.5 681.9,675 824.4,558.5 802.9,524.5 	"/>
	<rect x="133.4" y="591" class="st3" width="597.7" height="16"/>
	<rect x="799" y="591" class="st3" width="85.3" height="16"/>
	<text transform="matrix(0.9497 -2.117831e-03 -0.1762 0.9843 216.021 704.8932)" class="st3 st4 st5 st6">MARK</text>
	<text transform="matrix(0.9497 -2.117831e-03 -0.1762 0.9843 768.1854 704.8945)" class="st3 st4 st5 st7">IX</text>
	<g>
		<path class="st3" d="M356.7,822.5c3.4-16.7,5.7-30.8,6.9-42.2l14.3,1.5c-1.5,13.2-3.8,27.6-6.9,43.4
			C366.2,824.2,361.4,823.3,356.7,822.5z M407.8,821.9h37.1c0.7-8.3,1.2-19.1,1.6-32.5h-29.7l8.2,13.2l-15.5,8.4l-8.9-19.5v114.7
			h-21.4V743.7h21.4v34.5l6.9-3.8l9.2,14.8v-20.8h30.2l0.3-24.4h21.4l-0.3,24.4h40.4v53.4h11.5v20.9h-46.4
			c9.5,19.9,25,33.7,46.4,41.5c-3.6,5.5-8.1,12.7-13.4,21.6c-21.9-8.8-37.9-25.9-47.9-51.3c-5.8,20.2-19.9,37.6-42.3,52.3
			c-4.9-7.7-9.9-14.8-15-21.3c20.6-10.7,33.8-24.9,39.6-42.9h-33.5V821.9z M487.6,789.4H468c0.1,8.7-0.3,19.5-1.3,32.5h20.9V789.4z"
			/>
		<path class="st3" d="M607.5,883c22,0.7,52.6,0.5,91.8-0.3c-3.2,8.1-5.8,15.1-7.9,20.8c-32.1,0-61.7-0.3-88.7-0.8
			c-16.7,0-29.9-5.3-39.7-16c-4.4,5.1-10.4,11.9-18,20.4l-9.2-24.6c4.4-4,9.6-8.5,15.5-13.5v-46h-14.7v-21.8h35.3v67.9
			C578.4,878.4,590.2,883,607.5,883z M558.5,743.6c7.7,11.7,14.3,22.4,19.9,32.3c-8.4,4.3-15.1,7.9-20.3,10.7
			c-5.4-11.2-11.4-22.3-18-33.3L558.5,743.6z M655.6,836.9c14.7,7.1,28.8,14.5,42.2,21.9l-10.6,17.3c-13.8-8.5-26.7-15.9-38.6-22.3
			v25.7h-20.9v-27.4c-9.9,10.3-21.1,18.6-33.6,24.9c-3.5-5.8-8-12.1-13.5-18.8c15.2-4.5,28.8-12.1,40.9-22.9h-32.8v-47.5h39.1v-10.2
			h-44.7v-19.8h44.7v-14.2h20.9v14.2h45.2v19.8h-45.2v10.2h39.2v47.5h-39.2v12.7L655.6,836.9z M607.2,818.2h20.6V805h-20.6V818.2z
			 M669.5,805h-20.8v13.2h20.8V805z"/>
	</g>
</g>
<g id="图层_2">
</g>
</svg>
