<svg id="图层_1" data-name="图层 1" xmlns="http://www.w3.org/2000/svg" xmlns:xlink="http://www.w3.org/1999/xlink" viewBox="0 0 1024 1024"><defs><style>.cls-1{fill:url(#未命名的渐变_77);}.cls-2{opacity:0;}.cls-3{fill:#1e9f3a;}.cls-4{fill:#fff;}</style><linearGradient id="未命名的渐变_77" x1="512" y1="1024" x2="512" gradientUnits="userSpaceOnUse"><stop offset="0.18" stop-color="#57a434"/><stop offset="0.89" stop-color="#a3ce64"/></linearGradient></defs><title>22</title><rect class="cls-1" width="1024" height="1024" rx="350" ry="350"/><g class="cls-2"><path class="cls-3" d="M365.09,422.5S295.59,399,281.59,295s-104-62-81.5,0S302.09,432,365.09,422.5Z" transform="translate(-1.09 -1)"/></g><path class="cls-4" d="M365.09,422.5S295.59,399,281.59,295s-104-62-81.5,0S302.09,432,365.09,422.5Z" transform="translate(-1.09 -1)"/><g class="cls-2"><path class="cls-3" d="M377.59,417s-49-134,32.5-201.5,11-99.5-16-97.5-73,34-88,105S337.09,401,377.59,417Z" transform="translate(-1.09 -1)"/></g><path class="cls-4" d="M377.59,417s-49-134,32.5-201.5,11-99.5-16-97.5-73,34-88,105S337.09,401,377.59,417Z" transform="translate(-1.09 -1)"/><g class="cls-2"><path class="cls-3" d="M404.69,289.16s94.08-177.33,266-171.09c151.4,5.5,82.48,151.06-9.5,109.59C585.59,193.57,431.19,282.66,404.69,289.16Z" transform="translate(-1.09 -1)"/></g><path class="cls-4" d="M404.69,289.16s94.08-177.33,266-171.09c151.4,5.5,82.48,151.06-9.5,109.59C585.59,193.57,431.19,282.66,404.69,289.16Z" transform="translate(-1.09 -1)"/><polygon class="cls-4" points="534.5 484 525.5 509 429.38 509 429.38 484 534.5 484"/><polygon class="cls-4" points="200 531.5 217.5 531.5 195.41 649 232.5 636 257 496.5 205.5 500 200 531.5"/><polygon class="cls-4" points="276 496 270.5 527.5 288 527.5 265.91 645 303 632 327.5 492.5 276 496"/><ellipse class="cls-4" cx="375.09" cy="495" rx="23.04" ry="19.14" transform="translate(-240.51 583.94) rotate(-61.17)"/><path class="cls-4" d="M371.59,622.5l20-99h-48l-8,26h17l-24,124h14s16.7-21.5,33.1-8l126.9-1,18.5-26.5H379.59Z" transform="translate(-1.09 -1)"/><polygon class="cls-4" points="451 568.75 419.5 568.75 384.5 622 423.75 622 451 568.75"/><polygon class="cls-4" points="445.25 471 413.25 471 399.25 532 431.25 532 445.25 471"/><polygon class="cls-4" points="491.6 564.5 514.13 564.5 525.57 539.5 478.64 539.5 491.25 471 461.25 471 448.64 539.5 392 539.5 392 564.5 461.6 564.5 451 622 458.79 622 458.79 622 519.85 622 525.57 597 485.61 597 491.6 564.5"/><path class="cls-4" d="M626.8,524.15q-24.06,0-42,19.08L597,495.1h78.65l6.7-25.65H579.11L555.24,561.1l25.92,5.23q14-19.33,35.12-19.33,14,0,21.24,9.54t5.08,23.4A40.8,40.8,0,0,1,630,603.77q-10.37,9.84-26.65,9.85-26.49,0-30.89-25.41l-29.36,4.25q1.68,23.34,17.88,34.41t40.14,11.06q30.14,0,50.1-17.14t23.67-40.85q3.57-22.73-10.31-39.26T626.8,524.15Z" transform="translate(-1.09 -1)"/><path class="cls-4" d="M320.1,867.09l3,.52a19.92,19.92,0,0,0,7.59-.2l6.46-1.56,7.28-.52,5.23-.73,6.76-.52a82.4,82.4,0,0,0,8.36-1.29c4.27-.8,6.9-1.59,7.89-2.39s1.49-4.34,1.49-10.64l1.64-16.29.21-12.56.51-14.32-.72-14.11a81.07,81.07,0,0,0-.72-9.34L372,772.86a14.58,14.58,0,0,1,1.84-9.13q3.07-5.7,10.67-3.84,4.92,1.35,7.12,4.1a37.81,37.81,0,0,1,4.51,7.83,40.9,40.9,0,0,1,2.72,7.11c.27,1.35.56,3.26.87,5.71s.84,4.05,1.59,4.78,2.15,1.08,4.2,1.08a40.42,40.42,0,0,0,6.1-.46q4.66-.57,25.28-1.51,13.94-.51,23.42,3.32t9,10.17c-.2,2.22-1.55,4.43-4,6.65s-7,3.46-13.38,3.73L433.9,812a75.51,75.51,0,0,0-10.71.52q-5.07.62-5.9.62l-11.79-.73a8.31,8.31,0,0,0-3.84,1.4c-1,.73-1.51,2.48-1.54,5.24s-.39,7.58-1.08,14.43l-.71,8-1.44,8.82q-.51,4.77,1.08,7.11a5.32,5.32,0,0,0,4,2.54l3.28-.2,5.74.83h3.28q2.56.3,11.48,1.76a101.09,101.09,0,0,1,14.51,3.27,61,61,0,0,0,7.59,2.13,36.11,36.11,0,0,0,5.89.2q9.43-.09,20.61-1.14t14.35-1.09c2.12,0,3.2.45,3.23,1.46s-.8,2.82-2.51,5.44c-.14.21-.63,1.15-1.49,2.81a45.29,45.29,0,0,1-3.64,5.76q-2.35,3.27-3.69,5.34a25.92,25.92,0,0,1-2.35,3.22,53.48,53.48,0,0,1-4.87,4.25q-3.85,3.12-5.28,3.58A10.3,10.3,0,0,1,465,898a25.16,25.16,0,0,1-7.28-1.14c-3-.83-5.09-1.45-6.26-1.87l-4.82-2.7L436,888.68l-16.81-4.46a48.49,48.49,0,0,0-11.07-1.87L392,881q-.41,0-18.35,2.54t-24.51,4.62a70.93,70.93,0,0,1-10,2.6l-8,1.24q-10.56,2.49-14.46,2a9.16,9.16,0,0,1-5.48-2.44q-2.31-2.12-3.28-8.77a18.55,18.55,0,0,1,1.49-11.41Q311.89,866.48,320.1,867.09Z" transform="translate(-1.09 -1)"/><path class="cls-4" d="M525.91,833.47l.41-5.5q1.42-2.18,2.36-3.84a12.81,12.81,0,0,1,1.74-2.54q.81-.89,6.41-3.27c3.72-1.59,5.69-2.42,5.89-2.49l8-.73c2.87-.41,4.51-.62,4.92-.62l2.66.62h2.47a15.19,15.19,0,0,1,2.35.47,25.31,25.31,0,0,0,3.44.62,7.25,7.25,0,0,1,3.59,1.4c1,.76.8,1.7-.57,2.8l-3.18,4.15q-1.12.94-1.53,1.35l-4,4.88a39.14,39.14,0,0,1-5.74,4.26c-1,.48-1.78.83-2.26,1l-3.59,2.08-3.69.52a17.18,17.18,0,0,0-7,2.38q-5.13.84-7-.31l-3.9-3.63-1.43-1.24Zm5,43.69c1.09-1.66,1.81-2.77,2.15-3.32l.77-1.25a28.81,28.81,0,0,1,4.15-2.9l3.59-2.7q2.77-2,13-7.63t13.08-6.59q2.8-.93,4.4.21t-3.53,9.13a27.73,27.73,0,0,0-2.26,3.95l-1.43,3.52-4.31,6.13-.41,1.76c-1.09,1.39-2.17,2.63-3.23,3.74s-4.53,3.39-10.41,6.85l-1.94,1.87a31.62,31.62,0,0,0-3.9.93,25.45,25.45,0,0,0-3.59,1.71,7.71,7.71,0,0,1-4,1.2,4.3,4.3,0,0,1-2.61-.73,5,5,0,0,1-1.44-1.56,24,24,0,0,1-1.28-3.32,19.63,19.63,0,0,1-.87-5.71C526.85,880.31,528.2,878.54,530.93,877.16ZM574,774l5.33,2.7,1.13,1a16.82,16.82,0,0,1,.46,3.79,15,15,0,0,1-.51,3.11,7.06,7.06,0,0,1-.57,1.82l-2.05,1.35a9.52,9.52,0,0,1-2.4,2,9.09,9.09,0,0,1-3.23.78q-7.39,5.29-9.23,6.12a29,29,0,0,1-6.26,1.61c-2.94.52-4.44.81-4.51.88L550,800.67q-9.74.74-16-2.28a22.73,22.73,0,0,1-1-3.22,10.37,10.37,0,0,1-.2-2.07l.1-2.18-.1-8.51a12.73,12.73,0,0,1,2.3-5.29,15.87,15.87,0,0,1,4.21-4.21,11.69,11.69,0,0,1,3.33-1.71c.07,0,.92.14,2.56.42s4.68.08,9.13-.57,7.17-.85,8.2-.57l9.43,1.86A8.57,8.57,0,0,0,574,774Zm3.69,56.36L578,830c1.23-.13,2.32-.24,3.28-.31a41.94,41.94,0,0,1,5.23.21,39,39,0,0,0,5.13.21l7.17-1.35c3.21-.55,5.2-1.21,6-2a6,6,0,0,0,1.43-3.53l-.71-6.12-.41-13.81-5.44.83a13.79,13.79,0,0,1-3.12-.41,33,33,0,0,1-5.08-2.7l-2.87-1.66a2.86,2.86,0,0,1-.82-.47,4.5,4.5,0,0,1-.82-1.14,16.14,16.14,0,0,1-1.13-4.05q-.62-3.16,9.64-5.86a26.2,26.2,0,0,1,2.15-2.59l6.87-5,5-5,3.08-2.38q1.34-2.6,6.36-8.31,3.38-6,5-7.21t4.41-.36A7.86,7.86,0,0,1,632,759a11.16,11.16,0,0,1,1.74,3.68c.55,1.73.86,2.63.92,2.7l2.06,3.63a103.17,103.17,0,0,0,16.71,1.35l12.2-.52c.82.07,2.52.25,5.12.52a58.26,58.26,0,0,0,9,.16,35.54,35.54,0,0,1,7,.1,9.13,9.13,0,0,0,3.13.16,29.2,29.2,0,0,0,3.63,1.29,15.55,15.55,0,0,1,3.08,1.2,3.24,3.24,0,0,1,1.74,2,15.49,15.49,0,0,1,.21,4.36,16.62,16.62,0,0,1-.26,3.06l-3.79,2.39c-1.37,0-3.28,0-5.74,0s-4,0-4.72,0l-8.71-.62-11.49-.21-5.12-.83q-3.07-.32-19.89.83a12.14,12.14,0,0,1-1.64.93l-4.92.21-7.08,3.22-1.33,1a44.21,44.21,0,0,0-7.89,5.92l-.41,2.39-.41,1.35q2,7.47,2.66,11.1L619,819c.61,2.91,1.3,4.33,2,4.26l4.72.83c4,.41,6.39.45,7.27.1l2.88-.93q23.16,1.86,25.93,1.56,7.08-.63,9.23-3.69a12.76,12.76,0,0,0,2-7.83l-.61-2.18-2.36-1.87a32.06,32.06,0,0,0-9.13-1.87,5.76,5.76,0,0,1-1.18.36q-.36.06-25.68.57a12.85,12.85,0,0,1-3.18-.62l-5.84-3.22c-1.23-2.49-1.64-4.35-1.23-5.6a4.83,4.83,0,0,1,3.08-2.85q2.46-1,14.86-5.14a10.76,10.76,0,0,0,3.28.41l6.15-1.24a30.37,30.37,0,0,0,3.08.52l8.3.31,5.75.93,7.17.83,4.82,1.35,4.92.21c1.85.21,3,.59,3.38,1.14l2.57,3.12q-.62,4.66-1.23,5.39L687.18,808l-.72,3.43L685,813.34q-.19,1.14-1.23,6.12a35.79,35.79,0,0,0-.92,5.4l.62,4.35,1.12.83q10.67,1.66,16.25.84c3.73-.56,6.68-.47,8.87.25a22.43,22.43,0,0,1,3.69,1.41l2.16,2.17q-.32,1.56-1.29,5.87t-6.1,7.89a47.61,47.61,0,0,1-6.45,4.09q-1.34.53-5.85.42a18.64,18.64,0,0,1-8.2-2.39c-3.15-1.59-5.33-2.31-6.56-2.18-1.71.21-2.84.68-3.38,1.4s-1.07,3-1.54,6.65-.65,5.69-.52,6a3.62,3.62,0,0,0,1,2.08,7.19,7.19,0,0,0,2.82.62,14.54,14.54,0,0,1,4.46,1.2,37.19,37.19,0,0,0,5.18,1.76,15.9,15.9,0,0,1,3.12,1l3.18,3.94,1.23.83,1.23,9.24a11.1,11.1,0,0,1-2.56,3.84c-.89.76-2.43,1-4.61.83l-4.52-.83-3.38-.32a9.11,9.11,0,0,1-1.74-.31l-6.56-2.38-2.87-.11a3.92,3.92,0,0,0-1.44,1.77,14,14,0,0,0-2.56,2.8l-1.34,2.39-4.61,7.36L659.39,902c-1.64,1.66-2.6,2.5-2.87,2.5l-8.4,1.55c-.76-.28-1.32-.47-1.7-.57a6,6,0,0,0-1.94,0,46.84,46.84,0,0,1-6.1-.15,54.32,54.32,0,0,1-8.56-1.2,33.49,33.49,0,0,0-5.28-.93c-1,0-1.44-.26-1.44-.68a18.39,18.39,0,0,1-3.69-1l-5.43-2.6c-2.74-1.11-4.17-2-4.31-2.59l-.62-1.56a24.33,24.33,0,0,1,8.72-4.77l5.74-1.25a37.69,37.69,0,0,1,10.56-1q6.36.16,8.3.06a22.46,22.46,0,0,0,6.51-1.25q2.31-.93,6.62-5a11.48,11.48,0,0,0-1.23-3.22l-2.77-2.7-.62.52a35.5,35.5,0,0,0-12.91-.93l-7.49.62a26.53,26.53,0,0,0-8.82-.83c-2.73.62-5.31,1.11-7.74,1.45s-3.74.52-3.94.52l-8.41,2.6-5,1.45L592,882.87a18.66,18.66,0,0,1-13.54.1,8.47,8.47,0,0,1-3.28-1.87l-1.54-.41a9.73,9.73,0,0,1-.51-2,7,7,0,0,1,.41-2.55c.34-1.14.56-1.9.67-2.28a33,33,0,0,1,3.74-4.77q3.59-4.2,4.1-4.62l4.41-1.76,5-3a14.92,14.92,0,0,0,1.54-4.78v-2.28l1.13-5.5c-.35-.48-2.15-.38-5.44.31l-7.48,1.24-4.82,1.35a26.37,26.37,0,0,0-2.87.52c-.82.21-1.26.28-1.33.21L570,849.56q-2.25-7.57-1.23-10.8l1.54-2.9a19.87,19.87,0,0,1,2.05-3.58Q573,831.61,577.68,830.36Zm35.12,15.15q-1.08.51-3.13,3.53a6.8,6.8,0,0,0-1.33,5.7l.51,3,5,.73,34,1,6.66,1.35c3.08.83,4.75.93,5,.31l2.56-3.84.62-1.14.51-.52a7,7,0,0,1,.1-2.18l1.33-6.64c-.41-1.46-1.83-2.7-4.25-3.74s-9.66-.93-21.68.31c1.09.62,1.74.76,1.94.42l.52-.73.92.73,4.82.31,2,4.25q-2.67,8.31-4.93,9.34a3.89,3.89,0,0,1-3.69.21l-2.05-1.35-3.69-2-2.77-2.91-1.53-3.94c.88-1.8,1.26-2.7,1.12-2.7l-15.27-.21A9.08,9.08,0,0,0,612.8,845.51ZM637,811.05a3.58,3.58,0,0,0,1.54-.41l1.54-1c.89-.48,2.83-.76,5.84-.83.34-.21,1,0,2,.52l3.39,1.56,4.61,4.56h-.51l-.21.31v1.87a16.71,16.71,0,0,1-1.54,3,8.63,8.63,0,0,1-2.35,2.13,5.76,5.76,0,0,1-2.16,1.09,2.06,2.06,0,0,1-1.64-.31l-2.15-1.35a7.94,7.94,0,0,1-2.46-1.45l-1.23-.63q-1.74-.83-4.2-6.85H637Z" transform="translate(-1.09 -1)"/><path class="cls-4" d="M420,308.62a72,72,0,0,0-13.08,13.81Q413.17,315.28,420,308.62Z" transform="translate(-1.09 -1)"/><path class="cls-4" d="M523.75,406c-2.58,2.86-5.07,5.83-7.44,8.89A71.08,71.08,0,0,0,523.75,406Z" transform="translate(-1.09 -1)"/><path class="cls-4" d="M590.3,239.24A242.81,242.81,0,0,0,420,308.62q-6.81,6.64-13.08,13.81a71.84,71.84,0,0,0,109.41,92.49c2.37-3.06,4.86-6,7.44-8.89,24.3-26.84,57.81-44.41,94.28-44.41,72.44,0,129.1,69.29,129.1,143S693.87,672.69,593.76,692.85c-39.9,8-71.36,12.12-95.9,13A243.21,243.21,0,0,0,590.3,724c134.31,0,243.2-108.51,243.2-242.38S724.61,239.24,590.3,239.24Z" transform="translate(-1.09 -1)"/></svg>