<svg id="图层_1" data-name="图层 1" xmlns="http://www.w3.org/2000/svg" xmlns:xlink="http://www.w3.org/1999/xlink" viewBox="0 0 1024 1024"><defs><style>.cls-1{fill:url(#未命名的渐变_7);}.cls-2{opacity:0.2;}.cls-3,.cls-4{fill:#ff0043;}.cls-4,.cls-9{font-size:111.93px;font-family:Archivo-SemiBold, Archivo;font-weight:700;}.cls-5{letter-spacing:-0.03em;}.cls-6{letter-spacing:-0.02em;}.cls-7{fill:#fcfcfc;}.cls-8,.cls-9{fill:#fff;}</style><linearGradient id="未命名的渐变_7" x1="512" x2="512" y2="1024" gradientUnits="userSpaceOnUse"><stop offset="0" stop-color="#ff9ad8"/><stop offset="1" stop-color="#ff2b58"/></linearGradient></defs><title>五分时时彩图标</title><rect class="cls-1" width="1024" height="1024" rx="350" ry="350"/><g class="cls-2"><path class="cls-3" d="M141,457,103.5,676.5,159,673l41-39,29-184Zm21.5,187.5h-18l10-64h16Zm16-95h-18l10-64h16Z"/><polygon class="cls-3" points="243 461 307 459 309 445 346 428 346 452 364 453 338 489 316 628 283 662 237.5 637.5 276.5 635.5 300.5 487.5 240.37 489.94 243 461"/><ellipse class="cls-3" cx="257" cy="547" rx="29.18" ry="21.18" transform="translate(-265.11 242.61) rotate(-34.59)"/><path class="cls-3" d="M389,435,351.5,654.5,407,651l41-39,29-184Zm21.5,187.5h-18l10-64h16Zm16-95h-18l10-64h16Z"/><polygon class="cls-3" points="491 439 555 437 557 423 594 406 594 430 612 431 586 467 564 606 531 640 485.5 615.5 524.5 613.5 548.5 465.5 488.37 467.94 491 439"/><ellipse class="cls-3" cx="505" cy="525" rx="29.18" ry="21.18" transform="translate(-208.78 379.52) rotate(-34.59)"/><path class="cls-3" d="M639,417s84-3,111-14a270.88,270.88,0,0,0,46-24s-23,39-47,47-114,17-114,17Z"/><rect class="cls-3" x="635" y="450" width="35" height="40"/><rect class="cls-3" x="678" y="445" width="35" height="40"/><polygon class="cls-3" points="730 441 766 441 752 483 718 483 730 441"/><polygon class="cls-3" points="622 508 673 504 673 492 710 492 709 498 758 498 742 523 702 527 688 627 652.5 617.5 668.5 533.5 617.5 534.5 622 508"/><path class="cls-3" d="M632.5,543.5h27s-15,67-24,76-50,16-50,16,29-26,35-41S632.5,543.5,632.5,543.5Z"/><rect class="cls-3" x="706.5" y="534.5" width="36" height="82"/><path class="cls-3" d="M922,342s-56-3-91,43c-24.87,32.69-44.18,83-53.28,109.45-3.8,11-6.72,22.59-6.72,34.25v35.05c0,6,1.63,11.94,2.72,17.81A59.19,59.19,0,0,1,766,623c-15,25-49,72-46,93,2.25,15.76,24.77,28.13,35.87,33.33a12.26,12.26,0,0,1,7.13,11c0,8.12-2.58,20.05-17,25.7-23,9-33,16-48,16-12.49,0-190,1.39-249.06,1.85a83.66,83.66,0,0,0-35.22,8.09C380.76,827.58,304.48,861.6,248,870c0,0,80,32,132,28s127-62,150-64c19.66-1.71,133.56-.5,166.24-.11a68,68,0,0,0,19.84-2.7c14-4.08,38.38-15,55.93-31.19,26-24,25-54,23-68s-28-27-25-57,56-40,62-73-20-93-11-113S899,352,922,342Z"/><path class="cls-3" d="M508,215l2-16L354.5,213.5l-1,15,53-5-14,45h-45l1,16h34l-21,62L323,351v12l173-14-1-14H468l11-74-69,3,12-42Zm-46.5,62.5-9,61-70,5,19-63Z"/><path class="cls-3" d="M587,184l15,3s-44,65-74,82l-10-11S571,214,587,184Z"/><path class="cls-3" d="M627,186s8,39,46.5,70.5l16-14s-23-5-47-63Z"/><path class="cls-3" d="M542.44,258.32,655.5,250.5s-8,70-24,84-51,12-51,12l-2-16s42,2,48-14,11-50,11-50l-52,3s-7,41-31,62-40,25-40,25l-5-13s26-14,37-27,21-44,21-44l-27,1Z"/><text class="cls-4" transform="matrix(0.98, -0.09, -0.01, 1, 124.19, 793.69)"><tspan xml:space="preserve">  LOTTE</tspan><tspan class="cls-5" x="427.02" y="0">R</tspan><tspan class="cls-6" x="504.47" y="0">Y</tspan></text></g><path class="cls-7" d="M141,439,103.5,658.5,159,655l41-39,29-184Zm21.5,187.5h-18l10-64h16Zm16-95h-18l10-64h16Z"/><polygon class="cls-7" points="243 443 307 441 309 427 346 410 346 434 364 435 338 471 316 610 283 644 237.5 619.5 276.5 617.5 300.5 469.5 240.37 471.94 243 443"/><ellipse class="cls-7" cx="257" cy="529" rx="29.18" ry="21.18" transform="translate(-254.9 239.43) rotate(-34.59)"/><path class="cls-7" d="M389,417,351.5,636.5,407,633l41-39,29-184Zm21.5,187.5h-18l10-64h16Zm16-95h-18l10-64h16Z"/><polygon class="cls-7" points="491 421 555 419 557 405 594 388 594 412 612 413 586 449 564 588 531 622 485.5 597.5 524.5 595.5 548.5 447.5 488.37 449.94 491 421"/><ellipse class="cls-7" cx="505" cy="507" rx="29.18" ry="21.18" transform="translate(-198.56 376.33) rotate(-34.59)"/><path class="cls-8" d="M639,399s84-3,111-14a270.88,270.88,0,0,0,46-24s-23,39-47,47-114,17-114,17Z"/><rect class="cls-8" x="635" y="432" width="35" height="40"/><rect class="cls-8" x="678" y="427" width="35" height="40"/><polygon class="cls-8" points="730 423 766 423 752 465 718 465 730 423"/><polygon class="cls-7" points="622 490 673 486 673 474 710 474 709 480 758 480 742 505 702 509 688 609 652.5 599.5 668.5 515.5 617.5 516.5 622 490"/><path class="cls-8" d="M632.5,525.5h27s-15,67-24,76-50,16-50,16,29-26,35-41S632.5,525.5,632.5,525.5Z"/><rect class="cls-7" x="706.5" y="516.5" width="36" height="82"/><path class="cls-7" d="M922,324s-56-3-91,43c-24.87,32.69-44.18,83-53.28,109.45-3.8,11-6.72,22.59-6.72,34.25v35.05c0,6,1.63,11.94,2.72,17.81A59.19,59.19,0,0,1,766,605c-15,25-49,72-46,93,2.25,15.76,24.77,28.13,35.87,33.33a12.26,12.26,0,0,1,7.13,11c0,8.12-2.58,20.05-17,25.7-23,9-33,16-48,16-12.49,0-190,1.39-249.06,1.85a83.66,83.66,0,0,0-35.22,8.09C380.76,809.58,304.48,843.6,248,852c0,0,80,32,132,28s127-62,150-64c19.66-1.71,133.56-.5,166.24-.11a68,68,0,0,0,19.84-2.7c14-4.08,38.38-15,55.93-31.19,26-24,25-54,23-68s-28-27-25-57,56-40,62-73-20-93-11-113S899,334,922,324Z"/><path class="cls-8" d="M508,197l2-16L354.5,195.5l-1,15,53-5-14,45h-45l1,16h34l-21,62L323,333v12l173-14-1-14H468l11-74-69,3,12-42Zm-46.5,62.5-9,61-70,5,19-63Z"/><path class="cls-8" d="M587,166l15,3s-44,65-74,82l-10-11S571,196,587,166Z"/><path class="cls-8" d="M627,168s8,39,46.5,70.5l16-14s-23-5-47-63Z"/><path class="cls-8" d="M542.44,240.32,655.5,232.5s-8,70-24,84-51,12-51,12l-2-16s42,2,48-14,11-50,11-50l-52,3s-7,41-31,62-40,25-40,25l-5-13s26-14,37-27,21-44,21-44l-27,1Z"/><text class="cls-9" transform="matrix(0.98, -0.09, -0.01, 1, 124.19, 775.69)"><tspan xml:space="preserve">  LOTTE</tspan><tspan class="cls-5" x="427.02" y="0">R</tspan><tspan class="cls-6" x="504.47" y="0">Y</tspan></text></svg>