<svg id="图层_1" data-name="图层 1" xmlns="http://www.w3.org/2000/svg" xmlns:xlink="http://www.w3.org/1999/xlink" viewBox="0 0 1024 1024"><defs><style>.cls-1{fill:none;}.cls-2{fill:url(#未命名的渐变_4);}.cls-3{clip-path:url(#clip-path);}.cls-4{fill:#fff;}</style><linearGradient id="未命名的渐变_4" x1="512" x2="512" y2="1024" gradientUnits="userSpaceOnUse"><stop offset="0" stop-color="#92e2f8"/><stop offset="1" stop-color="#095ad6"/></linearGradient><clipPath id="clip-path" transform="translate(0 -1)"><rect class="cls-1" x="51" y="316.05" width="924" height="383.74"/></clipPath></defs><title>10</title><rect class="cls-2" width="1024" height="1024" rx="350" ry="350"/><g class="cls-3"><path class="cls-4" d="M852,590.29l21.19-1.11c1.84-.09,4.55-.55,5.12-2.94,1.15-4.42.4-8.35-5.71-8.06-5.07.24-10.15,0-15.23,0-8,0-16-.11-23.94.09a7.68,7.68,0,0,0-7.75,8.65c.59,5,4.39,4.57,7.86,4.4,6.16-.29,18.46-1,18.46-1m-81.37-51.81v.06c-8,0-16-.09-23.94,0-4,.06-7.25,4-6.23,10.24.57,3.53,3.54,3.34,5.9,3.36,12.15.1,24.3,0,36.45,0,3.44,0,6.9.14,10.33-.15,4.39-.37,7.29-4.26,6.95-8.9s-3.79-4.6-7.17-4.59H770.58m95.25,0c-8.16,0-16.32-.14-24.48.05-4.85.11-8.09,3.85-7.88,8.66.22,5,3.92,4.89,7.47,4.89,14.15,0,28.29,0,42.44,0,8.11.06,8,0,10.38-7.83,1.41-4.69-.16-6-4.54-5.87-7.79.14-15.59,0-23.39,0M925.52,423l-.5-1.53H896.21c-11.28,0-22.56-.08-33.84.09-5,.06-8,3.49-8,8.57,0,5.49,4,5.24,7.71,5.24,12.56,0,25.16-.68,37.64.23,11.58.83,18.11-6.59,25.75-12.6m-84.25,89.27c2.72.16,5.56.49,8.4.5,20.57,0,41.13,0,61.69,0a35.1,35.1,0,0,1,7.6.63c8.1,1.79,12.75,8.62,11.27,16.78-1.78,9.75-3.68,19.48-6,29.12a22.67,22.67,0,0,1-4.25,8.15c-5,6.5-4.77,7.56.57,14a298.7,298.7,0,0,1,18.17,24c4.7,7,3.18,13.61-3.15,19.06-6.77,5.82-16.72,7.57-21.33,1.89-8.31-10.25-18.71-10.12-30-9.54q-86.94,4.46-173.89,8.52c-9.82.48-19.63,1-29.45,1.39-9,.34-15-3.13-16.1-9.07-1.33-7.07,3.13-14.94,11-17.64a52.82,52.82,0,0,1,14.39-2.41c28.9-1.44,57.79-2.64,86.69-4A51.5,51.5,0,0,0,785,593c4.64-1,7.42-5.35,6.92-10.35-.52-5.27-4.49-4.42-7.82-4.44-20.93,0-41.86,0-62.78,0-13,0-19-7.48-16.35-20.28,1.89-9.17,3.61-18.38,5.57-27.53a21.29,21.29,0,0,1,18.81-17.26,52.85,52.85,0,0,1,6.54-.32c20.19,0,40.39-.09,60.59,0,5.74,0,10.35-1,12.5-7.26.72-2.12,2.74-3.79,4.65-6.31-2.39-.77-4.44-1.62-6.57-2.11A119.8,119.8,0,0,1,765,478.35c-6.85-4.78-8.16-4.29-14.35,1.6q-14.45,13.8-29.66,26.76c-3.54,3-8.07,5-12.38,6.82-6.62,2.84-12.86.43-16.88-5.92-3.15-5-2.37-10.41,2.48-15.46a43.94,43.94,0,0,1,6.27-5.28A186.49,186.49,0,0,0,742,445.75c4-5.4,7.28-11.41,11.36-16.79s9.9-7.22,16.55-5.44c8.31,2.21,10.65,6,8.76,14.54-1,4.51-.52,8.78,3.27,11.47,8,5.65,16.1,11.19,24.56,16.08,4.51,2.6,6.91.86,8-4.52q3.35-16.17,6.47-32.39c1.09-5.58-.32-7.21-6.28-7.22q-40.4-.06-80.79,0c-1.83,0-3.65,0-5.46,0-9.49-.06-14.8-4-15.21-11.42s6-14.83,13.92-15.93a49,49,0,0,1,6.53-.24q111.64,0,223.28,0c6.52,0,13,.05,16.48,7,3.58,7.19-.8,12.41-4.88,17.32-4.43,5.33-9.39,10.23-14.18,15.27-2.74,2.88-4.31,5.66-3.51,10.22,1.6,9.2-7.23,17.43-18.12,17.46-24.57.06-49.14,0-73.7,0-1.64,0-3.28,0-4.91,0-5,.13-7.33,3.18-7.54,7.71-.23,5.06,3.8,5.21,7.28,5.27,32.38.47,64.76.83,97.14,1.35a33.45,33.45,0,0,1,10.66,1.62c6.32,2.3,8.43,7.88,6.14,14.37-2.62,7.41-10.07,12.76-19.37,12.65-32.74-.4-65.47-1.13-98.21-1.74-.18,0-.36,0-.55,0-9.63-.76-9.85-.52-8.46,9.87" transform="translate(0 -1)"/><path class="cls-4" d="M595.72,578.22s-13.8-.15-20.67.11a7.62,7.62,0,0,0-7.16,8.65c.56,4.62,4,4.54,7.38,4.38,13.22-.64,26.45-1.2,39.66-2.13,2-.14,5.36-1.79,5.59-3.17.8-4.89-1.86-7.76-6.3-7.83-6.17-.09-12.34,0-18.5,0m-82.88-39.73s-16,0-23.93.08c-4.05.06-7.72,4-6.23,10.24.89,3.76,3.55,3.34,5.9,3.36,12.15.1,24.3,0,36.45,0,3.43,0,6.9.14,10.33-.15,4.37-.37,7.29-4.26,6.94-8.9s-3.78-4.6-7.15-4.59c-7.44,0-14.87,0-22.31,0m95.4,0v0c-8.34,0-16.69-.16-25,.07-4.51.12-7.59,3.86-7.48,8.49.12,5,3.73,5,7.34,5,14.15,0,28.29,0,42.44,0,8.32.06,8.41-.07,10.63-8.23,1.05-3.89.1-5.51-4-5.45-8,.1-15.95,0-23.93,0m59.58-115.44c-.43-.86-.51-1.17-.59-1.17-21.26-.13-42.54-.35-63.8-.25-4.21,0-7.17,4.62-6.74,9.14.45,4.73,4,4.55,7.3,4.56,13.09,0,26.22-.57,39.28.2,11.19.65,17.06-7.09,24.55-12.48m2.63,167.07C656.82,597.75,651.77,609,655,624c-.33.11-.83.39-.9.3-5.76-7.34-13.45-8-22.06-7.51-43.79,2.33-87.61,4.29-131.41,6.38-25.8,1.23-51.61,2.51-77.43,3.67-9,.41-15-3.1-16.13-9-1.35-7.07,3.11-15,10.94-17.66a52.46,52.46,0,0,1,14.4-2.42c28.89-1.44,57.8-2.64,86.7-4a51.5,51.5,0,0,0,8.14-.81c4.64-1,7.42-5.35,6.92-10.35-.52-5.28-4.48-4.42-7.83-4.44-20.94,0-41.86,0-62.79,0-13,0-19-7.46-16.33-20.31,1.9-9.17,3.61-18.37,5.58-27.53,2.08-9.62,9.12-16.24,18.84-17.17,6.32-.59,12.73-.36,19.08-.37,16.21,0,32.4-.1,48.6,0,5.35,0,9.59-1,11.67-6.82.8-2.29,2.89-4.12,4.84-6.76-2-.65-3.74-1.36-5.53-1.77a123,123,0,0,1-42.71-18.84c-7.46-5.19-8.46-4.77-15.16,1.78-8.49,8.3-17.15,16.45-26.2,24.11-4.25,3.6-9.41,6.26-14.5,8.63-7.27,3.4-13.65,1.12-17.85-5.61-3.36-5.39-2.2-11.22,3.77-16.59,3.66-3.3,7.82-6,11.66-9.1,15.42-12.48,29.36-26.32,39.55-43.69a69,69,0,0,1,7.15-9.72c4.88-5.66,12.07-7.08,18.87-4.05,6.12,2.72,8,6.16,6.28,12.7-1.51,5.67-.4,10.42,4.3,13.68,7.45,5.17,15,10.27,22.91,14.7,4.91,2.75,7.29,1.12,8.44-4.51,2.18-10.6,4.28-21.22,6.38-31.85,1.18-6-.13-7.62-6.34-7.63q-42.6-.06-85.19,0c-10.42,0-15.84-3.91-16.15-11.58-.34-8.27,7-15.47,16.27-15.95,1.81-.1,3.63-.07,5.45-.07h230c-5,9.61-6.52,18.62-1.37,27.88.41.76-.51,2.69-1.32,3.63-2,2.36-4.31,4.48-6.5,6.68-3.42,3.41-5.92,6.57-4.93,12.39,1.46,8.72-7.49,16.66-17.78,16.69-24.94.09-49.87,0-74.8,0a38,38,0,0,0-5.45.16c-4.37.66-6.14,3.83-6.25,7.82-.12,4.27,3.19,4.86,6.43,5,12.91.49,25.82,1.13,38.74,1.28,18.74.21,37.49,0,56.24,0h5.32c-9,7.62-17.22,15.21-16.56,28.35a19.51,19.51,0,0,1-2.89.42c-28.19-.61-56.38-1.13-84.57-1.94-9.17-.26-9.32-.43-8.14,9.94,2.7.17,5.52.52,8.35.53,20.94,0,41.87-.15,62.79.17A26.44,26.44,0,0,1,667,516.19c5.21,3,6.63,8.53,5.48,14.47-1.81,9.37-3.5,18.78-5.74,28.05a26.26,26.26,0,0,1-4.72,9.11c-4.52,6-4.62,7.57.5,13.17,2,2.16,3.93,4.35,5.87,6.54.6.68,1.14,1.43,2.09,2.62M428,489.93H377c-1.17-9.13-1.21-18.32-3.75-26.74a77.22,77.22,0,0,0-11.73-23.87c-9.49-12.66-24.49-15.63-39.3-9.41C310,435,300.91,444,294.07,455.15c-14.72,24-19.49,49.72-11.12,77,4,13.18,12,23.63,25.51,28.21,11.05,3.74,21.56,1.4,31.34-4.58,10.69-6.55,18.41-15.95,24.76-26.67.89-1.5,2.76-3.4,4.2-3.41,18.53-.23,37.07-.15,55.8-.15a8.52,8.52,0,0,1,.12,2.43c-7.06,23-16.83,44.64-32.8,62.9-21,24-47.65,34.68-79,34.28-13-.16-25.77-1.74-38-6.27-27.8-10.26-44.33-30.65-48.9-59.74-7.1-45.28-.05-88.39,27.32-125.74,27.56-37.58,66.14-50.48,111-42.23,27.88,5.13,45.35,24.22,55.52,50.31A125.32,125.32,0,0,1,428,489.93" transform="translate(0 -1)"/><path class="cls-4" d="M149.25,416.14l-9.19,70.65c2.35.11,4.13.28,5.91.27,12.35-.08,24.73.28,37-.57,3.91-.28,8.2-3.14,11.27-6,12.52-11.57,16.68-37.44,9-52.72-3.16-6.28-7.94-11.14-14.92-11.48-12.85-.61-25.72-.17-39.08-.17M135.16,524.36l-5.48,42.19h17.73l-7.81,60H50.91l7.78-60c6.12,0,11.58.22,17-.15,1.37-.09,3.62-1.9,3.78-3.14Q89,491.41,98.25,419.52a35,35,0,0,0,0-3.51H78.34l2.84-22.3c2.06-.1,3.83-.25,5.62-.25,40.57,0,81.14.07,121.71,0,17.5-.06,31,6.71,39.67,22.43,1.37,2.49,1.59,4.24-.43,6.75-20.56,25.52-29.64,55.62-33.73,87.65,0,.18,0,.37,0,.55-1.07,12-2.1,13.25-14.38,13.43-19.28.27-38.57.11-57.85.13h-6.59m599.67,111c.43,1.9.26,4.08,1.24,5,34.21,31.34,80.5,41.56,121.77,21.63a113.08,113.08,0,0,0,36.84-28.84l4.62-5.38,5.77,7.76c-14.79,17.66-33,33-54.71,43.67C796.5,705.84,742.5,705.33,688.67,679a9.61,9.61,0,0,0-9.46-.07c-61.39,28.71-121.42,28-178.86-10.27-11.55-7.68-21-18.54-31.41-28a42.21,42.21,0,0,1-3.82-4.85c13.7-.73,26.52-1.42,39.34-2.05,15.81-.79,31.62-1.4,47.43-2.33a11.32,11.32,0,0,1,9.94,3.94c23.08,24.48,51,38.13,85,36.64,27.1-1.19,50.41-12.16,70.06-30.62,5.74-5.39,11.59-6.53,18-6M906.75,380.14l-7,6.5c-7.59-7.14-14.78-15-23-21.45-36.84-28.87-86.34-29.51-125.91-2-5.09,3.54-9.89,7.49-14.61,11.51-1.1.95-1.35,2.94-2.2,5-6.09,1.07-11.54-.65-17.09-5.86-18.45-17.33-40.35-28.09-65.61-30.32-28.4-2.49-53.84,5.82-76.05,23.85-5.37,4.35-10,9.57-15.25,14.15a8.86,8.86,0,0,1-5.54,2.36c-29.42-1.33-58.83-2.87-88.88-4.39a37.27,37.27,0,0,1,2.42-3.6c38.25-43.6,86.41-62.49,143.6-58.42,24.41,1.75,47.44,8.69,69.36,19.66,1.89.94,5.18.31,7.3-.69,65.82-31,128.69-26.42,188,16.43,10.82,7.82,20.05,17.9,30.45,27.32" transform="translate(0 -1)"/></g></svg>