<svg id="图层_1" data-name="图层 1" xmlns="http://www.w3.org/2000/svg" xmlns:xlink="http://www.w3.org/1999/xlink" viewBox="0 0 1024 1024"><defs><style>.cls-1{fill:url(#未命名的渐变_5);}.cls-2{opacity:0.2;}.cls-3,.cls-4{fill:#00468c;}.cls-4,.cls-9{font-size:111.93px;font-family:Archivo-SemiBold, Archivo;font-weight:700;}.cls-5{letter-spacing:-0.03em;}.cls-6{letter-spacing:-0.02em;}.cls-7{fill:#fcfcfc;}.cls-8,.cls-9{fill:#fff;}</style><linearGradient id="未命名的渐变_5" x1="512" x2="512" y2="1024" gradientUnits="userSpaceOnUse"><stop offset="0" stop-color="#9cecfb"/><stop offset="1" stop-color="#0052d4"/></linearGradient></defs><title>天津时时彩</title><rect class="cls-1" width="1024" height="1024" rx="350" ry="350"/><g class="cls-2"><path class="cls-3" d="M141,454,103.5,673.5,159,670l41-39,29-184Zm21.5,187.5h-18l10-64h16Zm16-95h-18l10-64h16Z" transform="translate(-2 -2)"/><polygon class="cls-3" points="241 456 305 454 307 440 344 423 344 447 362 448 336 484 314 623 281 657 235.5 632.5 274.5 630.5 298.5 482.5 238.37 484.94 241 456"/><ellipse class="cls-3" cx="257" cy="544" rx="29.18" ry="21.18" transform="translate(-265.41 240.08) rotate(-34.59)"/><path class="cls-3" d="M389,432,351.5,651.5,407,648l41-39,29-184Zm21.5,187.5h-18l10-64h16Zm16-95h-18l10-64h16Z" transform="translate(-2 -2)"/><polygon class="cls-3" points="489 434 553 432 555 418 592 401 592 425 610 426 584 462 562 601 529 635 483.5 610.5 522.5 608.5 546.5 460.5 486.37 462.94 489 434"/><ellipse class="cls-3" cx="505" cy="522" rx="29.18" ry="21.18" transform="translate(-209.08 376.99) rotate(-34.59)"/><path class="cls-3" d="M639,414s84-3,111-14a270.88,270.88,0,0,0,46-24s-23,39-47,47-114,17-114,17Z" transform="translate(-2 -2)"/><rect class="cls-3" x="633" y="445" width="35" height="40"/><rect class="cls-3" x="676" y="440" width="35" height="40"/><polygon class="cls-3" points="728 436 764 436 750 478 716 478 728 436"/><polygon class="cls-3" points="620 503 671 499 671 487 708 487 707 493 756 493 740 518 700 522 686 622 650.5 612.5 666.5 528.5 615.5 529.5 620 503"/><path class="cls-3" d="M632.5,540.5h27s-15,67-24,76-50,16-50,16,29-26,35-41S632.5,540.5,632.5,540.5Z" transform="translate(-2 -2)"/><rect class="cls-3" x="704.5" y="529.5" width="36" height="82"/><path class="cls-3" d="M922,339s-56-3-91,43c-24.87,32.69-44.18,83-53.28,109.45-3.8,11-6.72,22.59-6.72,34.25v35.05c0,6,1.63,11.94,2.72,17.81A59.19,59.19,0,0,1,766,620c-15,25-49,72-46,93,2.25,15.76,24.77,28.13,35.87,33.33a12.26,12.26,0,0,1,7.13,11c0,8.12-2.58,20.05-17,25.7-23,9-33,16-48,16-12.49,0-190,1.39-249.06,1.85a83.66,83.66,0,0,0-35.22,8.09C380.76,824.58,304.48,858.6,248,867c0,0,80,32,132,28s127-62,150-64c19.66-1.71,133.56-.5,166.24-.11a68,68,0,0,0,19.84-2.7c14-4.08,38.38-15,55.93-31.19,26-24,25-54,23-68s-28-27-25-57,56-40,62-73-20-93-11-113S899,349,922,339Z" transform="translate(-2 -2)"/><text class="cls-4" transform="matrix(0.98, -0.09, -0.01, 1, 122.19, 788.69)"><tspan xml:space="preserve">  LOTTE</tspan><tspan class="cls-5" x="427.02" y="0">R</tspan><tspan class="cls-6" x="504.47" y="0">Y</tspan></text><path class="cls-3" d="M328.89,348.66q69.55-31.11,88.39-80.43l-73.38,4.32,2.18-13,75.2-4.42q2.82-12.19,7.82-42l-66.44,3.91,2.18-13,149.88-8.81-2.18,13-68.17,4q-3.18,17.9-7.73,42l77.71-4.57-2.18,13-75.37,4.43q7.46,53.27,65.62,68-8.52,8.8-14.35,14.91-52.77-19.18-61.93-70-21.81,49.06-88.66,81Q334.6,356.62,328.89,348.66Z" transform="translate(-2 -2)"/><path class="cls-3" d="M536.9,279a98.73,98.73,0,0,0,13.1,4.82q-12.89,31.76-26.24,65.25l-14.52-3.55Q522.23,318.31,536.9,279Zm-3.67-48.75a302.82,302.82,0,0,1,26.48,21.32q-7.6,7.39-11.9,11.54Q532,247.59,522.93,240.5Zm14.18-44.55q11.92,9.8,25.5,23.07-6.85,6-12.13,10.88-16-17.36-23.79-24ZM571,252.92l43.37-2.55,2.82-16.77-54.12,3.18,1.9-11.29,54.12-3.18,2.84-16.94-43.37,2.55,1.9-11.29,43.37-2.55,2.84-16.94,13.18-.78L637,193.3l47.88-2.82-4.74,28.24,16-.94-1.9,11.29-16,.94-5.66,33.71-12.84.75.95-5.65-35,2.06-2.79,16.6,52.39-3.08-1.9,11.29L621,288.78l-2.9,17.28,63.14-3.71-1.9,11.29-63.14,3.71-4.62,27.55-13.18.78L603,318.14l-55.51,3.26,1.9-11.29,55.51-3.26,2.9-17.28-47.53,2.8,1.9-11.29,47.53-2.8,2.79-16.6-43.37,2.55Zm56.55-3.33,35-2.06,2.82-16.77-35,2.06Zm42.6-47.06-35,2.06-2.84,16.94,35-2.06Z" transform="translate(-2 -2)"/></g><path class="cls-7" d="M141,439,103.5,658.5,159,655l41-39,29-184Zm21.5,187.5h-18l10-64h16Zm16-95h-18l10-64h16Z" transform="translate(-2 -2)"/><polygon class="cls-7" points="241 441 305 439 307 425 344 408 344 432 362 433 336 469 314 608 281 642 235.5 617.5 274.5 615.5 298.5 467.5 238.37 469.94 241 441"/><ellipse class="cls-7" cx="257" cy="529" rx="29.18" ry="21.18" transform="translate(-256.9 237.43) rotate(-34.59)"/><path class="cls-7" d="M389,417,351.5,636.5,407,633l41-39,29-184Zm21.5,187.5h-18l10-64h16Zm16-95h-18l10-64h16Z" transform="translate(-2 -2)"/><polygon class="cls-7" points="489 419 553 417 555 403 592 386 592 410 610 411 584 447 562 586 529 620 483.5 595.5 522.5 593.5 546.5 445.5 486.37 447.94 489 419"/><ellipse class="cls-7" cx="505" cy="507" rx="29.18" ry="21.18" transform="translate(-200.56 374.33) rotate(-34.59)"/><path class="cls-8" d="M639,399s84-3,111-14a270.88,270.88,0,0,0,46-24s-23,39-47,47-114,17-114,17Z" transform="translate(-2 -2)"/><rect class="cls-8" x="633" y="430" width="35" height="40"/><rect class="cls-8" x="676" y="425" width="35" height="40"/><polygon class="cls-8" points="728 421 764 421 750 463 716 463 728 421"/><polygon class="cls-7" points="620 488 671 484 671 472 708 472 707 478 756 478 740 503 700 507 686 607 650.5 597.5 666.5 513.5 615.5 514.5 620 488"/><path class="cls-8" d="M632.5,525.5h27s-15,67-24,76-50,16-50,16,29-26,35-41S632.5,525.5,632.5,525.5Z" transform="translate(-2 -2)"/><rect class="cls-7" x="704.5" y="514.5" width="36" height="82"/><path class="cls-7" d="M922,324s-56-3-91,43c-24.87,32.69-44.18,83-53.28,109.45-3.8,11-6.72,22.59-6.72,34.25v35.05c0,6,1.63,11.94,2.72,17.81A59.19,59.19,0,0,1,766,605c-15,25-49,72-46,93,2.25,15.76,24.77,28.13,35.87,33.33a12.26,12.26,0,0,1,7.13,11c0,8.12-2.58,20.05-17,25.7-23,9-33,16-48,16-12.49,0-190,1.39-249.06,1.85a83.66,83.66,0,0,0-35.22,8.09C380.76,809.58,304.48,843.6,248,852c0,0,80,32,132,28s127-62,150-64c19.66-1.71,133.56-.5,166.24-.11a68,68,0,0,0,19.84-2.7c14-4.08,38.38-15,55.93-31.19,26-24,25-54,23-68s-28-27-25-57,56-40,62-73-20-93-11-113S899,334,922,324Z" transform="translate(-2 -2)"/><text class="cls-9" transform="matrix(0.98, -0.09, -0.01, 1, 122.19, 773.69)"><tspan xml:space="preserve">  LOTTE</tspan><tspan class="cls-5" x="427.02" y="0">R</tspan><tspan class="cls-6" x="504.47" y="0">Y</tspan></text><path class="cls-8" d="M328.89,333.66q69.55-31.11,88.39-80.43l-73.38,4.32,2.18-13,75.2-4.42q2.82-12.19,7.82-42l-66.44,3.91,2.18-13,149.88-8.81-2.18,13-68.17,4q-3.18,17.9-7.73,42l77.71-4.57-2.18,13-75.37,4.43q7.46,53.27,65.62,68-8.52,8.8-14.35,14.91-52.77-19.18-61.93-70-21.81,49.06-88.66,81Q334.6,341.62,328.89,333.66Z" transform="translate(-2 -2)"/><path class="cls-8" d="M536.9,264a98.73,98.73,0,0,0,13.1,4.82q-12.89,31.76-26.24,65.25l-14.52-3.55Q522.23,303.31,536.9,264Zm-3.67-48.75a302.82,302.82,0,0,1,26.48,21.32q-7.6,7.39-11.9,11.54Q532,232.59,522.93,225.5Zm14.18-44.55q11.92,9.8,25.5,23.07-6.85,6-12.13,10.88-16-17.36-23.79-24ZM571,237.92l43.37-2.55,2.82-16.77-54.12,3.18,1.9-11.29,54.12-3.18,2.84-16.94-43.37,2.55,1.9-11.29,43.37-2.55,2.84-16.94,13.18-.78L637,178.3l47.88-2.82-4.74,28.24,16-.94-1.9,11.29-16,.94-5.66,33.71-12.84.75.95-5.65-35,2.06-2.79,16.6,52.39-3.08-1.9,11.29L621,273.78l-2.9,17.28,63.14-3.71-1.9,11.29-63.14,3.71-4.62,27.55-13.18.78L603,303.14l-55.51,3.26,1.9-11.29,55.51-3.26,2.9-17.28-47.53,2.8,1.9-11.29,47.53-2.8,2.79-16.6-43.37,2.55Zm56.55-3.33,35-2.06,2.82-16.77-35,2.06Zm42.6-47.06-35,2.06-2.84,16.94,35-2.06Z" transform="translate(-2 -2)"/></svg>