<svg id="图层_1" data-name="图层 1" xmlns="http://www.w3.org/2000/svg" xmlns:xlink="http://www.w3.org/1999/xlink" viewBox="0 0 1024 1024"><defs><style>.cls-1{fill:url(#未命名的渐变_10);}.cls-2{opacity:0;}.cls-3{fill:#040000;}.cls-4{fill:#fff;}</style><linearGradient id="未命名的渐变_10" x1="512" y1="1024" x2="512" gradientUnits="userSpaceOnUse"><stop offset="0.14" stop-color="#e87138"/><stop offset="1" stop-color="#f3c137"/></linearGradient></defs><title>23</title><rect class="cls-1" width="1024" height="1024" rx="350" ry="350"/><g class="cls-2"><path class="cls-3" d="M365.09,422.5S295.59,399,281.59,295s-104-62-81.5,0S302.09,432,365.09,422.5Z" transform="translate(-1.09 -1)"/></g><path class="cls-4" d="M365.09,422.5S295.59,399,281.59,295s-104-62-81.5,0S302.09,432,365.09,422.5Z" transform="translate(-1.09 -1)"/><g class="cls-2"><path class="cls-3" d="M377.59,417s-49-134,32.5-201.5,11-99.5-16-97.5-73,34-88,105S337.09,401,377.59,417Z" transform="translate(-1.09 -1)"/></g><path class="cls-4" d="M377.59,417s-49-134,32.5-201.5,11-99.5-16-97.5-73,34-88,105S337.09,401,377.59,417Z" transform="translate(-1.09 -1)"/><g class="cls-2"><path class="cls-3" d="M404.69,289.16s94.08-177.33,266-171.09c151.4,5.5,82.48,151.06-9.5,109.59C585.59,193.57,431.19,282.66,404.69,289.16Z" transform="translate(-1.09 -1)"/></g><path class="cls-4" d="M404.69,289.16s94.08-177.33,266-171.09c151.4,5.5,82.48,151.06-9.5,109.59C585.59,193.57,431.19,282.66,404.69,289.16Z" transform="translate(-1.09 -1)"/><polygon class="cls-4" points="200 531.5 217.5 531.5 195.41 649 232.5 636 257 496.5 205.5 500 200 531.5"/><polygon class="cls-4" points="276 496 270.5 527.5 288 527.5 265.91 645 303 632 327.5 492.5 276 496"/><ellipse class="cls-4" cx="375.09" cy="495" rx="23.04" ry="19.14" transform="translate(-240.51 583.94) rotate(-61.17)"/><path class="cls-4" d="M371.59,622.5l20-99h-48l-8,26h17l-24,124h14s16.7-21.5,33.1-8l126.9-1,18.5-26.5H379.59Z" transform="translate(-1.09 -1)"/><polygon class="cls-4" points="451 568.75 419.5 568.75 384.5 622 423.75 622 451 568.75"/><polygon class="cls-4" points="525.5 509 534.5 484 488.86 484 491.25 471 461.25 471 458.86 484 442.27 484 445.25 471 413.25 471 399.25 532 431.25 532 436.53 509 454.25 509 448.64 539.5 392 539.5 392 564.5 461.6 564.5 451 622 458.79 622 458.79 622 519.85 622 525.57 597 485.61 597 491.6 564.5 514.13 564.5 525.57 539.5 478.64 539.5 484.25 509 525.5 509"/><path class="cls-4" d="M626.8,524.15q-24.06,0-42,19.08L597,495.1h78.65l6.7-25.65H579.11L555.24,561.1l25.92,5.23q14-19.33,35.12-19.33,14,0,21.24,9.54t5.08,23.4A40.8,40.8,0,0,1,630,603.77q-10.37,9.84-26.65,9.85-26.49,0-30.89-25.41l-29.36,4.25q1.68,23.34,17.88,34.41t40.14,11.06q30.14,0,50.1-17.14t23.67-40.85q3.57-22.73-10.31-39.26T626.8,524.15Z" transform="translate(-1.09 -1)"/><path class="cls-4" d="M314,885.46l.61-3.42,1.44-1.35a14.32,14.32,0,0,0,1.49-3.22,12.22,12.22,0,0,1,3.23-4.77q2.14-2,4.87-4.15a18.54,18.54,0,0,0,4.15-4.47,16.66,16.66,0,0,0,1.95-6.74,122.84,122.84,0,0,0,.2-15.26c-.07-1.1-.15-4.22-.25-9.34s-.21-8.8-.31-11-.35-4.76-.72-7.52a32.45,32.45,0,0,1-.46-5.5,11.89,11.89,0,0,1,.82-4.1,8.91,8.91,0,0,1,2.87-3.9A6.68,6.68,0,0,1,338,799a21.37,21.37,0,0,1,3.13,1,9.59,9.59,0,0,1,3.84,2.44q1.44,1.56,2.47,6.75A122.63,122.63,0,0,1,349,826q.46,11.56.46,18.83c-.07,2.84-.14,4.78-.2,5.81s-.11,1.73-.11,2.08l-.41,3.84c-.2,2.9.24,4.81,1.34,5.71s3.21,1.38,6.56,1.45a17.74,17.74,0,0,0,4.31-.52l17.53-2.59c3.14-.56,5.4-1.37,6.76-2.44a11.3,11.3,0,0,0,3.34-5.14q1.27-3.53,1.58-11.31l1.34-35.49q.19-15.78.56-19.88t1.74-13.8q1.39-9.71,3.8-12.14a8.2,8.2,0,0,1,5.79-2.55q5.43,0,8.3,2.13a10.21,10.21,0,0,1,3.85,5.61,23.41,23.41,0,0,1,1,6.27c-.07.9-.22,2.41-.46,4.52s-.92,7.94-2.05,17.49-2.08,20.08-2.87,31.6-1.37,18.61-1.74,21.27a16.19,16.19,0,0,0-.05,6,10.07,10.07,0,0,0,3.69,5.6q3.08,2.6,15.58,2.29l14.15-.63a81.32,81.32,0,0,0,9.84-.2,11.66,11.66,0,0,0,3.54-1.3,4.88,4.88,0,0,0,2.36-3.27,23.41,23.41,0,0,0,.66-3.84l.41-18.68.21-.73a25.18,25.18,0,0,0,.41-2.7q.19-1.86,1.79-11.57t3.39-12.35a29.56,29.56,0,0,1,4.81-5.34q3-2.7,5.18-2.8a6.82,6.82,0,0,1,3.79,1.55,8.37,8.37,0,0,1,2.72,2.75,5.94,5.94,0,0,1,.62,2.13c0,.62.05,1.11.05,1.45a66.8,66.8,0,0,1-1.18,10.07q-1.08,5.91-2.1,13.18L477.68,838q-.21,1.65.62,17.12c0,.69.06,3.18.2,7.47a65,65,0,0,0,1.33,11.62l3.08,12.67a46.8,46.8,0,0,1,.31,5.39q-.21,5.51-2.16,5.71l-2.66-.21-1.54.63q-.83.3-8.61-4.78l-4.41-2.18L457,887.33c-1.64-.48-4.07-1-7.28-1.66l-7.18-.62-10.86-1.77-15.79-.41-12.41-1q-4.51,0-20.81,2.7l-23.17,3.32q-4.82.82-11.79,2.33c-4.65,1-7.59,1.61-8.82,1.82s-3.64.61-7.22,1.19a52.68,52.68,0,0,0-8.36,1.92,9.38,9.38,0,0,1-4,.83c-2.19-.2-3.61-1.07-4.25-2.59a20.36,20.36,0,0,1-1.39-4.88l-.41-1.87Z" transform="translate(-1.09 -1)"/><path class="cls-4" d="M530.11,879.55c-.07-.49-.19-2.73-.36-6.75s1.66-6,5.49-5.91c.41.07.92.14,1.53.2l8.31,2.39a13.24,13.24,0,0,0,5.33-.52l14.66-6.85,8-2.38a48.43,48.43,0,0,0,5.64-3q4.2-2.44,5-2.54l4.51-.11,3.39-2.07q4.1-2.38,5-1.2a6.18,6.18,0,0,1,.66,4q-.62,5-1.18,6.07a13.18,13.18,0,0,1-1.17,1.92l-3.39,4L586,874.05q-.93.93-3.9,3.32l-9.43,8.09a59.9,59.9,0,0,1-10.31,7.16,31.9,31.9,0,0,1-12.45,3.22c-4.1.48-6.91.31-8.41-.52a40,40,0,0,1-10.35-11A14.26,14.26,0,0,1,530.11,879.55Zm4.2-97.35a20,20,0,0,1,.88-4.15q.45-1.14,4.92-2a84.78,84.78,0,0,0,8.35-2,18.84,18.84,0,0,1,5.54-1l2.46.42c.2.06,3.38.17,9.53.31a43.13,43.13,0,0,0,5.23-.26q4.51-.37,10.87-.52c4.24-.11,7.36-.21,9.38-.31a17.36,17.36,0,0,0,10.46-4.15,57.53,57.53,0,0,0,5.69-6.08q3.58-4.25,6.56-4.77a7.75,7.75,0,0,1,4,.73,6.36,6.36,0,0,1,3.12,2.44,7.42,7.42,0,0,1,.72,4.41,15.82,15.82,0,0,1-1.18,4.1,9.81,9.81,0,0,0-.87,2.43c0,.14,3.62.51,10.87,1.09a131.26,131.26,0,0,0,17.33.52q6.45-.36,8.61-.46a88.33,88.33,0,0,1,13,.83c4.78.62,7.52.93,8.2.93h3l6.67.83,6.35-.1,2.36,1.24a14.74,14.74,0,0,0,4.26,1.35,28.45,28.45,0,0,1,4.51,1.2,3.14,3.14,0,0,1,2.15,2.28,9.48,9.48,0,0,1,0,3.58,19.46,19.46,0,0,1-.61,2.07,13.34,13.34,0,0,1-1.95,2.86,13.16,13.16,0,0,1-3.74,3.21,18.74,18.74,0,0,1-6.36,1.82,34.17,34.17,0,0,1-6.1.52,18.28,18.28,0,0,1-6-1l-4.61-1.66c-.35-.07-3.1-.27-8.26-.62a98.92,98.92,0,0,1-13.22-1.66c-3.66-.76-6.2-1.25-7.64-1.45a61.59,61.59,0,0,0-9.43.1c-3.69.28-6,.41-7,.41l-7.79-.2q-.42.1-6.93.52t-8.3,1.19a12.35,12.35,0,0,0-3.43,2.28,51.85,51.85,0,0,0-5.08,6,96.23,96.23,0,0,1-7.23,8.46q-3.8,3.94-2.82,5.71a3.88,3.88,0,0,0,3.54,1.87,9.57,9.57,0,0,0,2.67-.37,67.49,67.49,0,0,1,8.4-.88,42.48,42.48,0,0,0,8.1-1,7.15,7.15,0,0,0,2.82-1.6q1.08-1,3.64-7.79t3.85-7.11a3.18,3.18,0,0,1,2.61.47l2.36,2.49a18.39,18.39,0,0,0,2.36,1.87,9.47,9.47,0,0,1,3.28,4.46l.82,3.32a8.89,8.89,0,0,0,1.69,3.32c.92,1.25,4,1.73,9.18,1.46l8.71-.52q1.74,0,10,.46T682,816a91.24,91.24,0,0,1,10.66,2,6.28,6.28,0,0,1,3.13,3.21,9.58,9.58,0,0,1,.77,6.23,15.34,15.34,0,0,1-3.34,6.49q-2.71,3.38-10.71,3.16l-13.84-.93L659.7,836,648.32,835q-8.82.11-12.3,2.33c-2.33,1.49-3.68,3-4,4.52a24,24,0,0,0-.67,4.87l-1.13,9.65-.3,15.26q-.93,10.27-.82,10.59L630,892a12.46,12.46,0,0,1-1.44,5,21.49,21.49,0,0,1-3.38,4.26c-1.5,1.52-2.6,2.28-3.28,2.28l-2.67-.83a15.77,15.77,0,0,1-3.43-1.09,6.28,6.28,0,0,1-.72-1.92,43.66,43.66,0,0,1-.82-7q-.36-5.35-.36-7.32l.92-17.44.21-6.33c0-.13.24-2.75.72-7.83a66.1,66.1,0,0,0,.1-13.23q-.51-3.33-1.59-4.26c-.72-.62-3.43-1.17-8.15-1.66a29.72,29.72,0,0,0-8.56,1.19,66,66,0,0,1-6.82,1.51l-10.15.41-10.56,3a32,32,0,0,1-7.28.31,37.58,37.58,0,0,0-5.69,0c-.71.14-2.44.63-5.17,1.46s-4.82.72-6.26-.31l-2-1.46-1.64-.52a4.78,4.78,0,0,1-3.48-5.18q0-.1,3.79-6l3.08-6a11.53,11.53,0,0,1,3.94-2.54q3-1.41,6.82-3.58l9.84-5.19a35.78,35.78,0,0,0,6.87-5.19l8.1-8.93c2.67-2.7,3.91-4.29,3.74-4.77s-2.41-.49-6.71,0l-13.53,1-9,1.24-7.38.52-6.87,1.14q-6.36.21-7.17-5.71v-3.94l-.31-2.59ZM649,854.59a5.59,5.59,0,0,1,2.82-2.49,5.07,5.07,0,0,1,3.58-.05c.28.14.58.27.93.41l4.41,3.22c.34.28,1.18.83,2.51,1.66s3.57,2.3,6.71,4.41a54.19,54.19,0,0,0,7.28,4.31l5.13,2.18q1.13.62,10.66,7.31a142.5,142.5,0,0,0,13.74,8.87q4.2,2.19,4.87,3.79a3.37,3.37,0,0,1,0,2.86,15.12,15.12,0,0,1-2.87,2.28l-3.9,4.46a24.85,24.85,0,0,1-7,5q-5.07,2.7-14,2.29-4.21-.11-5.08-1a14.27,14.27,0,0,1-1.69-2.13,52.38,52.38,0,0,0-4.41-5q-3.59-3.78-6.41-7.37c-1.88-2.38-3.3-4.08-4.25-5.08a12.65,12.65,0,0,1-1.64-1.92l-2.77-5.81-2-3.33-3.08-5.7a24.21,24.21,0,0,1-2.66-4.05l-.82-4.88-.72-1.14A3.79,3.79,0,0,1,649,854.59Z" transform="translate(-1.09 -1)"/><path class="cls-4" d="M420,308.62a72,72,0,0,0-13.08,13.81Q413.17,315.28,420,308.62Z" transform="translate(-1.09 -1)"/><path class="cls-4" d="M523.75,406c-2.58,2.86-5.07,5.83-7.44,8.89A71.08,71.08,0,0,0,523.75,406Z" transform="translate(-1.09 -1)"/><path class="cls-4" d="M590.3,239.24A242.81,242.81,0,0,0,420,308.62q-6.81,6.64-13.08,13.81a71.84,71.84,0,0,0,109.41,92.49c2.37-3.06,4.86-6,7.44-8.89,24.3-26.84,57.81-44.41,94.28-44.41,72.44,0,129.1,69.29,129.1,143S693.87,672.69,593.76,692.85c-39.9,8-71.36,12.12-95.9,13A243.21,243.21,0,0,0,590.3,724c134.31,0,243.2-108.51,243.2-242.38S724.61,239.24,590.3,239.24Z" transform="translate(-1.09 -1)"/></svg>