<svg id="图层_1" data-name="图层 1" xmlns="http://www.w3.org/2000/svg" xmlns:xlink="http://www.w3.org/1999/xlink" viewBox="0 0 1024 1024"><defs><style>.cls-1{fill:url(#未命名的渐变_4);}.cls-2{opacity:0;}.cls-3{fill:#040000;}.cls-4{fill:#fff;}</style><linearGradient id="未命名的渐变_4" x1="512" y1="1024" x2="512" gradientUnits="userSpaceOnUse"><stop offset="0" stop-color="#57408f"/><stop offset="1" stop-color="#8a4891"/></linearGradient></defs><title>24</title><rect class="cls-1" width="1024" height="1024" rx="350" ry="350"/><g class="cls-2"><path class="cls-3" d="M365.09,422.5S295.59,399,281.59,295s-104-62-81.5,0S302.09,432,365.09,422.5Z" transform="translate(-0.09 0)"/></g><path class="cls-4" d="M365.09,422.5S295.59,399,281.59,295s-104-62-81.5,0S302.09,432,365.09,422.5Z" transform="translate(-0.09 0)"/><g class="cls-2"><path class="cls-3" d="M377.59,417s-49-134,32.5-201.5,11-99.5-16-97.5-73,34-88,105S337.09,401,377.59,417Z" transform="translate(-0.09 0)"/></g><path class="cls-4" d="M377.59,417s-49-134,32.5-201.5,11-99.5-16-97.5-73,34-88,105S337.09,401,377.59,417Z" transform="translate(-0.09 0)"/><g class="cls-2"><path class="cls-3" d="M404.69,289.16s94.08-177.33,266-171.09c151.4,5.5,82.48,151.06-9.5,109.59C585.59,193.57,431.19,282.66,404.69,289.16Z" transform="translate(-0.09 0)"/></g><path class="cls-4" d="M404.69,289.16s94.08-177.33,266-171.09c151.4,5.5,82.48,151.06-9.5,109.59C585.59,193.57,431.19,282.66,404.69,289.16Z" transform="translate(-0.09 0)"/><polygon class="cls-4" points="201 532.5 218.5 532.5 196.41 650 233.5 637 258 497.5 206.5 501 201 532.5"/><polygon class="cls-4" points="277 497 271.5 528.5 289 528.5 266.91 646 304 633 328.5 493.5 277 497"/><ellipse class="cls-4" cx="375.09" cy="495" rx="23.04" ry="19.14" transform="translate(-239.51 584.94) rotate(-61.17)"/><path class="cls-4" d="M371.59,622.5l20-99h-48l-8,26h17l-24,124h14s16.7-21.5,33.1-8l126.9-1,18.5-26.5H379.59Z" transform="translate(-0.09 0)"/><polygon class="cls-4" points="452 569.75 420.5 569.75 385.5 623 424.75 623 452 569.75"/><polygon class="cls-4" points="526.5 510 535.5 485 489.86 485 492.25 472 462.25 472 459.86 485 443.27 485 446.25 472 414.25 472 400.25 533 432.25 533 437.53 510 455.25 510 449.64 540.5 393 540.5 393 565.5 462.6 565.5 452 623 459.79 623 459.79 623 520.85 623 526.57 598 486.61 598 492.6 565.5 515.13 565.5 526.57 540.5 479.64 540.5 485.25 510 526.5 510"/><path class="cls-4" d="M626.8,524.15q-24.06,0-42,19.08L597,495.1h78.65l6.7-25.65H579.11L555.24,561.1l25.92,5.23q14-19.33,35.12-19.33,14,0,21.24,9.54t5.08,23.4A40.8,40.8,0,0,1,630,603.77q-10.37,9.84-26.65,9.85-26.49,0-30.89-25.41l-29.36,4.25q1.68,23.34,17.88,34.41t40.14,11.06q30.14,0,50.1-17.14t23.67-40.85q3.57-22.73-10.31-39.26T626.8,524.15Z" transform="translate(-0.09 0)"/><path class="cls-4" d="M313.54,774.94q2.35.1,3.48,3.22l.62,2.38,1.13,1.87a24.13,24.13,0,0,1,.61,5l1.44,7.78a40.49,40.49,0,0,1-.87,6.34,19.25,19.25,0,0,0,.46,9.13q1.33,4.56,1.33,4.77l-.31,1.46.62,3.52c0,.21,0,.8-.1,1.77l.1,7.26a2,2,0,0,0-.1.62l-3.28,17.34.3,2.69a7.44,7.44,0,0,0,.57,2.7q.56,1.46,3.33,1.35a5.41,5.41,0,0,0,4-1.66l2.36-3.63a10,10,0,0,0,1.64-2.18c0-.07,0-.29-.06-.68a4.87,4.87,0,0,1,.06-1.19l2.56-38.6c-.07-1.53-.09-2.77-.05-3.74s.05-1.66.05-2.08a13.06,13.06,0,0,1-.21-1.76l-1.84-14.43a23.94,23.94,0,0,1-1-4.56,11.34,11.34,0,0,1,0-2.39c.11-1.38.14-3.35.11-5.91a23.08,23.08,0,0,1,.56-6.13,4.14,4.14,0,0,1,.82-2,4.62,4.62,0,0,1,1.74-.57,19.65,19.65,0,0,0,4.05-1.51,8.73,8.73,0,0,1,4.46-1,6.08,6.08,0,0,1,2.87,1.66q1.44,1.35,2.47,10l.41,3.43L346.45,787a20.19,20.19,0,0,0-.1,4.56c.13,1.39.2,2.22.2,2.49q-.1.84-.36,2.7T344.25,815q-1.69,16.34-1.7,20l.52,15.26a45.81,45.81,0,0,1-.52,7.47l-.3,1.76-1.13,23.87-.82,9.55q-.51,6.75-3.69,7.27a5.09,5.09,0,0,1-3.28-.63,6.22,6.22,0,0,1-2.72-2.18,16.23,16.23,0,0,1-1.49-3.52,10.47,10.47,0,0,1-.51-4.26c0-.21.1-1.11.31-2.7s.44-3.89.72-6.9.49-5,.66-6,.29-1.68.36-2l-.82-7.58a6.48,6.48,0,0,0-.56-2.59c-.31-.56-1.83.38-4.57,2.8q-.7.63-5.12,5.92a82.29,82.29,0,0,0-6,7.83c-1.06,1.7-2,2.47-2.72,2.33l-1.33-.72-1.33-.31c-2-.56-2.81-3.29-2.46-8.2a18.94,18.94,0,0,1,.2-2.49l1.13-6.75.21-6.33.61-2.38.82-6.54.92-4.78c0-.41,0-1.17-.05-2.28s0-3.51.05-7.21.07-5.93,0-6.7l-.61-3.42-.21-3.43q-.1-.93-1.33-7.93c-.82-4.68-1.38-8.39-1.69-11.16a83.66,83.66,0,0,1-.46-9.24c0-1,0-1.93.1-2.7l.21-2.07.3-5.4a8.83,8.83,0,0,1,2.57-3.42l1.12-1.14A5.87,5.87,0,0,1,313.54,774.94Zm44.08,57.49c-.06-.62-.12-1.17-.15-1.66a6,6,0,0,1,0-1.35q0-3,.31-7.37c.2-2.9.34-4.42.41-4.56a89.46,89.46,0,0,0-.51-13.55q-.83-7.94-.21-11.15c.27-1.94.45-3,.51-3.12l.11-4.77.51-2.18-.41-3.42a6,6,0,0,1,.41-2.39,11.35,11.35,0,0,1,1.08-2.7,3.18,3.18,0,0,1,1.79-1.35l1.23-1.35q1-.93,3,.42a6.34,6.34,0,0,1,1.8,3.11,31.34,31.34,0,0,0,1.18,3.37,9,9,0,0,1,.61,1.82,13,13,0,0,1-.1,2.7q-.21.93-.51,11a110.05,110.05,0,0,1-1.54,16.55A49.25,49.25,0,0,0,366,818l.41,4.36a9.23,9.23,0,0,1-1.13,3.73l-1,1.87q-1.85,3.74-.51,5.45t5.33-.78a34,34,0,0,1,10-3.94q6-1.46,7.49-2a10.45,10.45,0,0,0,2.87-1.55c.92-.69,1.45-1.11,1.59-1.25l6.66-.62a6.6,6.6,0,0,0,3.18-1.4q1.53-1.2,2.15-6.49t1.18-11c.38-3.84.29-6.19-.25-7.06s-6.29.19-17.23,3.17c-.82.28-1.79.62-2.92,1a5.23,5.23,0,0,1-1.9.51c-2.73,0-4.27-1.67-4.61-5s-.17-5.52.51-6.49l3.18-3.21.41-5.19a3.87,3.87,0,0,1,3-2.8l4.82.41a4,4,0,0,0,1.33,0,15.14,15.14,0,0,0,5.34-.88,21.32,21.32,0,0,0,4.71-2.54,7.62,7.62,0,0,0,3.08-4.26l.92-8c1.23-2.21,3.49-3.34,6.77-3.37s5.6.43,7,1.4a5.84,5.84,0,0,1,2.25,4.25v6.54q1.33,1.77,12.56,3.06t15.84.47a8.38,8.38,0,0,0,2.82-.88l1.49-.78,2.05-.21.92-.62a2,2,0,0,1,1-.31,2.65,2.65,0,0,0,.77.31,11.55,11.55,0,0,0,2.41.31,4.87,4.87,0,0,1,2.92,1.09,5.68,5.68,0,0,1,1.64,3.32,24.37,24.37,0,0,1,.46,2.75c-.07.42-.89,2.94-2.46,7.58a59.57,59.57,0,0,1-3.64,9.13c-.86,1.45-1.35,2.3-1.49,2.54a16.41,16.41,0,0,0-.71,2.08,27.65,27.65,0,0,1-.93,2.65l-2.05,4.15-1.84,6.74a50.26,50.26,0,0,0-2.11,8.1,3.07,3.07,0,0,0,.88,2.38,9.68,9.68,0,0,0,1.74,1.46l19.38.93,1.74.31q3.9.74,10.15-1.66t7.17-1.55q.93.82,0,5a40.63,40.63,0,0,1-6.15,12.5q-4.71,6.9-8.25,9.6A12.77,12.77,0,0,1,469,856q-2.16.1-10.36-1.92a58.82,58.82,0,0,1-12.76-4.41c-3.05-1.59-4.77-2.47-5.18-2.65s-2.72-.74-6.92-1.71a99,99,0,0,0-11-2q-4.66-.52-6.72,3.32a5.68,5.68,0,0,0-.71,2.59l-.21,2.29-1.23,4.56a11.29,11.29,0,0,0-.26,1.92,18.2,18.2,0,0,1-.66,3.48L411,867.2l-1.23,4.15a24.78,24.78,0,0,1-1.38,3.16q-.57,1-2.82,4.1L401,885.36q-2.46,3-9.43,8.09a27.88,27.88,0,0,1-15.79,5.4,6.93,6.93,0,0,1-2.2-.1,24,24,0,0,1-3-1.46,39.58,39.58,0,0,0-3.69-1.81,6.66,6.66,0,0,1-1.69-.88l-4.2-5.4-3.69-3.53a3.43,3.43,0,0,1-.41-1.45,2.7,2.7,0,0,1,1-2.08,16.22,16.22,0,0,1,4.1-1.45l2.87-.94a2.88,2.88,0,0,0,.72-.1h2.56l3.49-1.56,6.25-1.34a28.33,28.33,0,0,0,6.31-3.48,38.18,38.18,0,0,0,7.79-6.8,46.18,46.18,0,0,0,6.1-9.23l1.23-2.5a27.4,27.4,0,0,0,1.39-3.16,2.75,2.75,0,0,0,0-1.92,3.78,3.78,0,0,0-2.11-1.56q-3-1-8.51-.1t-6.35,1.14l-4.72,2.08-2.05.51L370.65,854c-.62.21-2.21.57-4.77,1.09a56.65,56.65,0,0,0-5.79,1.4,5.83,5.83,0,0,1-2.77.41,2.41,2.41,0,0,1-2-1.09,12.9,12.9,0,0,1-.92-3.21,25.69,25.69,0,0,1-.52-3.9,17.61,17.61,0,0,1,.26-3.42,20.29,20.29,0,0,1,1.43-5.92l2.46-4Zm60-14.22a5.53,5.53,0,0,0,1.95,3l14.66,2.29c1.3.76,2.29,1,3,.83,1-.28,1.88-1.32,2.57-3.12l1.64-11.41q1.64-5.71.61-6.64l-.82-.52L436.47,797q-1.65-1.24-7.08-1.45-4-.11-5.69.78a5.43,5.43,0,0,0-2.46,2.44,23.3,23.3,0,0,0-1.49,5.5l-2.05,9.34A14.89,14.89,0,0,0,417.6,818.21Zm49,62.17-3.8,6.22a20.88,20.88,0,0,1-4.56,6,68.7,68.7,0,0,1-7.07,5.56q-4.26,3-8.46,1.81a10.77,10.77,0,0,1-6-3.84,86.15,86.15,0,0,1-5.69-8.09c-2.15-3.39-3.38-5.42-3.69-6.07a11.89,11.89,0,0,1-.77-2.34l-1.12-4.88L424,871.66a6.82,6.82,0,0,1-.62-3.32,7.19,7.19,0,0,1,.31-2.08,5.11,5.11,0,0,1,.72-1.6c.27-.38,1.29-.82,3.07-1.3a5.43,5.43,0,0,1,4.1.1l2.16,2,4.82,1.56a44.64,44.64,0,0,1,3.74,3,38.56,38.56,0,0,0,6.71,4.51,49.13,49.13,0,0,0,10.56,3.74C464.11,879.38,466.47,880.1,466.61,880.38Z" transform="translate(-0.09 0)"/><path class="cls-4" d="M532.16,876.33l11.59-7.68a43.6,43.6,0,0,0,5.89-6.12,56.52,56.52,0,0,0,3.74-5,54.34,54.34,0,0,0,2.87-6q1.95-4.51,2.57-6.23a3.65,3.65,0,0,0,.1-2.8,3.42,3.42,0,0,0-2-1.66,3.81,3.81,0,0,0-2.67-.16,28.82,28.82,0,0,0-3.28,2.59,8.52,8.52,0,0,1-5.64,2.29c-2.8.07-4.75-.87-5.84-2.8l-1.13-3.43-1.54-2.9a1.48,1.48,0,0,1-.1-.94,11.46,11.46,0,0,1,.36-2.28,4.31,4.31,0,0,1,1.85-2.6,31.1,31.1,0,0,1,3-1.86l4.61-2.08q6.25-3.12,7.18-7.73t-.41-5a7.91,7.91,0,0,0-2.72.62,26.3,26.3,0,0,0-4,1.66,19.47,19.47,0,0,1-5.23,1.56c-2.29.41-3.71-.9-4.26-4a31.76,31.76,0,0,1-.72-5.29,7.52,7.52,0,0,1,.77-3.84c.52-.83,1.49-2.21,2.93-4.15s2.42-2.94,3-3a11.55,11.55,0,0,1,1.43-.11l2.87.63a21.14,21.14,0,0,0,4.72-1.09,28.52,28.52,0,0,1,10.56-.57,14,14,0,0,1,5.18,1.35,11,11,0,0,1,2.77,3,6.13,6.13,0,0,1,1.18,4.36L570,809.91l-.1,3.12a27.19,27.19,0,0,1-1.28,4.25,24.81,24.81,0,0,1-2.41,5.19,6.67,6.67,0,0,0-1.28,2.75c0,.59.49,1.4,1.59,2.44l2.66,2.7a13.92,13.92,0,0,1,3.44,7.42c.24,2.45.37,4.49.41,6.12a20.07,20.07,0,0,1-1.28,6.38,65,65,0,0,1-4.57,8.62c-2.35,3.94-3.47,6.19-3.33,6.74a4.16,4.16,0,0,0,1,2q.92,1.15,11.07.31l12.92,1,6-.62,11,.73,15-.11a4.36,4.36,0,0,0,2.46.11c.69-.35,1.06-1.49,1.13-3.43v-2.7l.72-5v-5.4l.51-2.49a24.76,24.76,0,0,0-.3-2.54c-.21-1.35-.47-2.06-.77-2.13a5.17,5.17,0,0,0-1-.1q-2.25.32-8.05,4.36a69.19,69.19,0,0,1-15.48,7.63q-9.69,3.57-13,3c-2.18-.41-3.53-1.4-4.05-3s0-3.27,1.59-5.14q1.23-1.46,10.56-7.06l12.2-6.22,6.26-3.74a44.18,44.18,0,0,1,6.41-3.22q3.12-1.24,3.53-2.49a2.09,2.09,0,0,0,0-1.76c-.24-.35-.9-.49-2-.42-.13.07-1.16.28-3.07.63l-5.13.72-7.28,2-4.2,1.15-3.28,1.34a44.32,44.32,0,0,0-4.87,2A7.33,7.33,0,0,1,591,836c-.89.07-1.88-.79-3-2.59a10,10,0,0,1-1.13-3.58q-.51-2.76-.57-3.27a4.21,4.21,0,0,1,.16-1.35,27.42,27.42,0,0,1,1.79-5.35,19.28,19.28,0,0,0,1.64-5.34,29.79,29.79,0,0,0-1.38-6.64c-.48-1.59-1-2.53-1.44-2.81l-1.23-.41a4.39,4.39,0,0,1-2.46-2.34,9.72,9.72,0,0,1-1-4.25c0-1.63.84-2.65,2.61-3.06a12.56,12.56,0,0,1,3.28.72l13.84-3.42,20.2-2.49a7.23,7.23,0,0,0,1.23-3.79,2.93,2.93,0,0,0-1.64-3.27,6.69,6.69,0,0,0-2.72.21c-1.33.28-2.61.48-3.84.62l-4.72.62q-1,.21-13.84,3.74t-17.22,3q-4.41-.42-5.13-2.23a16.52,16.52,0,0,1-1-4.46,14.69,14.69,0,0,1,0-3.69,9.3,9.3,0,0,1,2.72-5.45,12.91,12.91,0,0,1,4.66-3.37l6.15-.41a23.18,23.18,0,0,0,4.36-.78c2.15-.52,3.4-.82,3.74-.88l2.26-.11,5.74-.73H607a46.46,46.46,0,0,0,7.28-1.19c3.76-.79,5.91-1.49,6.46-2.07a14.72,14.72,0,0,0,2-3.69,21.26,21.26,0,0,1,3.08-5,12.48,12.48,0,0,1,2.77-2.75,6.55,6.55,0,0,1,2.25-.73,7.79,7.79,0,0,1,3.9.73,9.11,9.11,0,0,1,2.87,2.28l4.61,6.12a7.45,7.45,0,0,0,4.51,1.15q.32.11,9.28-.78t21.17,3.53q12.21,4.41,12.25,8.09c0,2.46-1.31,4.34-4.05,5.66a21.46,21.46,0,0,1-5.58,1.45,43,43,0,0,1-6.72.73,33.81,33.81,0,0,1-5.18-.26c-2.22-.25-3.43-.4-3.64-.47H659.6l-6.46-.52a39.84,39.84,0,0,0-4.1.31c-1.78.21-3.25.33-4.41.37s-1.88.2-2.15.51a3,3,0,0,0-.21,2.13,7,7,0,0,0,1,3.43l17.12.72L664,789a26,26,0,0,0,6.81-.68,38.74,38.74,0,0,1,6.41-.88,6.09,6.09,0,0,1,3.59,1.25,3.86,3.86,0,0,1,1.44,3.21,8.22,8.22,0,0,1-.41,2.08l-1.85,2.9-1.23,2.29-6,8-2.05,3.32-1.54,1.87-1.54,7.37c-.88,2.42-3,4.22-6.25,5.39q-3,1.16-9.74.73t-8,.05a13.4,13.4,0,0,0-2.81,1.56q-1.6,1.1,13.58,4.51,9.23,2.19,14.51,3.53a18.56,18.56,0,0,1,9,5.19q3.69,3.84,3.53,6.28c-.1,1.63-1.65,2.92-4.66,3.89a27.52,27.52,0,0,1-9.13,1.35q-6.26,0-14.91-3.27T643,845.72a3.42,3.42,0,0,0-2,.88c-.45.45-.56,1.43-.36,3l.82,5.7c0,.83-.1,2.74-.31,5.71a31.38,31.38,0,0,1-.71,4.46,6.57,6.57,0,0,1-2.36,3.17c-1.3,1.07-1.92,1.78-1.85,2.13.07.9,1.2,1.62,3.39,2.18a32.25,32.25,0,0,0,5.43,1,17.24,17.24,0,0,1,3.08.42A30.84,30.84,0,0,1,652,876a65.29,65.29,0,0,0,7.64,2.95,32.22,32.22,0,0,0,6.25,1.66l7.49.11,6.25.83,4.72-.83,4.82-.52,12.3-3.94,6.46-.83c1.77-.63,3-.82,3.53-.57a2,2,0,0,1,1.18,1.4,4.36,4.36,0,0,1-.2,2.59l-1.33,3.32q-1.65,4.26-1.75,4.46l-2.66,4.16-3.59,7.47-1.85,2.07-4.1,5.09q-2.67,2.39-14.86,4.36c-1,.07-3.12-.38-6.46-1.35a81.72,81.72,0,0,0-9-2.13,27.84,27.84,0,0,1-5.17-1.19,13.73,13.73,0,0,1-2.1-1.14L654.88,901l-15.79-6.33a55.13,55.13,0,0,0-9.53-4q-4.11-1.19-6.82-1.71t-7.89-1a114.61,114.61,0,0,1-12.26-2,95.17,95.17,0,0,0-9.58-1.71,18,18,0,0,1-3.13-.42l-3.28-1.14-16.71,1.76h-3.38A46.26,46.26,0,0,0,555.84,886l-6.05,1.87c-4.44,1.38-7.48,2-9.12,1.87a12,12,0,0,1-6.61-2.8q-3.33-2.59-3.18-6C531,878.7,531.41,877.16,532.16,876.33Zm3-106.06c1.6-3,3.7-4.67,6.3-5.09l5.84.83a23.25,23.25,0,0,0,4.72.21c.75,0,1.86,0,3.33-.1a25.8,25.8,0,0,0,2.72-.21q.4,0,7.89.88t7.28,3.79a2.61,2.61,0,0,1-.92,1.76l-1,.94-1,3.42c-.27.42-1.4,1-3.38,1.87l-7,4.77-3.8,1.56-5.84,2.91L546.1,789a46.36,46.36,0,0,1-5.33,1.45,6.88,6.88,0,0,1-4.46-1,8.26,8.26,0,0,1-2.66-2.54c-.52-.86-.77-2.82-.77-5.86l-.1-3.74Q532.78,774.73,535.19,770.27ZM608,816.19c2.94-.24,4.51-.4,4.72-.47l4.81-1.14c3.69-.34,5.85-.83,6.46-1.45a3.76,3.76,0,0,0,.72-3.11l-.31-1.56.31-5.5a2.21,2.21,0,0,0-1.44-1,6.87,6.87,0,0,0-3.33.62,26.58,26.58,0,0,1-2.71.94l-4.82,1c-1.51.56-2.29.84-2.36.84a16.16,16.16,0,0,1-2.67,0,4.65,4.65,0,0,0-3.64,1.29,4.18,4.18,0,0,0-1.28,2.91l.31,2.7V815Q603.63,816.55,608,816.19Zm50.44-9.5q2.56-3.63,2.46-4.35c-.2-.76-2.6-1.2-7.18-1.3s-7.41.22-8.5,1l-2-.41q-.93,0-.72,5c0,2,.2,3.29.61,3.84s1.85.69,4.31.42l4.61-.63,3.69.11Q655.91,810.33,658.47,806.69Z" transform="translate(-0.09 0)"/><path class="cls-4" d="M420,308.62a72,72,0,0,0-13.08,13.81Q413.17,315.28,420,308.62Z" transform="translate(-0.09 0)"/><path class="cls-4" d="M523.75,406c-2.58,2.86-5.07,5.83-7.44,8.89A71.08,71.08,0,0,0,523.75,406Z" transform="translate(-0.09 0)"/><path class="cls-4" d="M590.3,239.24A242.81,242.81,0,0,0,420,308.62q-6.81,6.64-13.08,13.81a71.84,71.84,0,0,0,109.41,92.49c2.37-3.06,4.86-6,7.44-8.89,24.3-26.84,57.81-44.41,94.28-44.41,72.44,0,129.1,69.29,129.1,143S693.87,672.69,593.76,692.85c-39.9,8-71.36,12.12-95.9,13A243.21,243.21,0,0,0,590.3,724c134.31,0,243.2-108.51,243.2-242.38S724.61,239.24,590.3,239.24Z" transform="translate(-0.09 0)"/></svg>