<svg id="图层_1" data-name="图层 1" xmlns="http://www.w3.org/2000/svg" xmlns:xlink="http://www.w3.org/1999/xlink" viewBox="0 0 1024 1024"><defs><style>.cls-1{fill:url(#未命名的渐变_8);}.cls-2{fill:#fff;}</style><linearGradient id="未命名的渐变_8" x1="512" x2="512" y2="1024" gradientUnits="userSpaceOnUse"><stop offset="0" stop-color="#fdc830"/><stop offset="1" stop-color="#f37335"/></linearGradient></defs><title>湖南快乐10分</title><rect class="cls-1" width="1024" height="1024" rx="350" ry="350"/><path class="cls-2" d="M577,314c13,1,25,38,23,50s-59-2-85,14-45,24-78,18,27-4,66-34A544,544,0,0,1,577,314Z"/><path class="cls-2" d="M368.34,236.71q-4.55,12.91-12.14,47a112.08,112.08,0,0,0-22,2.28,378.74,378.74,0,0,1,13.66-56.15q4.55-10.62,12.9-7.59Q372.88,224.57,368.34,236.71ZM339.51,119.1q9.85-3,16.69,4.55,6.83,9.11,12.14,28.83-15.93,0-22.76,4.55a120.76,120.76,0,0,0-6.07-16.69,57.09,57.09,0,0,1-3-6.83Q331.92,123.67,339.51,119.1Zm3.79,54.63q11.38-2.28,15.93,6.83a119.52,119.52,0,0,1,6.83,27.32,51.58,51.58,0,0,0-22.76,3.79,108.09,108.09,0,0,0-6.07-23.52Q333.43,176,343.3,173.74Zm74.36-43.25v25h21.25q.75-9.11.76-18.21.75-15.93,9.86-15.18a12.3,12.3,0,0,1,7.59,2.28,33.51,33.51,0,0,1,13.66-3q25-2.28,25.8,31.87,2.28,41.74-.76,122.92a103.17,103.17,0,0,0-23.52,3q1.51-19.72,3-63-3,1.53-8.35,4.55-6.08,3.81-9.11,5.31v25q-.76,17.46-.76,26.56A66.89,66.89,0,0,0,434.36,280q0-3.81.76-11.38V257.2q-15.93,2.28-38.7,9.86v6.83a84.63,84.63,0,0,0-20.49,2.28q-3-26.55-1.52-63,.75-13.66,9.86-13.66a9.87,9.87,0,0,1,9.11,5.31c0-.5.5-.76,1.52-.76V173.74a54.79,54.79,0,0,1-6.07,2.28c-2.54,1-4.55,1.78-6.07,2.28q-11.38,6.08-15.93-1.52-3.81-8.34,4.55-13.66,9.11-4.55,24.28-6.07v-25.8q0-15.17,9.86-14.42Q416.14,116.83,417.66,130.48ZM394.9,220q0,13.66.76,31.87a98.82,98.82,0,0,1,12.9-2.28q4.55-15.17,4.55-25.8,0-8.34-6.83-8.35Q401.73,215.47,394.9,220Zm40.22,28.07q.75-13.66,1.52-41,1.51-29.59,2.28-43.25-4.55.76-12.9,1.52a41.35,41.35,0,0,1-8.35,1.52q0,6.83-.76,19.73v15.93q15.17,1.53,14.42,20.49a109.59,109.59,0,0,1-3,25Zm24.28-61.46v9.86q-.76,7.59-.76,11.38a60.41,60.41,0,0,1,12.9-2.28,23.53,23.53,0,0,1,3.79-.76V179A64.76,64.76,0,0,0,459.4,186.63Zm1.52-44.77v13.66q-.76,9.1-.76,13.66h1.52a56.56,56.56,0,0,1,13.66-1.52v-8.35a60.67,60.67,0,0,1-.76-7.59q-.76-14.41-5.31-14.42Q467,137.31,460.91,141.87Z"/><path class="cls-2" d="M577.77,200.29l3-.76a6,6,0,0,0-.76-2.28,3.14,3.14,0,0,0-.76-2.28,8.35,8.35,0,0,1,1.52-8.35q-4.55,1.53-12.9,4.55a8.35,8.35,0,0,0-3,1.52q-6.08,48.57-8.35,76.64a84.61,84.61,0,0,0-22,1.52q2.28-37.17,8.35-81.95,3-17.45,12.9-16.69,6.06,0,8.35,3.79a24,24,0,0,1,5.31-1.52q15.93-3.79,25-5.31a57.92,57.92,0,0,0,.76-10.62c.5-4.55.76-7.84.76-9.86q-33.4,6.08-56.15,15.18-13.66,6.83-18.21-1.52-4.55-6.83,3.79-12.9,12.13-9.11,71.33-14.42V122.9q0-12.89,11.38-13.66,11.38,0,12.14,10.62,0,5.32-.76,13.66a649.1,649.1,0,0,1,69.81-.76l4.55,7.59a659.29,659.29,0,0,0-74.36,5.31A201,201,0,0,0,618,166.15h12.9q41.72-1.51,52.36,31.87,6.83,26.57,1.52,76.64a169.42,169.42,0,0,0-22.76,0,276.36,276.36,0,0,0,2.28-45.53v-8.35q-.76-10.62-2.28-19.73-3.81-24.27-29.59-24.28c0,.51.5.76,1.52.76q7.58,4.55,4.55,11.38a7.86,7.86,0,0,1-1.52,3,24.15,24.15,0,0,1-1.52,4.55h18.21l3,6.07a361.79,361.79,0,0,0-37.94,3q2.28,2.28,2.28,6.83v9.86a47.32,47.32,0,0,0,7.59-.76q17.44-.75,30.35-.76l2.28,8.35a283.18,283.18,0,0,0-41,4.55v44.77a115.81,115.81,0,0,0-22.76,2.28q0-22,.76-41.73l-6.83,2.28a106.27,106.27,0,0,0-13.66,4.55q-15.19,5.32-15.93-3-1.53-8.34,6.07-10.62,11.38-3.79,31.11-7.59a31.73,31.73,0,0,1,.76-5.31v-4.55a9.31,9.31,0,0,1,1.52-5.31,76.15,76.15,0,0,0-19,6.07q-13.66,4.55-15.18-3.79Q566.38,202.57,577.77,200.29Zm19.73-12.9a62.14,62.14,0,0,1,5.31,9.86,20.59,20.59,0,0,0,4.55-.76h4.55A100.33,100.33,0,0,1,621,181.32a6.94,6.94,0,0,1,3.79-3.79q-14.42,0-34.14,5.31Q596.73,184.37,597.49,187.39Z"/><path class="cls-2" d="M630.5,420.5s-58,1-78,10c-11,2-25,2-25,2l-1-28s-38,16-36,23,14,19,4,24-44,34-53,21,26-49,16-59-36-12-59-9-31,3-31,3,21-29,19-47-12-26-36-24-35,10-35,10l-1-35-20,3v40s-26.5,1.5-36,7c-10.09,5.84-19,38-3,33a61.54,61.54,0,0,0,12.57-5.2,28.88,28.88,0,0,1,15.3-4l9.13.23-3,43s-56,28-56,27-9-63,1-87,13-35,13-35l-41,2s-6,143-16,142S180,405,180,405c-1,2-3,14-18,15s-27,2-27,2l-5,102s5,22,17,18,29-25,29-25,6,41-7,58l52-3V490l56-36s14,28-13,66-33,48-33,48h66l6-88s16-12,32,19,15,65,15,65l51-4s11-50-20-79-72.5-24.5-72.5-24.5,1-23,51-30,77-3,77-3-39,62-27,78,43,5,43,5l58-34v29s-22,28-51,23-48,11-32,33,86-43,86-43,11,16-20,40c0,0-9,32,4,34s36,6,44-12,8-72,8-72,29,3,37,22,4,26,9,26,35-21,33-29-14-27-43-32-41-10-41-17v-18s46,5,61,12,20,7,20,7-5-34,3-41S630.5,420.5,630.5,420.5Zm-292-35c-1,25-27,40-27,40v-64S339.5,360.5,338.5,385.5Z"/><path class="cls-2" d="M312,617l126-31s1,46-18,68-46,36-48,83,4,126-16,131-66-11-67-31,38.5-176.5,38.5-176.5-22,3-22-6S312,617,312,617Z"/><path class="cls-2" d="M571.46,623.22C516.92,590.63,442,615.6,404.11,679s-24.39,141.21,30.15,173.8S563.72,860.41,601.61,797,626,655.81,571.46,623.22Zm-61,132.28c-12,11-27,43-27,43s-5-34-15-49-41-22-41-22,26-5,45-13,30-45,30-45,12,31,21,44,34,16,34,16S522.5,744.5,510.5,755.5Z"/><path class="cls-2" d="M718,561s7-21,38-22,71,2,113,51,17,59-7,66-29.5,17.5-31.5,14.5,5-47-16-69S779.5,567.5,718,561Z"/><polygon class="cls-2" points="701.5 585.5 635.5 637.5 637.5 680.5 706.5 593.5 701.5 585.5"/><path class="cls-2" d="M679.64,693.09a8.52,8.52,0,0,1-10.79-11.46c5.92-13.09,13.67-28,18.66-29.13,6.6-1.47,32-.78,45.12-.31a15,15,0,0,0,12-5.28c5.79-6.82,17.51-17.14,33.9-14.41,24,4,40,33,42,54s6,73-25,88-82,12-82,12L739,739s29.5-8.5,38.5-20.5,9-28,5-43-22-16-30,7-51,102-82,132-104,95-149,98-85,10-102-15S396,837,396,837s32.5,41.5,81.5,42.5,116-34,146-66,79-103,83-120C708.8,683.73,693.27,687.83,679.64,693.09Z"/><path class="cls-2" d="M819.5,290.5s-18,42-36,62-55,36-55,36,35,12,45,38,11,58,11,58,23-50,41-64,47-27,47-27-32-20-42-38S819.5,290.5,819.5,290.5Z"/><path class="cls-2" d="M239.5,222.5s-7,26-15,31-26,11-26,11,17.5,13.5,20,20,5,33,5,33S233,293.06,242,285c9.5-8.5,26.5-15.5,26.5-15.5s-12-6-19-17S239.5,222.5,239.5,222.5Z"/><path class="cls-2" d="M233.5,625.5s-7,30-18,37-31,11-31,11,18,14,24,26,9,36,9,36,16-29,25-36,30-19,30-19-17-5-25-20S233.5,625.5,233.5,625.5Z"/></svg>